<?xml version="1.0" encoding="UTF-8" standalone="no"?>
<!-- Created with Inkscape (http://www.inkscape.org/) -->

<svg
   xmlns:dc="http://purl.org/dc/elements/1.1/"
   xmlns:cc="http://creativecommons.org/ns#"
   xmlns:rdf="http://www.w3.org/1999/02/22-rdf-syntax-ns#"
   xmlns:svg="http://www.w3.org/2000/svg"
   xmlns="http://www.w3.org/2000/svg"
   xmlns:sodipodi="http://sodipodi.sourceforge.net/DTD/sodipodi-0.dtd"
   xmlns:inkscape="http://www.inkscape.org/namespaces/inkscape"
   width="606.79126"
   height="431.65607"
   id="svg3177"
   version="1.1"
   inkscape:version="0.92.1 r15371"
   sodipodi:docname="fino.svg">
  <defs
     id="defs3179" />
  <sodipodi:namedview
     id="base"
     pagecolor="#ffffff"
     bordercolor="#666666"
     borderopacity="1.0"
     inkscape:pageopacity="0.0"
     inkscape:pageshadow="2"
     inkscape:zoom="1"
     inkscape:cx="534.26966"
     inkscape:cy="259.84306"
     inkscape:document-units="px"
     inkscape:current-layer="layer1"
     showgrid="false"
     fit-margin-top="0"
     fit-margin-left="0"
     fit-margin-right="0"
     fit-margin-bottom="0"
     inkscape:window-width="1920"
     inkscape:window-height="1015"
     inkscape:window-x="0"
     inkscape:window-y="0"
     inkscape:window-maximized="1"
     units="px" />
  <metadata
     id="metadata3182">
    <rdf:RDF>
      <cc:Work
         rdf:about="">
        <dc:format>image/svg+xml</dc:format>
        <dc:type
           rdf:resource="http://purl.org/dc/dcmitype/StillImage" />
        <dc:title></dc:title>
      </cc:Work>
    </rdf:RDF>
  </metadata>
  <g
     inkscape:label="Layer 1"
     inkscape:groupmode="layer"
     id="layer1"
     transform="translate(-474.79272,-255.85584)">
    <path
       class="fil0"
       d="m 677.41188,508.17603 c 0.7458,0 0.7458,0 1.49159,0 h 1.49158 c -2.23737,-1.49159 -2.23737,0 -2.23737,-10.4411 2.98317,2.23738 4.47475,2.23738 4.47475,6.71213 0,6.71214 -1.49158,5.96635 -5.22055,3.72897 z"
       id="path78"
       inkscape:connector-curvature="0"
       style="fill:#000000;fill-opacity:1;fill-rule:evenodd" />
    <g
       style="font-style:normal;font-variant:normal;font-weight:normal;font-stretch:normal;font-size:48px;line-height:125%;font-family:Carlito;-inkscape-font-specification:Carlito;letter-spacing:0px;word-spacing:0px;fill:#000000;fill-opacity:1;stroke:none"
       id="text3223"
       transform="matrix(8.4724362,0,0,8.4724362,-4462.7351,-5079.6201)">
      <path
         d="m 586.19733,663.40601 v -19.47657 l -2.32032,-0.30468 c -0.32812,-0.0312 -0.59375,-0.1328 -0.79687,-0.30469 -0.20313,-0.17186 -0.30469,-0.41404 -0.30469,-0.72656 v -1.6875 h 3.42188 v -2.17969 c -10e-6,-1.31248 0.17187,-2.47654 0.51562,-3.49219 0.35937,-1.03122 0.86718,-1.89059 1.52344,-2.57812 0.65624,-0.7031 1.45312,-1.23435 2.39062,-1.59375 0.93749,-0.37497 1.99218,-0.56247 3.16407,-0.5625 0.48436,3e-5 0.95311,0.0391 1.40625,0.11718 0.46873,0.0782 0.91405,0.18754 1.33593,0.32813 l -0.11718,2.0625 c -0.0313,0.3594 -0.21877,0.56253 -0.5625,0.60937 -0.34377,0.0313 -0.8047,0.0469 -1.38282,0.0469 -0.65626,3e-5 -1.25001,0.086 -1.78125,0.25781 -0.51563,0.17191 -0.96094,0.46097 -1.33593,0.86719 -0.37501,0.40628 -0.66407,0.94534 -0.86719,1.61719 -0.20313,0.65627 -0.3047,1.46877 -0.30469,2.4375 v 2.0625 h 10.78866 v 3 h -10.64803 v 19.5 h -4.125"
         id="path4000"
         inkscape:connector-curvature="0"
         sodipodi:nodetypes="ccccsccsccccccccccccccccccc" />
    </g>
    <g
       aria-label="o"
       style="font-style:normal;font-variant:normal;font-weight:normal;font-stretch:normal;line-height:0%;font-family:Carlito;-inkscape-font-specification:Carlito;letter-spacing:0px;word-spacing:0px;fill:#000000;fill-opacity:1;stroke:none"
       id="text4002">
      <path
         d="m 981.89067,348.13686 q 21.24733,0 38.32453,7.14862 17.0773,6.95005 28.9916,20.05585 11.9144,12.90722 18.2687,31.37449 6.5529,18.46726 6.5529,41.30312 0,23.03444 -6.5529,41.5017 -6.3543,18.46727 -18.2687,31.57307 -11.9143,12.90722 -28.9916,20.05584 -17.0772,6.95005 -38.32453,6.95005 -21.24728,0 -38.5231,-6.95005 -17.07726,-7.14862 -29.1902,-20.05584 -11.91436,-13.1058 -18.46726,-31.57307 -6.35433,-18.46726 -6.35433,-41.5017 0,-22.83586 6.35433,-41.30312 6.5529,-18.46727 18.46726,-31.37449 12.11294,-13.1058 29.1902,-20.05585 17.27582,-7.14862 38.5231,-7.14862 z m 0,172.75827 q 14.09867,0 24.62303,-4.76574 10.5243,-4.96432 17.4744,-14.29724 7.1486,-9.33291 10.5243,-22.83586 3.5744,-13.50295 3.5744,-30.77877 0,-17.27583 -3.5744,-30.77877 -3.3757,-13.50295 -10.5243,-22.83587 -6.9501,-9.33292 -17.4744,-14.29723 -10.52436,-4.96432 -24.62303,-4.96432 -14.29723,0 -25.02016,4.96432 -10.52435,4.96431 -17.67297,14.29723 -6.95005,9.33292 -10.52436,22.83587 -3.37573,13.50294 -3.37573,30.77877 0,17.27582 3.37573,30.77877 3.57431,13.50295 10.52436,22.83586 7.14862,9.33292 17.67297,14.29724 10.72293,4.76574 25.02016,4.76574 z"
         style="font-size:406.67694092px;line-height:1.25"
         id="path853"
         inkscape:connector-curvature="0" />
    </g>
    <g
       aria-label="n"
       style="font-style:normal;font-variant:normal;font-weight:normal;font-stretch:normal;line-height:0%;font-family:Carlito;-inkscape-font-specification:Carlito;letter-spacing:0px;word-spacing:0px;fill:#000000;fill-opacity:1;stroke:none"
       id="text3227">
      <path
         d="M 706.03639,542.0849 V 347.88077 h 20.85013 q 3.77289,0 6.15576,1.78716 2.38287,1.58858 2.78002,5.36146 l 2.97859,20.65157 q 12.51008,-13.90009 27.99875,-22.24015 15.48867,-8.53863 35.74309,-8.53863 15.88582,0 27.80018,5.36147 12.11294,5.16289 20.25442,14.89295 8.14148,9.53149 12.31151,23.23301 4.17003,13.50295 4.17003,29.98448 V 542.0849 h -34.9488 V 418.37409 q 0,-21.64442 -9.92864,-33.75736 -9.73006,-12.11294 -29.78591,-12.11294 -14.89295,0 -27.80018,7.14862 -12.90723,6.95005 -23.63015,19.46013 V 542.0849 Z"
         style="font-size:406.67694092px;line-height:1.25"
         id="path856"
         inkscape:connector-curvature="0" />
    </g>
    <g
       id="g3727">
      <path
         sodipodi:nodetypes="ccccccccccccscccccccccccc"
         style="fill:#000000;fill-opacity:1;fill-rule:evenodd"
         inkscape:connector-curvature="0"
         id="path22"
         d="m 688.59877,408.23979 c 1.24038,-0.22429 0.99136,-0.0443 2.54123,1.8728 -4.47476,0.7458 -7.01599,-4.85597 -12.98233,-10.07652 l -19.39062,-20.13641 c -3.72896,-3.72896 -14.17006,-17.15323 -19.39061,-20.8822 -2.98317,35.79806 -3.72897,39.52702 -2.23738,74.57928 0,5.96635 -0.74579,5.22055 2.23738,8.94952 l 32.06909,46.23915 c 2.23738,3.72897 4.47476,5.22055 3.72896,7.45793 -1.49158,0 -2.98317,-2.98317 -4.47475,-5.22055 l -28.34013,-40.27281 c -1.49159,-1.49159 -4.47476,-5.96634 -5.22055,-6.71214 0,8.94952 2.23738,38.03544 2.23738,52.2055 0,8.20372 0,17.15324 -1.49159,25.35696 -0.74579,12.67848 0,12.67848 -8.20372,18.64482 -35.05226,25.35695 -39.52702,-29.08592 -38.78122,-58.17184 1.49158,-32.06909 8.20372,-65.62977 17.89902,-92.47831 4.47476,-14.17007 9.69531,-26.10275 16.40744,-38.03544 4.47476,-8.94951 17.15324,-26.84854 24.61117,-30.5775 -0.74579,4.47476 -2.98317,8.94951 -4.47476,14.17006 -1.49158,4.47476 -2.98317,8.94952 -3.72896,14.17007 -2.23738,8.20372 -2.23738,6.71213 2.98317,11.18689 5.22055,5.22055 20.8822,23.86537 26.84854,29.08592 2.23738,2.98317 12.67848,14.91585 17.15323,18.64482 z"
         class="fil0" />
      <path
         style="fill:#000000;fill-opacity:1;fill-rule:evenodd"
         inkscape:connector-curvature="0"
         id="path24"
         d="m 681.14085,288.91294 c 3.72896,0.74579 6.71213,2.23738 9.6953,3.72896 4.47476,0.74579 6.71214,0.74579 8.20372,5.22055 -3.72896,5.22055 -11.93268,-0.74579 -18.64482,-2.23738 -1.49158,8.20372 -5.96634,14.91586 -11.18689,18.64482 -4.47476,2.98317 -17.15323,5.96635 -23.86537,3.72897 -29.83171,-7.45793 -35.79805,-66.37556 9.69531,-61.90081 6.71213,0.7458 14.91585,8.20372 17.89903,11.93269 5.96634,7.45793 5.22055,9.69531 8.20372,20.8822 z"
         class="fil0" />
      <path
         style="fill:#000000;fill-opacity:1;fill-rule:evenodd"
         inkscape:connector-curvature="0"
         id="path52"
         d="m 645.34279,682.69155 c 1.49159,0.74579 2.23738,1.49158 4.47476,2.23738 0.74579,0 2.23738,0 2.98317,0.74579 1.49158,0.74579 0.74579,0 1.49158,1.49158 -2.98317,1.49159 -8.94951,-2.23737 -11.18689,-3.72896 -0.74579,-8.20372 4.47476,-63.39239 5.22055,-76.81666 1.49159,-11.18689 0.7458,-8.20372 -2.98317,-16.40744 -2.98317,-4.47476 -5.22055,-8.94952 -7.45793,-13.42427 -2.23738,-3.72897 -14.91585,-24.61117 -13.42427,-26.84855 2.23738,0.7458 0.74579,0 3.72897,5.22055 l 18.64482,34.30647 c 3.72896,7.45793 5.22055,5.96635 3.72896,15.66165 -0.74579,16.40745 -5.22055,63.39239 -5.22055,77.56246 z"
         class="fil0" />
      <polygon
         style="fill:#000000;fill-opacity:1;fill-rule:evenodd"
         id="polygon68"
         points="2235,-117 2233,-101 2244,-102 2244,-117 "
         class="fil0"
         transform="matrix(-0.72068908,-0.19187023,-0.19187023,0.72068908,2301.2306,842.2308)" />
      <path
         style="fill:#000000;fill-opacity:1;fill-rule:evenodd"
         inkscape:connector-curvature="0"
         id="path82"
         d="m 707.17386,327.54532 c -0.86577,-2.54582 0.86105,-9.03202 1.43667,-11.19408 2.06379,-4.85296 0.19187,-0.72069 2.20886,-2.49902 l 0.33695,1.63324 c -0.38374,1.44139 -1.96549,10.28152 -3.98248,12.05986 z"
         class="fil0" />
      <path
         style="fill:#000000;fill-opacity:1;fill-rule:evenodd"
         inkscape:connector-curvature="0"
         id="path84"
         d="m 715.2933,328.9352 c -1.63324,0.33694 -2.16206,-0.57562 -3.60343,-0.95935 l 2.78446,-4.66109 c 0.33696,1.63325 2.11527,3.65024 0.81897,5.62044 z"
         class="fil0" />
      <path
         style="fill:#000000;fill-opacity:1;fill-rule:evenodd"
         inkscape:connector-curvature="0"
         id="path86"
         d="m 712.12038,323.45984 c 0,0 0.91258,-0.52882 -0.5756,2.16207 -1.48816,2.69088 0.52882,0.91256 -2.01698,1.77833 0,0 -2.54582,0.86576 0.0468,-3.07463 1.48816,-2.69088 1.82511,-1.05764 2.54579,-0.86577 z"
         class="fil0" />
      <path
         sodipodi:nodetypes="sssscscscsccs"
         inkscape:connector-curvature="0"
         id="path2993"
         d="m 613.88428,686.31934 c 0,-0.15923 -3.02046,-1.03576 -6.71214,-1.94794 -3.69167,-0.91218 -6.71213,-1.94294 -6.71213,-2.29055 0,-0.34754 4.06524,-18.65795 9.03379,-40.68972 l 9.03371,-40.05773 -4.96743,-25.04301 c -5.18281,-26.12929 -5.45592,-27.3423 -6.0272,-26.77099 -0.19256,0.19251 1.973,11.93809 4.81216,26.10132 l 5.16223,25.75131 -8.88307,39.44872 c -4.88561,21.69683 -9.05318,40.16363 -9.2611,41.03733 -0.34307,1.44109 0.20695,1.73523 5.92584,3.16962 6.07672,1.52403 8.59534,1.90252 8.59534,1.29164 z"
         style="fill:#000000;fill-opacity:1;fill-rule:evenodd" />
      <path
         sodipodi:nodetypes="cc"
         transform="translate(474.79272,255.85585)"
         inkscape:connector-curvature="0"
         id="path3036"
         d="M 215.125,153.90607 232.49372,82.928814"
         style="fill:#000000;fill-opacity:1;stroke:#000000;stroke-width:2.5;stroke-linecap:butt;stroke-linejoin:miter;stroke-miterlimit:4;stroke-dasharray:none;stroke-opacity:1" />
    </g>
    <path
       inkscape:connector-curvature="0"
       id="path3826"
       style="font-style:normal;font-variant:normal;font-weight:normal;font-stretch:normal;font-size:medium;line-height:1.25;font-family:Carlito;-inkscape-font-specification:Carlito;letter-spacing:0px;word-spacing:0px;fill:#000000;fill-opacity:1;stroke:none"
       d="m 656.64258,568.51489 q -0.50781,0 -0.78125,-0.15625 -0.27344,-0.15625 -0.3711,-0.64453 l -0.42968,-1.77734 q -0.74219,0.68359 -1.46485,1.23047 -0.70312,0.52734 -1.48437,0.89843 -0.78125,0.3711 -1.67969,0.54688 -0.89844,0.19531 -1.97266,0.19531 -1.11328,0 -2.08984,-0.29297 -0.95703,-0.3125 -1.69922,-0.9375 -0.72265,-0.64453 -1.15234,-1.58203 -0.41016,-0.95703 -0.41016,-2.24609 0,-1.13281 0.60547,-2.16797 0.625,-1.05469 2.01172,-1.875 1.38672,-0.82031 3.61328,-1.32813 2.22656,-0.52734 5.46875,-0.60546 v -1.46485 q 0,-2.22656 -0.95703,-3.33984 -0.9375,-1.13281 -2.75391,-1.13281 -1.21093,0 -2.05078,0.3125 -0.82031,0.3125 -1.42578,0.68359 -0.60547,0.37109 -1.05469,0.68359 -0.42968,0.3125 -0.8789,0.3125 -0.35157,0 -0.60547,-0.17578 -0.25391,-0.17578 -0.41016,-0.44922 l -0.625,-1.09375 q 1.58203,-1.52343 3.39844,-2.26562 1.83594,-0.76172 4.0625,-0.76172 1.60156,0 2.85156,0.52734 1.25,0.50782 2.08985,1.46485 0.83984,0.95703 1.26953,2.28515 0.44922,1.32813 0.44922,2.94922 v 12.20703 z m -7.14844,-2.10937 q 0.85938,0 1.58203,-0.17578 0.72266,-0.17578 1.36719,-0.48828 0.64453,-0.33204 1.21094,-0.80079 0.58593,-0.48828 1.15234,-1.07421 v -3.94532 q -2.28516,0.0977 -3.88672,0.39063 -1.60156,0.27344 -2.61719,0.74219 -0.99609,0.46875 -1.44531,1.11328 -0.44922,0.625 -0.44922,1.40625 0,0.74218 0.23438,1.28906 0.2539,0.52734 0.66406,0.87891 0.41016,0.33203 0.97656,0.50781 0.56641,0.15625 1.21094,0.15625 z" />
    <path
       inkscape:connector-curvature="0"
       id="path3828"
       style="font-style:normal;font-variant:normal;font-weight:normal;font-stretch:normal;font-size:medium;line-height:1.25;font-family:Carlito;-inkscape-font-specification:Carlito;letter-spacing:0px;word-spacing:0px;fill:#000000;fill-opacity:1;stroke:none"
       d="m 672.99023,568.51489 v -16.23047 l -1.93359,-0.2539 q -0.41016,-0.0391 -0.66406,-0.25391 -0.25391,-0.21484 -0.25391,-0.60547 v -1.40625 h 2.85156 v -1.8164 q 0,-1.64063 0.42969,-2.91016 0.44922,-1.28906 1.26953,-2.14844 0.82032,-0.8789 1.99219,-1.32812 1.17188,-0.46875 2.63672,-0.46875 0.60547,0 1.17187,0.0976 0.58594,0.0977 1.11329,0.27344 l -0.0977,1.71875 q -0.0391,0.44922 -0.46875,0.50781 -0.42969,0.0391 -1.15234,0.0391 -0.82032,0 -1.48438,0.21484 -0.64453,0.21484 -1.11328,0.72266 -0.46875,0.50781 -0.72266,1.34765 -0.2539,0.82032 -0.2539,2.03125 v 1.71875 h 5.13672 v 2.5 h -5.01954 v 16.25 z" />
    <path
       inkscape:connector-curvature="0"
       id="path3830"
       style="font-style:normal;font-variant:normal;font-weight:normal;font-stretch:normal;font-size:medium;line-height:1.25;font-family:Carlito;-inkscape-font-specification:Carlito;letter-spacing:0px;word-spacing:0px;fill:#000000;fill-opacity:1;stroke:none"
       d="m 684.41602,568.51489 v -19.10156 h 1.97265 q 0.54688,0 0.76172,0.21484 0.23438,0.21485 0.27344,0.72266 l 0.23437,2.8125 q 0.87891,-1.89453 2.16797,-2.98828 1.28906,-1.09375 3.10547,-1.09375 0.60547,0 1.13281,0.13672 0.52735,0.11719 0.95703,0.41015 l -0.27343,2.53907 q -0.0586,0.48828 -0.54688,0.48828 -0.27344,0 -0.78125,-0.0977 -0.48828,-0.11719 -1.09375,-0.11719 -0.8789,0 -1.5625,0.27344 -0.66406,0.25391 -1.21094,0.78125 -0.52734,0.50781 -0.9375,1.25 -0.41015,0.74219 -0.76171,1.69922 v 12.07031 z" />
    <path
       inkscape:connector-curvature="0"
       id="path3832"
       style="font-style:normal;font-variant:normal;font-weight:normal;font-stretch:normal;font-size:medium;line-height:1.25;font-family:Carlito;-inkscape-font-specification:Carlito;letter-spacing:0px;word-spacing:0px;fill:#000000;fill-opacity:1;stroke:none"
       d="m 705.74414,549.12036 q 1.71875,0 3.18359,0.56641 1.46485,0.5664 2.53907,1.66015 1.07422,1.09375 1.67968,2.67579 0.60547,1.58203 0.60547,3.63281 0,0.80078 -0.17578,1.07422 -0.17578,0.2539 -0.64453,0.2539 H 700.1582 q 0.0391,1.79688 0.48828,3.14453 0.44922,1.32813 1.23047,2.20704 0.80078,0.8789 1.89453,1.32812 1.09375,0.42969 2.44141,0.42969 1.25,0 2.16797,-0.27344 0.91797,-0.29297 1.5625,-0.64453 0.66406,-0.35156 1.11328,-0.625 0.44922,-0.29297 0.78125,-0.29297 0.21484,0 0.37109,0.0977 0.15625,0.0781 0.27344,0.23437 l 0.97656,1.25 q -0.64453,0.76172 -1.52343,1.32813 -0.85938,0.54687 -1.85547,0.91797 -0.9961,0.35156 -2.07031,0.52734 -1.05469,0.17578 -2.08985,0.17578 -1.99219,0 -3.67187,-0.66406 -1.67969,-0.66406 -2.91016,-1.95313 -1.21094,-1.30859 -1.89453,-3.20312 -0.68359,-1.91406 -0.68359,-4.39453 0,-1.99219 0.60546,-3.71094 0.625,-1.73828 1.77735,-3.00781 1.17187,-1.28907 2.83203,-2.01172 1.67969,-0.72266 3.76953,-0.72266 z m 0.0586,2.5 q -2.40234,0 -3.80859,1.40625 -1.38672,1.40625 -1.73828,3.84766 h 10.41016 q 0,-1.15235 -0.33204,-2.10938 -0.33203,-0.97656 -0.95703,-1.66015 -0.625,-0.70313 -1.54297,-1.09375 -0.89843,-0.39063 -2.03125,-0.39063 z" />
    <path
       inkscape:connector-curvature="0"
       id="path3834"
       style="font-style:normal;font-variant:normal;font-weight:normal;font-stretch:normal;font-size:medium;line-height:1.25;font-family:Carlito;-inkscape-font-specification:Carlito;letter-spacing:0px;word-spacing:0px;fill:#000000;fill-opacity:1;stroke:none"
       d="m 725.66602,549.12036 q 1.71875,0 3.18359,0.56641 1.46484,0.5664 2.53906,1.66015 1.07422,1.09375 1.67969,2.67579 0.60547,1.58203 0.60547,3.63281 0,0.80078 -0.17578,1.07422 -0.17578,0.2539 -0.64453,0.2539 h -12.77344 q 0.0391,1.79688 0.48828,3.14453 0.44922,1.32813 1.23047,2.20704 0.80078,0.8789 1.89453,1.32812 1.09375,0.42969 2.44141,0.42969 1.25,0 2.16796,-0.27344 0.91797,-0.29297 1.5625,-0.64453 0.66407,-0.35156 1.11329,-0.625 0.44921,-0.29297 0.78125,-0.29297 0.21484,0 0.37109,0.0977 0.15625,0.0781 0.27344,0.23437 l 0.97656,1.25 q -0.64453,0.76172 -1.52344,1.32813 -0.85937,0.54687 -1.85547,0.91797 -0.99609,0.35156 -2.07031,0.52734 -1.05469,0.17578 -2.08984,0.17578 -1.99219,0 -3.67188,-0.66406 -1.67969,-0.66406 -2.91015,-1.95313 -1.21094,-1.30859 -1.89454,-3.20312 -0.68359,-1.91406 -0.68359,-4.39453 0,-1.99219 0.60547,-3.71094 0.625,-1.73828 1.77734,-3.00781 1.17188,-1.28907 2.83203,-2.01172 1.67969,-0.72266 3.76954,-0.72266 z m 0.0586,2.5 q -2.40234,0 -3.80859,1.40625 -1.38672,1.40625 -1.73829,3.84766 h 10.41016 q 0,-1.15235 -0.33203,-2.10938 -0.33203,-0.97656 -0.95703,-1.66015 -0.625,-0.70313 -1.54297,-1.09375 -0.89844,-0.39063 -2.03125,-0.39063 z" />
    <path
       inkscape:connector-curvature="0"
       id="path3836"
       style="font-style:normal;font-variant:normal;font-weight:normal;font-stretch:normal;font-size:medium;line-height:1.25;font-family:Carlito;-inkscape-font-specification:Carlito;letter-spacing:0px;word-spacing:0px;fill:#000000;fill-opacity:1;stroke:none"
       d="m 747.61914,568.51489 v -16.23047 l -2.03125,-0.2539 c -0.27344,-0.0261 -0.49479,-0.1107 -0.66406,-0.25391 -0.16927,-0.14323 -0.25391,-0.34505 -0.25391,-0.60547 v -1.40625 h 2.94922 v -2.48047 c 0,-2.08333 0.46875,-3.65885 1.40625,-4.72656 0.9375,-1.08073 2.2526,-1.62109 3.94531,-1.62109 0.29948,0 0.56641,0.013 0.80078,0.0391 0.2474,0.0261 0.48178,0.0782 0.70313,0.15625 v 1.875 c 0,0.19531 -0.0911,0.31901 -0.27344,0.37109 -0.18229,0.0521 -0.42969,0.0781 -0.74219,0.0781 -0.85937,0 -1.49739,0.29948 -1.91406,0.89844 -0.40365,0.58593 -0.60547,1.55598 -0.60547,2.91015 v 2.5 h 10.42579 l -0.74464,2.59316 -1.77099,-0.0932 v 0 h -7.79297 v 16.25 z"
       sodipodi:nodetypes="ccccsccscsccscscscccccccc" />
    <path
       inkscape:connector-curvature="0"
       id="path3838"
       style="font-style:normal;font-variant:normal;font-weight:normal;font-stretch:normal;font-size:medium;line-height:1.25;font-family:Carlito;-inkscape-font-specification:Carlito;letter-spacing:0px;word-spacing:0px;fill:#000000;fill-opacity:1;stroke:none"
       d="m 768.10742,568.51489 v -19.10156 h 2.05078 q 0.3711,0 0.60547,0.17578 0.23438,0.15625 0.27344,0.52735 l 0.29297,2.03125 q 1.23047,-1.36719 2.7539,-2.1875 1.52344,-0.83985 3.51563,-0.83985 1.5625,0 2.73437,0.52735 1.19141,0.50781 1.99219,1.46484 0.80078,0.9375 1.21094,2.28516 0.41016,1.32812 0.41016,2.94921 v 12.16797 h -3.4375 v -12.16797 q 0,-2.1289 -0.97657,-3.32031 -0.95703,-1.1914 -2.92968,-1.1914 -1.46485,0 -2.73438,0.70312 -1.26953,0.68359 -2.32422,1.91406 v 14.0625 z" />
    <g
       id="g3747"
       transform="matrix(0.09669786,0,0,0.09669786,699.7746,515.52417)">
      <path
         class="fil0"
         d="m 688.59877,408.23979 c 1.24038,-0.22429 0.99136,-0.0443 2.54123,1.8728 -4.47476,0.7458 -7.01599,-4.85597 -12.98233,-10.07652 l -19.39062,-20.13641 c -3.72896,-3.72896 -14.17006,-17.15323 -19.39061,-20.8822 -2.98317,35.79806 -3.72897,39.52702 -2.23738,74.57928 0,5.96635 -0.74579,5.22055 2.23738,8.94952 l 32.06909,46.23915 c 2.23738,3.72897 4.47476,5.22055 3.72896,7.45793 -1.49158,0 -2.98317,-2.98317 -4.47475,-5.22055 l -28.34013,-40.27281 c -1.49159,-1.49159 -4.47476,-5.96634 -5.22055,-6.71214 0,8.94952 2.23738,38.03544 2.23738,52.2055 0,8.20372 0,17.15324 -1.49159,25.35696 -0.74579,12.67848 0,12.67848 -8.20372,18.64482 -35.05226,25.35695 -39.52702,-29.08592 -38.78122,-58.17184 1.49158,-32.06909 8.20372,-65.62977 17.89902,-92.47831 4.47476,-14.17007 9.69531,-26.10275 16.40744,-38.03544 4.47476,-8.94951 17.15324,-26.84854 24.61117,-30.5775 -0.74579,4.47476 -2.98317,8.94951 -4.47476,14.17006 -1.49158,4.47476 -2.98317,8.94952 -3.72896,14.17007 -2.23738,8.20372 -2.23738,6.71213 2.98317,11.18689 5.22055,5.22055 20.8822,23.86537 26.84854,29.08592 2.23738,2.98317 12.67848,14.91585 17.15323,18.64482 z"
         id="path3729"
         inkscape:connector-curvature="0"
         style="fill:#000000;fill-opacity:1;fill-rule:evenodd"
         sodipodi:nodetypes="ccccccccccccscccccccccccc" />
      <path
         class="fil0"
         d="m 681.14085,288.91294 c 3.72896,0.74579 6.71213,2.23738 9.6953,3.72896 4.47476,0.74579 6.71214,0.74579 8.20372,5.22055 -3.72896,5.22055 -11.93268,-0.74579 -18.64482,-2.23738 -1.49158,8.20372 -5.96634,14.91586 -11.18689,18.64482 -4.47476,2.98317 -17.15323,5.96635 -23.86537,3.72897 -29.83171,-7.45793 -35.79805,-66.37556 9.69531,-61.90081 6.71213,0.7458 14.91585,8.20372 17.89903,11.93269 5.96634,7.45793 5.22055,9.69531 8.20372,20.8822 z"
         id="path3731"
         inkscape:connector-curvature="0"
         style="fill:#000000;fill-opacity:1;fill-rule:evenodd" />
      <path
         class="fil0"
         d="m 645.34279,682.69155 c 1.49159,0.74579 2.23738,1.49158 4.47476,2.23738 0.74579,0 2.23738,0 2.98317,0.74579 1.49158,0.74579 0.74579,0 1.49158,1.49158 -2.98317,1.49159 -8.94951,-2.23737 -11.18689,-3.72896 -0.74579,-8.20372 4.47476,-63.39239 5.22055,-76.81666 1.49159,-11.18689 0.7458,-8.20372 -2.98317,-16.40744 -2.98317,-4.47476 -5.22055,-8.94952 -7.45793,-13.42427 -2.23738,-3.72897 -14.91585,-24.61117 -13.42427,-26.84855 2.23738,0.7458 0.74579,0 3.72897,5.22055 l 18.64482,34.30647 c 3.72896,7.45793 5.22055,5.96635 3.72896,15.66165 -0.74579,16.40745 -5.22055,63.39239 -5.22055,77.56246 z"
         id="path3733"
         inkscape:connector-curvature="0"
         style="fill:#000000;fill-opacity:1;fill-rule:evenodd" />
      <polygon
         transform="matrix(-0.72068908,-0.19187023,-0.19187023,0.72068908,2301.2306,842.2308)"
         class="fil0"
         points="2233,-101 2244,-102 2244,-117 2235,-117 "
         id="polygon3735"
         style="fill:#000000;fill-opacity:1;fill-rule:evenodd" />
      <path
         class="fil0"
         d="m 707.17386,327.54532 c -0.86577,-2.54582 0.86105,-9.03202 1.43667,-11.19408 2.06379,-4.85296 0.19187,-0.72069 2.20886,-2.49902 l 0.33695,1.63324 c -0.38374,1.44139 -1.96549,10.28152 -3.98248,12.05986 z"
         id="path3737"
         inkscape:connector-curvature="0"
         style="fill:#000000;fill-opacity:1;fill-rule:evenodd" />
      <path
         class="fil0"
         d="m 715.2933,328.9352 c -1.63324,0.33694 -2.16206,-0.57562 -3.60343,-0.95935 l 2.78446,-4.66109 c 0.33696,1.63325 2.11527,3.65024 0.81897,5.62044 z"
         id="path3739"
         inkscape:connector-curvature="0"
         style="fill:#000000;fill-opacity:1;fill-rule:evenodd" />
      <path
         class="fil0"
         d="m 712.12038,323.45984 c 0,0 0.91258,-0.52882 -0.5756,2.16207 -1.48816,2.69088 0.52882,0.91256 -2.01698,1.77833 0,0 -2.54582,0.86576 0.0468,-3.07463 1.48816,-2.69088 1.82511,-1.05764 2.54579,-0.86577 z"
         id="path3741"
         inkscape:connector-curvature="0"
         style="fill:#000000;fill-opacity:1;fill-rule:evenodd" />
      <path
         style="fill:#000000;fill-opacity:1;fill-rule:evenodd"
         d="m 613.88428,686.31934 c 0,-0.15923 -3.02046,-1.03576 -6.71214,-1.94794 -3.69167,-0.91218 -6.71213,-1.94294 -6.71213,-2.29055 0,-0.34754 4.06524,-18.65795 9.03379,-40.68972 l 9.03371,-40.05773 -4.96743,-25.04301 c -5.18281,-26.12929 -5.45592,-27.3423 -6.0272,-26.77099 -0.19256,0.19251 1.973,11.93809 4.81216,26.10132 l 5.16223,25.75131 -8.88307,39.44872 c -4.88561,21.69683 -9.05318,40.16363 -9.2611,41.03733 -0.34307,1.44109 0.20695,1.73523 5.92584,3.16962 6.07672,1.52403 8.59534,1.90252 8.59534,1.29164 z"
         id="path3743"
         inkscape:connector-curvature="0"
         sodipodi:nodetypes="sssscscscsccs" />
      <path
         style="fill:#000000;fill-opacity:1;stroke:#000000;stroke-width:2.5;stroke-linecap:butt;stroke-linejoin:miter;stroke-miterlimit:4;stroke-dasharray:none;stroke-opacity:1"
         d="M 215.125,153.90607 232.49372,82.928814"
         id="path3745"
         inkscape:connector-curvature="0"
         transform="translate(474.79272,255.85585)"
         sodipodi:nodetypes="cc" />
    </g>
    <path
       inkscape:connector-curvature="0"
       id="path3840"
       style="font-style:normal;font-variant:normal;font-weight:normal;font-stretch:normal;font-size:medium;line-height:1.25;font-family:Carlito;-inkscape-font-specification:Carlito;letter-spacing:0px;word-spacing:0px;fill:#000000;fill-opacity:1;stroke:none"
       d="m 788.53711,568.51489 z m 4.16016,-19.10156 v 19.10156 h -3.4375 v -19.10156 z m 0.66406,-5.97656 q 0,0.48828 -0.19531,0.9375 -0.19532,0.42969 -0.54688,0.76172 -0.33203,0.3125 -0.78125,0.50781 -0.42969,0.19531 -0.91797,0.19531 -0.48828,0 -0.91797,-0.19531 -0.42968,-0.19531 -0.76172,-0.50781 -0.3125,-0.33203 -0.50781,-0.76172 -0.19531,-0.44922 -0.19531,-0.9375 0,-0.50781 0.19531,-0.9375 0.19531,-0.44922 0.50781,-0.78125 0.33204,-0.33203 0.76172,-0.52735 0.42969,-0.19531 0.91797,-0.19531 0.48828,0 0.91797,0.19531 0.44922,0.19532 0.78125,0.52735 0.35156,0.33203 0.54688,0.78125 0.19531,0.42969 0.19531,0.9375 z" />
    <path
       inkscape:connector-curvature="0"
       id="path3842"
       style="font-style:normal;font-variant:normal;font-weight:normal;font-stretch:normal;font-size:medium;line-height:1.25;font-family:Carlito;-inkscape-font-specification:Carlito;letter-spacing:0px;word-spacing:0px;fill:#000000;fill-opacity:1;stroke:none"
       d="m 803.75195,568.80786 q -2.20703,0 -3.39843,-1.26953 -1.19141,-1.26953 -1.19141,-3.63281 v -11.64063 h -2.1875 q -0.29297,0 -0.50781,-0.19531 -0.19532,-0.19531 -0.19532,-0.56641 v -1.36718 l 3.00782,-0.39063 0.80078,-5.8789 q 0.0391,-0.29297 0.23437,-0.46875 0.21485,-0.17579 0.52735,-0.17579 h 1.75781 v 6.54297 h 5.25391 v 2.5 h -5.25391 v 11.40625 q 0,1.17188 0.52734,1.75782 0.54688,0.58593 1.40625,0.58593 0.50782,0 0.85938,-0.13672 0.37109,-0.13671 0.625,-0.3125 0.2539,-0.17578 0.42969,-0.3125 0.19531,-0.13671 0.35156,-0.13671 0.17578,0 0.27344,0.0781 0.11718,0.0781 0.21484,0.25391 l 1.01562,1.64062 q -0.8789,0.82031 -2.07031,1.26953 -1.1914,0.44922 -2.48047,0.44922 z" />
    <path
       inkscape:connector-curvature="0"
       id="path3844"
       style="font-style:normal;font-variant:normal;font-weight:normal;font-stretch:normal;font-size:medium;line-height:1.25;font-family:Carlito;-inkscape-font-specification:Carlito;letter-spacing:0px;word-spacing:0px;fill:#000000;fill-opacity:1;stroke:none"
       d="m 819.10352,549.12036 q 1.71875,0 3.18359,0.56641 1.46484,0.5664 2.53906,1.66015 1.07422,1.09375 1.67969,2.67579 0.60547,1.58203 0.60547,3.63281 0,0.80078 -0.17578,1.07422 -0.17578,0.2539 -0.64453,0.2539 h -12.77344 q 0.0391,1.79688 0.48828,3.14453 0.44922,1.32813 1.23047,2.20704 0.80078,0.8789 1.89453,1.32812 1.09375,0.42969 2.44141,0.42969 1.25,0 2.16796,-0.27344 0.91797,-0.29297 1.5625,-0.64453 0.66407,-0.35156 1.11329,-0.625 0.44921,-0.29297 0.78125,-0.29297 0.21484,0 0.37109,0.0977 0.15625,0.0781 0.27344,0.23437 l 0.97656,1.25 q -0.64453,0.76172 -1.52344,1.32813 -0.85937,0.54687 -1.85547,0.91797 -0.99609,0.35156 -2.07031,0.52734 -1.05469,0.17578 -2.08984,0.17578 -1.99219,0 -3.67188,-0.66406 -1.67969,-0.66406 -2.91015,-1.95313 -1.21094,-1.30859 -1.89454,-3.20312 -0.68359,-1.91406 -0.68359,-4.39453 0,-1.99219 0.60547,-3.71094 0.625,-1.73828 1.77734,-3.00781 1.17188,-1.28907 2.83203,-2.01172 1.67969,-0.72266 3.76954,-0.72266 z m 0.0586,2.5 q -2.40234,0 -3.80859,1.40625 -1.38672,1.40625 -1.73829,3.84766 h 10.41016 q 0,-1.15235 -0.33203,-2.10938 -0.33203,-0.97656 -0.95703,-1.66015 -0.625,-0.70313 -1.54297,-1.09375 -0.89844,-0.39063 -2.03125,-0.39063 z" />
    <path
       inkscape:connector-curvature="0"
       id="path3846"
       style="font-style:normal;font-variant:normal;font-weight:normal;font-stretch:normal;font-size:medium;line-height:1.25;font-family:Carlito;-inkscape-font-specification:Carlito;letter-spacing:0px;word-spacing:0px;fill:#000000;fill-opacity:1;stroke:none"
       d="m 830.04102,555.76099 h 9.33593 v 2.91015 h -9.33593 z" />
    <path
       inkscape:connector-curvature="0"
       id="path3848"
       style="font-style:normal;font-variant:normal;font-weight:normal;font-stretch:normal;font-size:medium;line-height:1.25;font-family:Carlito;-inkscape-font-specification:Carlito;letter-spacing:0px;word-spacing:0px;fill:#000000;fill-opacity:1;stroke:none"
       d="m 851.29102,549.12036 q 1.71875,0 3.18359,0.56641 1.46484,0.5664 2.53906,1.66015 1.07422,1.09375 1.67969,2.67579 0.60547,1.58203 0.60547,3.63281 0,0.80078 -0.17578,1.07422 -0.17578,0.2539 -0.64453,0.2539 h -12.77344 q 0.0391,1.79688 0.48828,3.14453 0.44922,1.32813 1.23047,2.20704 0.80078,0.8789 1.89453,1.32812 1.09375,0.42969 2.44141,0.42969 1.25,0 2.16796,-0.27344 0.91797,-0.29297 1.5625,-0.64453 0.66407,-0.35156 1.11329,-0.625 0.44921,-0.29297 0.78125,-0.29297 0.21484,0 0.37109,0.0977 0.15625,0.0781 0.27344,0.23437 l 0.97656,1.25 q -0.64453,0.76172 -1.52344,1.32813 -0.85937,0.54687 -1.85547,0.91797 -0.99609,0.35156 -2.07031,0.52734 -1.05469,0.17578 -2.08984,0.17578 -1.99219,0 -3.67188,-0.66406 -1.67969,-0.66406 -2.91015,-1.95313 -1.21094,-1.30859 -1.89454,-3.20312 -0.68359,-1.91406 -0.68359,-4.39453 0,-1.99219 0.60547,-3.71094 0.625,-1.73828 1.77734,-3.00781 1.17188,-1.28907 2.83203,-2.01172 1.67969,-0.72266 3.76954,-0.72266 z m 0.0586,2.5 q -2.40234,0 -3.80859,1.40625 -1.38672,1.40625 -1.73829,3.84766 h 10.41016 q 0,-1.15235 -0.33203,-2.10938 -0.33203,-0.97656 -0.95703,-1.66015 -0.625,-0.70313 -1.54297,-1.09375 -0.89844,-0.39063 -2.03125,-0.39063 z" />
    <path
       inkscape:connector-curvature="0"
       id="path3850"
       style="font-style:normal;font-variant:normal;font-weight:normal;font-stretch:normal;font-size:medium;line-height:1.25;font-family:Carlito;-inkscape-font-specification:Carlito;letter-spacing:0px;word-spacing:0px;fill:#000000;fill-opacity:1;stroke:none"
       d="m 867.07227,540.74146 v 27.77343 h -3.4375 v -27.77343 z" />
    <path
       inkscape:connector-curvature="0"
       id="path3852"
       style="font-style:normal;font-variant:normal;font-weight:normal;font-stretch:normal;font-size:medium;line-height:1.25;font-family:Carlito;-inkscape-font-specification:Carlito;letter-spacing:0px;word-spacing:0px;fill:#000000;fill-opacity:1;stroke:none"
       d="m 880.43164,549.12036 q 1.71875,0 3.18359,0.56641 1.46485,0.5664 2.53907,1.66015 1.07422,1.09375 1.67968,2.67579 0.60547,1.58203 0.60547,3.63281 0,0.80078 -0.17578,1.07422 -0.17578,0.2539 -0.64453,0.2539 H 874.8457 q 0.0391,1.79688 0.48828,3.14453 0.44922,1.32813 1.23047,2.20704 0.80078,0.8789 1.89453,1.32812 1.09375,0.42969 2.44141,0.42969 1.25,0 2.16797,-0.27344 0.91797,-0.29297 1.5625,-0.64453 0.66406,-0.35156 1.11328,-0.625 0.44922,-0.29297 0.78125,-0.29297 0.21484,0 0.37109,0.0977 0.15625,0.0781 0.27344,0.23437 l 0.97656,1.25 q -0.64453,0.76172 -1.52343,1.32813 -0.85938,0.54687 -1.85547,0.91797 -0.9961,0.35156 -2.07031,0.52734 -1.05469,0.17578 -2.08985,0.17578 -1.99219,0 -3.67187,-0.66406 -1.67969,-0.66406 -2.91016,-1.95313 -1.21094,-1.30859 -1.89453,-3.20312 -0.68359,-1.91406 -0.68359,-4.39453 0,-1.99219 0.60546,-3.71094 0.625,-1.73828 1.77735,-3.00781 1.17187,-1.28907 2.83203,-2.01172 1.67969,-0.72266 3.76953,-0.72266 z m 0.0586,2.5 q -2.40234,0 -3.80859,1.40625 -1.38672,1.40625 -1.73828,3.84766 h 10.41016 q 0,-1.15235 -0.33204,-2.10938 -0.33203,-0.97656 -0.95703,-1.66015 -0.625,-0.70313 -1.54297,-1.09375 -0.89843,-0.39063 -2.03125,-0.39063 z" />
    <path
       inkscape:connector-curvature="0"
       id="path3854"
       style="font-style:normal;font-variant:normal;font-weight:normal;font-stretch:normal;font-size:medium;line-height:1.25;font-family:Carlito;-inkscape-font-specification:Carlito;letter-spacing:0px;word-spacing:0px;fill:#000000;fill-opacity:1;stroke:none"
       d="m 892.77539,568.51489 v -19.10156 h 2.03125 q 0.39063,0 0.60547,0.17578 0.23437,0.15625 0.27344,0.52735 l 0.29297,1.95312 q 0.54687,-0.64453 1.13281,-1.17187 0.60547,-0.54688 1.28906,-0.9375 0.68359,-0.41016 1.46484,-0.625 0.78125,-0.21485 1.66016,-0.21485 1.97266,0 3.20313,1.07422 1.25,1.07422 1.77734,2.89063 0.41016,-1.05469 1.07422,-1.79688 0.68359,-0.74219 1.5039,-1.23047 0.82032,-0.48828 1.75782,-0.70312 0.9375,-0.23438 1.91406,-0.23438 3.125,0 4.82422,1.875 1.71875,1.875 1.71875,5.35156 v 12.16797 h -3.4375 v -12.16797 q 0,-2.22656 -1.01563,-3.35937 -1.01562,-1.15234 -2.91015,-1.15234 -0.85938,0 -1.6211,0.29296 -0.76172,0.27344 -1.34765,0.85938 -0.56641,0.56641 -0.91797,1.40625 -0.33203,0.83984 -0.33203,1.95312 v 12.16797 h -3.4375 v -12.16797 q 0,-2.28515 -0.95703,-3.39843 -0.9375,-1.11328 -2.77344,-1.11328 -1.25,0 -2.34375,0.66406 -1.09375,0.64453 -1.99219,1.79687 v 14.21875 z" />
    <path
       inkscape:connector-curvature="0"
       id="path3856"
       style="font-style:normal;font-variant:normal;font-weight:normal;font-stretch:normal;font-size:medium;line-height:1.25;font-family:Carlito;-inkscape-font-specification:Carlito;letter-spacing:0px;word-spacing:0px;fill:#000000;fill-opacity:1;stroke:none"
       d="m 932.30664,549.12036 q 1.71875,0 3.18359,0.56641 1.46485,0.5664 2.53907,1.66015 1.07422,1.09375 1.67968,2.67579 0.60547,1.58203 0.60547,3.63281 0,0.80078 -0.17578,1.07422 -0.17578,0.2539 -0.64453,0.2539 H 926.7207 q 0.0391,1.79688 0.48828,3.14453 0.44922,1.32813 1.23047,2.20704 0.80078,0.8789 1.89453,1.32812 1.09375,0.42969 2.44141,0.42969 1.25,0 2.16797,-0.27344 0.91797,-0.29297 1.5625,-0.64453 0.66406,-0.35156 1.11328,-0.625 0.44922,-0.29297 0.78125,-0.29297 0.21484,0 0.37109,0.0977 0.15625,0.0781 0.27344,0.23437 l 0.97656,1.25 q -0.64453,0.76172 -1.52343,1.32813 -0.85938,0.54687 -1.85547,0.91797 -0.9961,0.35156 -2.07031,0.52734 -1.05469,0.17578 -2.08985,0.17578 -1.99219,0 -3.67187,-0.66406 -1.67969,-0.66406 -2.91016,-1.95313 -1.21094,-1.30859 -1.89453,-3.20312 -0.68359,-1.91406 -0.68359,-4.39453 0,-1.99219 0.60546,-3.71094 0.625,-1.73828 1.77735,-3.00781 1.17187,-1.28907 2.83203,-2.01172 1.67969,-0.72266 3.76953,-0.72266 z m 0.0586,2.5 q -2.40234,0 -3.80859,1.40625 -1.38672,1.40625 -1.73828,3.84766 h 10.41016 q 0,-1.15235 -0.33204,-2.10938 -0.33203,-0.97656 -0.95703,-1.66015 -0.625,-0.70313 -1.54297,-1.09375 -0.89843,-0.39063 -2.03125,-0.39063 z" />
    <path
       inkscape:connector-curvature="0"
       id="path3858"
       style="font-style:normal;font-variant:normal;font-weight:normal;font-stretch:normal;font-size:medium;line-height:1.25;font-family:Carlito;-inkscape-font-specification:Carlito;letter-spacing:0px;word-spacing:0px;fill:#000000;fill-opacity:1;stroke:none"
       d="m 944.51367,568.51489 v -19.10156 h 2.05078 q 0.3711,0 0.60547,0.17578 0.23438,0.15625 0.27344,0.52735 l 0.29297,2.03125 q 1.23047,-1.36719 2.7539,-2.1875 1.52344,-0.83985 3.51563,-0.83985 1.5625,0 2.73437,0.52735 1.19141,0.50781 1.99219,1.46484 0.80078,0.9375 1.21094,2.28516 0.41016,1.32812 0.41016,2.94921 v 12.16797 h -3.4375 v -12.16797 q 0,-2.1289 -0.97657,-3.32031 -0.95703,-1.1914 -2.92968,-1.1914 -1.46485,0 -2.73438,0.70312 -1.26953,0.68359 -2.32422,1.91406 v 14.0625 z" />
    <path
       inkscape:connector-curvature="0"
       id="path3860"
       style="font-style:normal;font-variant:normal;font-weight:normal;font-stretch:normal;font-size:medium;line-height:1.25;font-family:Carlito;-inkscape-font-specification:Carlito;letter-spacing:0px;word-spacing:0px;fill:#000000;fill-opacity:1;stroke:none"
       d="m 970.54883,568.80786 q -2.20703,0 -3.39844,-1.26953 -1.19141,-1.26953 -1.19141,-3.63281 v -11.64063 h -2.1875 q -0.29296,0 -0.50781,-0.19531 -0.19531,-0.19531 -0.19531,-0.56641 v -1.36718 l 3.00781,-0.39063 0.80078,-5.8789 q 0.0391,-0.29297 0.23438,-0.46875 0.21484,-0.17579 0.52734,-0.17579 h 1.75781 v 6.54297 h 5.25391 v 2.5 h -5.25391 v 11.40625 q 0,1.17188 0.52735,1.75782 0.54687,0.58593 1.40625,0.58593 0.50781,0 0.85937,-0.13672 0.3711,-0.13671 0.625,-0.3125 0.25391,-0.17578 0.42969,-0.3125 0.19531,-0.13671 0.35156,-0.13671 0.17578,0 0.27344,0.0781 0.11719,0.0781 0.21484,0.25391 l 1.01563,1.64062 q -0.87891,0.82031 -2.07031,1.26953 -1.19141,0.44922 -2.48047,0.44922 z" />
    <path
       inkscape:connector-curvature="0"
       id="path3862"
       style="font-style:normal;font-variant:normal;font-weight:normal;font-stretch:normal;font-size:medium;line-height:1.25;font-family:Carlito;-inkscape-font-specification:Carlito;letter-spacing:0px;word-spacing:0px;fill:#000000;fill-opacity:1;stroke:none"
       d="m 998.16602,552.57739 q -0.23438,0.42969 -0.70313,0.42969 -0.29297,0 -0.64453,-0.21484 -0.33203,-0.21485 -0.82031,-0.44922 -0.46875,-0.25391 -1.13282,-0.46875 -0.64453,-0.21485 -1.54296,-0.21485 -0.76172,0 -1.36719,0.21485 -0.60547,0.21484 -1.03516,0.58594 -0.42969,0.37109 -0.66406,0.8789 -0.23438,0.48828 -0.23438,1.05469 0,0.74219 0.39063,1.23047 0.39062,0.48828 1.03516,0.83984 0.64453,0.35156 1.46484,0.64453 0.83984,0.27344 1.69922,0.56641 0.85937,0.29297 1.67969,0.68359 0.83984,0.39063 1.48437,0.95703 0.64453,0.56641 1.03516,1.38672 0.39062,0.80078 0.39062,1.95313 0,1.32812 -0.44922,2.46094 -0.44922,1.11328 -1.32812,1.93359 -0.85938,0.82031 -2.14844,1.28906 -1.26953,0.46875 -2.92969,0.46875 -1.89453,0 -3.45703,-0.64453 -1.54297,-0.64453 -2.61719,-1.67969 l 0.80079,-1.28906 q 0.15625,-0.25391 0.37109,-0.39062 0.21484,-0.13672 0.54687,-0.13672 0.35157,0 0.70313,0.27343 0.35156,0.25391 0.83984,0.58594 0.50782,0.3125 1.21094,0.58594 0.70313,0.25391 1.75781,0.25391 0.89844,0 1.54297,-0.25391 0.66406,-0.25391 1.09375,-0.66406 0.42969,-0.42969 0.64453,-0.9961 0.21485,-0.5664 0.21485,-1.1914 0,-0.78125 -0.41016,-1.28907 -0.39062,-0.52734 -1.03516,-0.8789 -0.64453,-0.3711 -1.48437,-0.64453 -0.82031,-0.27344 -1.69922,-0.56641 -0.85937,-0.3125 -1.69922,-0.68359 -0.82031,-0.39063 -1.46484,-0.97657 -0.64453,-0.60546 -1.05469,-1.46484 -0.39062,-0.85937 -0.39062,-2.08984 0,-1.11328 0.42968,-2.10938 0.42969,-1.01562 1.25,-1.77734 0.82032,-0.76172 2.03125,-1.21094 1.21094,-0.44922 2.77344,-0.44922 1.77734,0 3.22266,0.58594 1.44531,0.58594 2.46093,1.64062 z" />
    <path
       inkscape:connector-curvature="0"
       id="path3864"
       style="font-style:normal;font-variant:normal;font-weight:normal;font-stretch:normal;font-size:medium;line-height:1.25;font-family:Carlito;-inkscape-font-specification:Carlito;letter-spacing:0px;word-spacing:0px;fill:#000000;fill-opacity:1;stroke:none"
       d="m 1011.0957,549.12036 q 2.0898,0 3.7695,0.70313 1.6797,0.68359 2.8516,1.97265 1.1719,1.26953 1.7969,3.08594 0.6445,1.81641 0.6445,4.0625 0,2.26563 -0.6445,4.08203 -0.625,1.81641 -1.7969,3.10547 -1.1719,1.26953 -2.8516,1.97266 -1.6797,0.68359 -3.7695,0.68359 -2.0898,0 -3.7891,-0.68359 -1.6796,-0.70313 -2.8711,-1.97266 -1.1718,-1.28906 -1.8164,-3.10547 -0.625,-1.8164 -0.625,-4.08203 0,-2.24609 0.625,-4.0625 0.6446,-1.81641 1.8164,-3.08594 1.1915,-1.28906 2.8711,-1.97265 1.6993,-0.70313 3.7891,-0.70313 z m 0,16.99219 q 1.3867,0 2.4219,-0.46875 1.0351,-0.48828 1.7187,-1.40625 0.7032,-0.91797 1.0352,-2.24609 0.3515,-1.32813 0.3515,-3.02735 0,-1.69922 -0.3515,-3.02734 -0.332,-1.32813 -1.0352,-2.2461 -0.6836,-0.91796 -1.7187,-1.40625 -1.0352,-0.48828 -2.4219,-0.48828 -1.4062,0 -2.4609,0.48828 -1.0352,0.48829 -1.7383,1.40625 -0.6836,0.91797 -1.0352,2.2461 -0.332,1.32812 -0.332,3.02734 0,1.69922 0.332,3.02735 0.3516,1.32812 1.0352,2.24609 0.7031,0.91797 1.7383,1.40625 1.0547,0.46875 2.4609,0.46875 z" />
    <path
       inkscape:connector-curvature="0"
       id="path3866"
       style="font-style:normal;font-variant:normal;font-weight:normal;font-stretch:normal;font-size:medium;line-height:1.25;font-family:Carlito;-inkscape-font-specification:Carlito;letter-spacing:0px;word-spacing:0px;fill:#000000;fill-opacity:1;stroke:none"
       d="m 1027.9316,540.74146 v 27.77343 h -3.4375 v -27.77343 z" />
    <path
       inkscape:connector-curvature="0"
       id="path3868"
       style="font-style:normal;font-variant:normal;font-weight:normal;font-stretch:normal;font-size:medium;line-height:1.25;font-family:Carlito;-inkscape-font-specification:Carlito;letter-spacing:0px;word-spacing:0px;fill:#000000;fill-opacity:1;stroke:none"
       d="m 1041.4277,568.51489 h -3.1054 l -7.1094,-19.10156 h 2.832 q 0.3906,0 0.6641,0.21484 0.2734,0.21485 0.3711,0.48829 l 4.082,12.22656 q 0.2539,0.68359 0.4297,1.32812 0.1758,0.64453 0.332,1.3086 0.1367,-0.64453 0.3125,-1.28907 0.1953,-0.66406 0.4688,-1.34765 l 4.1406,-12.22656 q 0.1172,-0.29297 0.3711,-0.48829 0.2734,-0.21484 0.6055,-0.21484 h 2.7148 z" />
    <path
       inkscape:connector-curvature="0"
       id="path3870"
       style="font-style:normal;font-variant:normal;font-weight:normal;font-stretch:normal;font-size:medium;line-height:1.25;font-family:Carlito;-inkscape-font-specification:Carlito;letter-spacing:0px;word-spacing:0px;fill:#000000;fill-opacity:1;stroke:none"
       d="m 1058.9473,549.12036 q 1.7187,0 3.1836,0.56641 1.4648,0.5664 2.539,1.66015 1.0742,1.09375 1.6797,2.67579 0.6055,1.58203 0.6055,3.63281 0,0.80078 -0.1758,1.07422 -0.1758,0.2539 -0.6445,0.2539 h -12.7735 q 0.039,1.79688 0.4883,3.14453 0.4492,1.32813 1.2305,2.20704 0.8008,0.8789 1.8945,1.32812 1.0938,0.42969 2.4414,0.42969 1.25,0 2.168,-0.27344 0.918,-0.29297 1.5625,-0.64453 0.664,-0.35156 1.1133,-0.625 0.4492,-0.29297 0.7812,-0.29297 0.2149,0 0.3711,0.0977 0.1563,0.0781 0.2734,0.23437 l 0.9766,1.25 q -0.6445,0.76172 -1.5234,1.32813 -0.8594,0.54687 -1.8555,0.91797 -0.9961,0.35156 -2.0703,0.52734 -1.0547,0.17578 -2.0899,0.17578 -1.9921,0 -3.6718,-0.66406 -1.6797,-0.66406 -2.9102,-1.95313 -1.2109,-1.30859 -1.8945,-3.20312 -0.6836,-1.91406 -0.6836,-4.39453 0,-1.99219 0.6055,-3.71094 0.625,-1.73828 1.7773,-3.00781 1.1719,-1.28907 2.832,-2.01172 1.6797,-0.72266 3.7696,-0.72266 z m 0.059,2.5 q -2.4024,0 -3.8086,1.40625 -1.3868,1.40625 -1.7383,3.84766 h 10.4101 q 0,-1.15235 -0.332,-2.10938 -0.332,-0.97656 -0.957,-1.66015 -0.625,-0.70313 -1.543,-1.09375 -0.8984,-0.39063 -2.0312,-0.39063 z" />
    <path
       inkscape:connector-curvature="0"
       id="path3872"
       style="font-style:normal;font-variant:normal;font-weight:normal;font-stretch:normal;font-size:medium;line-height:1.25;font-family:Carlito;-inkscape-font-specification:Carlito;letter-spacing:0px;word-spacing:0px;fill:#000000;fill-opacity:1;stroke:none"
       d="m 1070.9785,568.51489 v -19.10156 h 1.9727 q 0.5468,0 0.7617,0.21484 0.2344,0.21485 0.2734,0.72266 l 0.2344,2.8125 q 0.8789,-1.89453 2.168,-2.98828 1.289,-1.09375 3.1054,-1.09375 0.6055,0 1.1329,0.13672 0.5273,0.11719 0.957,0.41015 l -0.2735,2.53907 q -0.059,0.48828 -0.5468,0.48828 -0.2735,0 -0.7813,-0.0977 -0.4883,-0.11719 -1.0937,-0.11719 -0.8789,0 -1.5625,0.27344 -0.6641,0.25391 -1.211,0.78125 -0.5273,0.50781 -0.9375,1.25 -0.4101,0.74219 -0.7617,1.69922 v 12.07031 z" />
  </g>
</svg>
