<?xml version="1.0" encoding="UTF-8" standalone="no"?>
<!-- Created with Inkscape (http://www.inkscape.org/) -->

<svg
   xmlns:dc="http://purl.org/dc/elements/1.1/"
   xmlns:cc="http://creativecommons.org/ns#"
   xmlns:rdf="http://www.w3.org/1999/02/22-rdf-syntax-ns#"
   xmlns:svg="http://www.w3.org/2000/svg"
   xmlns="http://www.w3.org/2000/svg"
   xmlns:sodipodi="http://sodipodi.sourceforge.net/DTD/sodipodi-0.dtd"
   xmlns:inkscape="http://www.inkscape.org/namespaces/inkscape"
   width="8.06427cm"
   height="5.7367182cm"
   id="svg3177"
   version="1.1"
   inkscape:version="0.92.4 (5da689c313, 2019-01-14)"
   sodipodi:docname="fino-logo.svg">
  <defs
     id="defs3179" />
  <sodipodi:namedview
     id="base"
     pagecolor="#ffffff"
     bordercolor="#666666"
     borderopacity="1.0"
     inkscape:pageopacity="0.0"
     inkscape:pageshadow="2"
     inkscape:zoom="2"
     inkscape:cx="243.83983"
     inkscape:cy="50.231555"
     inkscape:document-units="px"
     inkscape:current-layer="layer1"
     showgrid="false"
     fit-margin-top="0"
     fit-margin-left="0"
     fit-margin-right="0"
     fit-margin-bottom="0"
     inkscape:window-width="1920"
     inkscape:window-height="1015"
     inkscape:window-x="0"
     inkscape:window-y="0"
     inkscape:window-maximized="1"
     units="cm" />
  <metadata
     id="metadata3182">
    <rdf:RDF>
      <cc:Work
         rdf:about="">
        <dc:format>image/svg+xml</dc:format>
        <dc:type
           rdf:resource="http://purl.org/dc/dcmitype/StillImage" />
        <dc:title></dc:title>
      </cc:Work>
    </rdf:RDF>
  </metadata>
  <g
     inkscape:label="Layer 1"
     inkscape:groupmode="layer"
     id="layer1"
     transform="translate(-474.7927,-255.85584)">
    <path
       class="fil0"
       d="m 576.56833,382.59628 c 0.37462,0 0.37462,0 0.74923,0 h 0.74922 c -1.12383,-0.74923 -1.12383,0 -1.12383,-5.24457 1.49844,1.12384 2.24766,1.12384 2.24766,3.37151 0,3.3715 -0.74922,2.99689 -2.62228,1.87306 z"
       id="path78"
       inkscape:connector-curvature="0"
       style="fill:#000000;fill-opacity:1;fill-rule:evenodd;stroke-width:0.50230002" />
    <g
       style="font-style:normal;font-variant:normal;font-weight:normal;font-stretch:normal;font-size:48px;line-height:125%;font-family:Carlito;-inkscape-font-specification:Carlito;letter-spacing:0px;word-spacing:0px;fill:#000000;fill-opacity:1;stroke:none"
       id="text3223"
       transform="matrix(4.255705,0,0,4.255705,-2005.3277,-2424.1539)">
      <path
         d="m 586.19733,663.40601 v -19.47657 l -2.32032,-0.30468 c -0.32812,-0.0312 -0.59375,-0.1328 -0.79687,-0.30469 -0.20313,-0.17186 -0.30469,-0.41404 -0.30469,-0.72656 v -1.6875 h 3.42188 v -2.17969 c -10e-6,-1.31248 0.17187,-2.47654 0.51562,-3.49219 0.35937,-1.03122 0.86718,-1.89059 1.52344,-2.57812 0.65624,-0.7031 1.45312,-1.23435 2.39062,-1.59375 0.93749,-0.37497 1.99218,-0.56247 3.16407,-0.5625 0.48436,3e-5 0.95311,0.0391 1.40625,0.11718 0.46873,0.0782 0.91405,0.18754 1.33593,0.32813 l -0.11718,2.0625 c -0.0313,0.3594 -0.21877,0.56253 -0.5625,0.60937 -0.34377,0.0313 -0.8047,0.0469 -1.38282,0.0469 -0.65626,3e-5 -1.25001,0.086 -1.78125,0.25781 -0.51563,0.17191 -0.96094,0.46097 -1.33593,0.86719 -0.37501,0.40628 -0.66407,0.94534 -0.86719,1.61719 -0.20313,0.65627 -0.3047,1.46877 -0.30469,2.4375 v 2.0625 h 10.78866 v 3 h -10.64803 v 19.5 h -4.125"
         id="path4000"
         inkscape:connector-curvature="0"
         sodipodi:nodetypes="ccccsccsccccccccccccccccccc" />
    </g>
    <g
       aria-label="o"
       style="font-style:normal;font-variant:normal;font-weight:normal;font-stretch:normal;line-height:0%;font-family:Carlito;-inkscape-font-specification:Carlito;letter-spacing:0px;word-spacing:0px;fill:#000000;fill-opacity:1;stroke:none"
       id="text4002"
       transform="matrix(0.50230003,0,0,0.50230003,236.30432,127.33944)">
      <path
         d="m 981.89067,348.13686 q 21.24733,0 38.32453,7.14862 17.0773,6.95005 28.9916,20.05585 11.9144,12.90722 18.2687,31.37449 6.5529,18.46726 6.5529,41.30312 0,23.03444 -6.5529,41.5017 -6.3543,18.46727 -18.2687,31.57307 -11.9143,12.90722 -28.9916,20.05584 -17.0772,6.95005 -38.32453,6.95005 -21.24728,0 -38.5231,-6.95005 -17.07726,-7.14862 -29.1902,-20.05584 -11.91436,-13.1058 -18.46726,-31.57307 -6.35433,-18.46726 -6.35433,-41.5017 0,-22.83586 6.35433,-41.30312 6.5529,-18.46727 18.46726,-31.37449 12.11294,-13.1058 29.1902,-20.05585 17.27582,-7.14862 38.5231,-7.14862 z m 0,172.75827 q 14.09867,0 24.62303,-4.76574 10.5243,-4.96432 17.4744,-14.29724 7.1486,-9.33291 10.5243,-22.83586 3.5744,-13.50295 3.5744,-30.77877 0,-17.27583 -3.5744,-30.77877 -3.3757,-13.50295 -10.5243,-22.83587 -6.9501,-9.33292 -17.4744,-14.29723 -10.52436,-4.96432 -24.62303,-4.96432 -14.29723,0 -25.02016,4.96432 -10.52435,4.96431 -17.67297,14.29723 -6.95005,9.33292 -10.52436,22.83587 -3.37573,13.50294 -3.37573,30.77877 0,17.27582 3.37573,30.77877 3.57431,13.50295 10.52436,22.83586 7.14862,9.33292 17.67297,14.29724 10.72293,4.76574 25.02016,4.76574 z"
         style="font-size:406.67694092px;line-height:1.25"
         id="path853"
         inkscape:connector-curvature="0" />
    </g>
    <g
       aria-label="n"
       style="font-style:normal;font-variant:normal;font-weight:normal;font-stretch:normal;line-height:0%;font-family:Carlito;-inkscape-font-specification:Carlito;letter-spacing:0px;word-spacing:0px;fill:#000000;fill-opacity:1;stroke:none"
       id="text3227"
       transform="matrix(0.50230003,0,0,0.50230003,236.30432,127.33944)">
      <path
         d="M 706.03639,542.0849 V 347.88077 h 20.85013 q 3.77289,0 6.15576,1.78716 2.38287,1.58858 2.78002,5.36146 l 2.97859,20.65157 q 12.51008,-13.90009 27.99875,-22.24015 15.48867,-8.53863 35.74309,-8.53863 15.88582,0 27.80018,5.36147 12.11294,5.16289 20.25442,14.89295 8.14148,9.53149 12.31151,23.23301 4.17003,13.50295 4.17003,29.98448 V 542.0849 h -34.9488 V 418.37409 q 0,-21.64442 -9.92864,-33.75736 -9.73006,-12.11294 -29.78591,-12.11294 -14.89295,0 -27.80018,7.14862 -12.90723,6.95005 -23.63015,19.46013 V 542.0849 Z"
         style="font-size:406.67694092px;line-height:1.25"
         id="path856"
         inkscape:connector-curvature="0" />
    </g>
    <g
       id="g3727"
       transform="matrix(0.50230003,0,0,0.50230003,236.30432,127.33944)">
      <path
         sodipodi:nodetypes="ccccccccccccscccccccccccc"
         style="fill:#000000;fill-opacity:1;fill-rule:evenodd"
         inkscape:connector-curvature="0"
         id="path22"
         d="m 688.59877,408.23979 c 1.24038,-0.22429 0.99136,-0.0443 2.54123,1.8728 -4.47476,0.7458 -7.01599,-4.85597 -12.98233,-10.07652 l -19.39062,-20.13641 c -3.72896,-3.72896 -14.17006,-17.15323 -19.39061,-20.8822 -2.98317,35.79806 -3.72897,39.52702 -2.23738,74.57928 0,5.96635 -0.74579,5.22055 2.23738,8.94952 l 32.06909,46.23915 c 2.23738,3.72897 4.47476,5.22055 3.72896,7.45793 -1.49158,0 -2.98317,-2.98317 -4.47475,-5.22055 l -28.34013,-40.27281 c -1.49159,-1.49159 -4.47476,-5.96634 -5.22055,-6.71214 0,8.94952 2.23738,38.03544 2.23738,52.2055 0,8.20372 0,17.15324 -1.49159,25.35696 -0.74579,12.67848 0,12.67848 -8.20372,18.64482 -35.05226,25.35695 -39.52702,-29.08592 -38.78122,-58.17184 1.49158,-32.06909 8.20372,-65.62977 17.89902,-92.47831 4.47476,-14.17007 9.69531,-26.10275 16.40744,-38.03544 4.47476,-8.94951 17.15324,-26.84854 24.61117,-30.5775 -0.74579,4.47476 -2.98317,8.94951 -4.47476,14.17006 -1.49158,4.47476 -2.98317,8.94952 -3.72896,14.17007 -2.23738,8.20372 -2.23738,6.71213 2.98317,11.18689 5.22055,5.22055 20.8822,23.86537 26.84854,29.08592 2.23738,2.98317 12.67848,14.91585 17.15323,18.64482 z"
         class="fil0" />
      <path
         style="fill:#000000;fill-opacity:1;fill-rule:evenodd"
         inkscape:connector-curvature="0"
         id="path24"
         d="m 681.14085,288.91294 c 3.72896,0.74579 6.71213,2.23738 9.6953,3.72896 4.47476,0.74579 6.71214,0.74579 8.20372,5.22055 -3.72896,5.22055 -11.93268,-0.74579 -18.64482,-2.23738 -1.49158,8.20372 -5.96634,14.91586 -11.18689,18.64482 -4.47476,2.98317 -17.15323,5.96635 -23.86537,3.72897 -29.83171,-7.45793 -35.79805,-66.37556 9.69531,-61.90081 6.71213,0.7458 14.91585,8.20372 17.89903,11.93269 5.96634,7.45793 5.22055,9.69531 8.20372,20.8822 z"
         class="fil0" />
      <path
         style="fill:#000000;fill-opacity:1;fill-rule:evenodd"
         inkscape:connector-curvature="0"
         id="path52"
         d="m 645.34279,682.69155 c 1.49159,0.74579 2.23738,1.49158 4.47476,2.23738 0.74579,0 2.23738,0 2.98317,0.74579 1.49158,0.74579 0.74579,0 1.49158,1.49158 -2.98317,1.49159 -8.94951,-2.23737 -11.18689,-3.72896 -0.74579,-8.20372 4.47476,-63.39239 5.22055,-76.81666 1.49159,-11.18689 0.7458,-8.20372 -2.98317,-16.40744 -2.98317,-4.47476 -5.22055,-8.94952 -7.45793,-13.42427 -2.23738,-3.72897 -14.91585,-24.61117 -13.42427,-26.84855 2.23738,0.7458 0.74579,0 3.72897,5.22055 l 18.64482,34.30647 c 3.72896,7.45793 5.22055,5.96635 3.72896,15.66165 -0.74579,16.40745 -5.22055,63.39239 -5.22055,77.56246 z"
         class="fil0" />
      <polygon
         style="fill:#000000;fill-opacity:1;fill-rule:evenodd"
         id="polygon68"
         points="2244,-117 2235,-117 2233,-101 2244,-102 "
         class="fil0"
         transform="matrix(-0.72068908,-0.19187023,-0.19187023,0.72068908,2301.2306,842.2308)" />
      <path
         style="fill:#000000;fill-opacity:1;fill-rule:evenodd"
         inkscape:connector-curvature="0"
         id="path82"
         d="m 707.17386,327.54532 c -0.86577,-2.54582 0.86105,-9.03202 1.43667,-11.19408 2.06379,-4.85296 0.19187,-0.72069 2.20886,-2.49902 l 0.33695,1.63324 c -0.38374,1.44139 -1.96549,10.28152 -3.98248,12.05986 z"
         class="fil0" />
      <path
         style="fill:#000000;fill-opacity:1;fill-rule:evenodd"
         inkscape:connector-curvature="0"
         id="path84"
         d="m 715.2933,328.9352 c -1.63324,0.33694 -2.16206,-0.57562 -3.60343,-0.95935 l 2.78446,-4.66109 c 0.33696,1.63325 2.11527,3.65024 0.81897,5.62044 z"
         class="fil0" />
      <path
         style="fill:#000000;fill-opacity:1;fill-rule:evenodd"
         inkscape:connector-curvature="0"
         id="path86"
         d="m 712.12038,323.45984 c 0,0 0.91258,-0.52882 -0.5756,2.16207 -1.48816,2.69088 0.52882,0.91256 -2.01698,1.77833 0,0 -2.54582,0.86576 0.0468,-3.07463 1.48816,-2.69088 1.82511,-1.05764 2.54579,-0.86577 z"
         class="fil0" />
      <path
         sodipodi:nodetypes="sssscscscsccs"
         inkscape:connector-curvature="0"
         id="path2993"
         d="m 613.88428,686.31934 c 0,-0.15923 -3.02046,-1.03576 -6.71214,-1.94794 -3.69167,-0.91218 -6.71213,-1.94294 -6.71213,-2.29055 0,-0.34754 4.06524,-18.65795 9.03379,-40.68972 l 9.03371,-40.05773 -4.96743,-25.04301 c -5.18281,-26.12929 -5.45592,-27.3423 -6.0272,-26.77099 -0.19256,0.19251 1.973,11.93809 4.81216,26.10132 l 5.16223,25.75131 -8.88307,39.44872 c -4.88561,21.69683 -9.05318,40.16363 -9.2611,41.03733 -0.34307,1.44109 0.20695,1.73523 5.92584,3.16962 6.07672,1.52403 8.59534,1.90252 8.59534,1.29164 z"
         style="fill:#000000;fill-opacity:1;fill-rule:evenodd" />
      <path
         sodipodi:nodetypes="cc"
         transform="translate(474.79272,255.85585)"
         inkscape:connector-curvature="0"
         id="path3036"
         d="M 215.125,153.90607 232.49372,82.928814"
         style="fill:#000000;fill-opacity:1;stroke:#000000;stroke-width:2.5;stroke-linecap:butt;stroke-linejoin:miter;stroke-miterlimit:4;stroke-dasharray:none;stroke-opacity:1" />
    </g>
    <path
       inkscape:connector-curvature="0"
       id="path3826"
       style="font-style:normal;font-variant:normal;font-weight:normal;font-stretch:normal;font-size:medium;line-height:1.25;font-family:Carlito;-inkscape-font-specification:Carlito;letter-spacing:0px;word-spacing:0px;fill:#000000;fill-opacity:1;stroke:none;stroke-width:0.50230002"
       d="m 566.13591,412.90449 q -0.25507,0 -0.39242,-0.0785 -0.13735,-0.0785 -0.18641,-0.32374 l -0.21582,-0.89276 q -0.37281,0.34337 -0.7358,0.61806 -0.35317,0.26489 -0.7456,0.45129 -0.39242,0.1864 -0.84371,0.27469 -0.45128,0.0981 -0.99086,0.0981 -0.5592,0 -1.04973,-0.14716 -0.48072,-0.15697 -0.85352,-0.47091 -0.36298,-0.32375 -0.57882,-0.79465 -0.20602,-0.48072 -0.20602,-1.12821 0,-0.56901 0.30413,-1.08897 0.31393,-0.52977 1.01048,-0.94182 0.69655,-0.41204 1.81495,-0.66712 1.11841,-0.26488 2.74696,-0.30412 v -0.73579 q 0,-1.1184 -0.48072,-1.6776 -0.4709,-0.56902 -1.38329,-0.56902 -0.60825,0 -1.0301,0.15697 -0.41205,0.15697 -0.71617,0.34337 -0.30413,0.1864 -0.52977,0.34337 -0.21583,0.15697 -0.44148,0.15697 -0.17659,0 -0.30412,-0.0883 -0.12754,-0.0883 -0.20603,-0.22564 l -0.31393,-0.54939 q 0.79465,-0.76522 1.70703,-1.13802 0.92219,-0.38261 2.0406,-0.38261 0.80446,0 1.43233,0.26488 0.62788,0.25508 1.04974,0.73579 0.42185,0.48072 0.63768,1.14783 0.22564,0.66712 0.22564,1.4814 v 6.13159 z m -3.59066,-1.05954 q 0.43167,0 0.79465,-0.0883 0.36299,-0.0883 0.68674,-0.24527 0.32375,-0.16678 0.60826,-0.40223 0.29431,-0.24527 0.57882,-0.53958 v -1.98173 q -1.14784,0.0491 -1.9523,0.19621 -0.80447,0.13735 -1.31462,0.3728 -0.50033,0.23546 -0.72598,0.5592 -0.22564,0.31394 -0.22564,0.70636 0,0.3728 0.11773,0.6475 0.12753,0.26488 0.33356,0.44147 0.20602,0.16678 0.49052,0.25508 0.28451,0.0785 0.60826,0.0785 z" />
    <path
       inkscape:connector-curvature="0"
       id="path3828"
       style="font-style:normal;font-variant:normal;font-weight:normal;font-stretch:normal;font-size:medium;line-height:1.25;font-family:Carlito;-inkscape-font-specification:Carlito;letter-spacing:0px;word-spacing:0px;fill:#000000;fill-opacity:1;stroke:none;stroke-width:0.50230002"
       d="m 574.34734,412.90449 v -8.15257 l -0.97125,-0.12753 q -0.20602,-0.0196 -0.33355,-0.12754 -0.12754,-0.10791 -0.12754,-0.30413 v -0.70636 h 1.43234 v -0.91237 q 0,-0.82409 0.21583,-1.46178 0.22564,-0.64749 0.63768,-1.07916 0.41205,-0.44147 1.00068,-0.66711 0.58864,-0.23546 1.32443,-0.23546 0.30412,0 0.58863,0.049 0.29431,0.0491 0.5592,0.13735 l -0.0491,0.86332 q -0.0196,0.22565 -0.23546,0.25508 -0.21583,0.0196 -0.57882,0.0196 -0.41204,0 -0.7456,0.10791 -0.32375,0.10792 -0.5592,0.36299 -0.23545,0.25508 -0.36299,0.67693 -0.12754,0.41204 -0.12754,1.02029 v 0.86333 h 2.58018 v 1.25575 h -2.52132 v 8.16238 z" />
    <path
       inkscape:connector-curvature="0"
       id="path3830"
       style="font-style:normal;font-variant:normal;font-weight:normal;font-stretch:normal;font-size:medium;line-height:1.25;font-family:Carlito;-inkscape-font-specification:Carlito;letter-spacing:0px;word-spacing:0px;fill:#000000;fill-opacity:1;stroke:none;stroke-width:0.50230002"
       d="m 580.08651,412.90449 v -9.59472 h 0.99086 q 0.2747,0 0.38261,0.10792 0.11773,0.10792 0.13735,0.36299 l 0.11773,1.41272 q 0.44147,-0.95162 1.08897,-1.50101 0.64749,-0.54939 1.55988,-0.54939 0.30412,0 0.56901,0.0687 0.26488,0.0589 0.48071,0.20602 l -0.13734,1.27537 q -0.0294,0.24527 -0.2747,0.24527 -0.13735,0 -0.39242,-0.0491 -0.24526,-0.0589 -0.54939,-0.0589 -0.44147,0 -0.78484,0.13735 -0.33356,0.12754 -0.60826,0.39242 -0.26488,0.25507 -0.47091,0.62787 -0.20601,0.37281 -0.3826,0.85352 v 6.06292 z" />
    <path
       inkscape:connector-curvature="0"
       id="path3832"
       style="font-style:normal;font-variant:normal;font-weight:normal;font-stretch:normal;font-size:medium;line-height:1.25;font-family:Carlito;-inkscape-font-specification:Carlito;letter-spacing:0px;word-spacing:0px;fill:#000000;fill-opacity:1;stroke:none;stroke-width:0.50230002"
       d="m 590.79963,403.16262 q 0.86332,0 1.59911,0.2845 0.7358,0.28451 1.27538,0.8339 0.53958,0.54939 0.8437,1.34405 0.30413,0.79465 0.30413,1.82476 0,0.40223 -0.0883,0.53958 -0.0883,0.12753 -0.32374,0.12753 h -6.4161 q 0.0196,0.90257 0.24526,1.5795 0.22564,0.66712 0.61807,1.1086 0.40223,0.44147 0.95162,0.66711 0.54939,0.21583 1.22632,0.21583 0.62787,0 1.08897,-0.13735 0.4611,-0.14715 0.78484,-0.32374 0.33356,-0.17659 0.5592,-0.31394 0.22565,-0.14716 0.39243,-0.14716 0.10791,0 0.18639,0.0491 0.0785,0.0392 0.13735,0.11772 l 0.49053,0.62787 q -0.32375,0.38262 -0.76522,0.66712 -0.43167,0.2747 -0.932,0.4611 -0.50034,0.17659 -1.03992,0.26488 -0.52977,0.0883 -1.04973,0.0883 -1.00068,0 -1.84438,-0.33356 -0.84371,-0.33356 -1.46177,-0.98106 -0.60826,-0.6573 -0.95163,-1.60892 -0.34336,-0.96144 -0.34336,-2.20738 0,-1.00067 0.30412,-1.864 0.31394,-0.87314 0.89276,-1.51083 0.58863,-0.6475 1.42253,-1.01048 0.84371,-0.36299 1.89344,-0.36299 z m 0.0294,1.25575 q -1.2067,0 -1.91305,0.70635 -0.69655,0.70636 -0.87314,1.93268 h 5.22902 q 0,-0.57882 -0.16678,-1.05954 -0.16678,-0.49052 -0.48072,-0.83389 -0.31394,-0.35318 -0.77503,-0.54939 -0.45128,-0.19621 -1.0203,-0.19621 z" />
    <path
       inkscape:connector-curvature="0"
       id="path3834"
       style="font-style:normal;font-variant:normal;font-weight:normal;font-stretch:normal;font-size:medium;line-height:1.25;font-family:Carlito;-inkscape-font-specification:Carlito;letter-spacing:0px;word-spacing:0px;fill:#000000;fill-opacity:1;stroke:none;stroke-width:0.50230002"
       d="m 600.80639,403.16262 q 0.86332,0 1.59911,0.2845 0.73579,0.28451 1.27537,0.8339 0.53958,0.54939 0.84371,1.34405 0.30413,0.79465 0.30413,1.82476 0,0.40223 -0.0883,0.53958 -0.0883,0.12753 -0.32375,0.12753 h -6.4161 q 0.0196,0.90257 0.24526,1.5795 0.22565,0.66712 0.61807,1.1086 0.40223,0.44147 0.95162,0.66711 0.54939,0.21583 1.22632,0.21583 0.62787,0 1.08897,-0.13735 0.46109,-0.14715 0.78484,-0.32374 0.33356,-0.17659 0.55921,-0.31394 0.22563,-0.14716 0.39242,-0.14716 0.10791,0 0.1864,0.0491 0.0785,0.0392 0.13734,0.11772 l 0.49053,0.62787 q -0.32375,0.38262 -0.76522,0.66712 -0.43166,0.2747 -0.93201,0.4611 -0.50033,0.17659 -1.03991,0.26488 -0.52977,0.0883 -1.04973,0.0883 -1.00068,0 -1.84438,-0.33356 -0.84371,-0.33356 -1.46177,-0.98106 -0.60826,-0.6573 -0.95163,-1.60892 -0.34337,-0.96144 -0.34337,-2.20738 0,-1.00067 0.30413,-1.864 0.31394,-0.87314 0.89276,-1.51083 0.58863,-0.6475 1.42253,-1.01048 0.8437,-0.36299 1.89344,-0.36299 z m 0.0294,1.25575 q -1.20669,0 -1.91305,0.70635 -0.69655,0.70636 -0.87315,1.93268 h 5.22903 q 0,-0.57882 -0.16678,-1.05954 -0.16678,-0.49052 -0.48072,-0.83389 -0.31394,-0.35318 -0.77503,-0.54939 -0.45129,-0.19621 -1.0203,-0.19621 z" />
    <path
       inkscape:connector-curvature="0"
       id="path3836"
       style="font-style:normal;font-variant:normal;font-weight:normal;font-stretch:normal;font-size:medium;line-height:1.25;font-family:Carlito;-inkscape-font-specification:Carlito;letter-spacing:0px;word-spacing:0px;fill:#000000;fill-opacity:1;stroke:none;stroke-width:0.50230002"
       d="m 611.83344,412.90449 v -8.15257 l -1.0203,-0.12753 c -0.13735,-0.0131 -0.24853,-0.0556 -0.33355,-0.12754 -0.085,-0.0719 -0.12754,-0.17332 -0.12754,-0.30413 v -0.70636 h 1.48139 v -1.24594 c 0,-1.04645 0.23545,-1.83784 0.70636,-2.37415 0.47091,-0.54285 1.13148,-0.81427 1.98173,-0.81427 0.15043,0 0.28451,0.007 0.40223,0.0196 0.12427,0.0131 0.242,0.0393 0.35318,0.0785 v 0.94181 c 0,0.0981 -0.0458,0.16024 -0.13735,0.1864 -0.0916,0.0262 -0.21583,0.0392 -0.3728,0.0392 -0.43166,0 -0.75214,0.15043 -0.96143,0.45129 -0.20275,0.29431 -0.30413,0.78157 -0.30413,1.46177 v 1.25575 h 5.23688 l -0.37404,1.30254 -0.88957,-0.0468 v 0 h -3.9144 v 8.16237 z"
       sodipodi:nodetypes="ccccsccscsccscscscccccccc" />
    <path
       inkscape:connector-curvature="0"
       id="path3838"
       style="font-style:normal;font-variant:normal;font-weight:normal;font-stretch:normal;font-size:medium;line-height:1.25;font-family:Carlito;-inkscape-font-specification:Carlito;letter-spacing:0px;word-spacing:0px;fill:#000000;fill-opacity:1;stroke:none;stroke-width:0.50230002"
       d="m 622.1247,412.90449 v -9.59472 h 1.03011 q 0.1864,0 0.30413,0.0883 0.11773,0.0785 0.13735,0.26489 l 0.14716,1.02029 q 0.61806,-0.68674 1.38328,-1.09878 0.76522,-0.42185 1.7659,-0.42185 0.78484,0 1.37347,0.26488 0.59845,0.25508 1.00068,0.73579 0.40223,0.47091 0.60826,1.14784 0.20602,0.66711 0.20602,1.48139 v 6.11197 h -1.72666 v -6.11197 q 0,-1.06935 -0.49053,-1.6678 -0.48071,-0.59844 -1.47158,-0.59844 -0.73579,0 -1.37347,0.35318 -0.63769,0.34337 -1.16746,0.96143 v 7.0636 z" />
    <g
       id="g3747"
       transform="matrix(0.04857134,0,0,0.04857134,587.80113,386.28725)">
      <path
         class="fil0"
         d="m 688.59877,408.23979 c 1.24038,-0.22429 0.99136,-0.0443 2.54123,1.8728 -4.47476,0.7458 -7.01599,-4.85597 -12.98233,-10.07652 l -19.39062,-20.13641 c -3.72896,-3.72896 -14.17006,-17.15323 -19.39061,-20.8822 -2.98317,35.79806 -3.72897,39.52702 -2.23738,74.57928 0,5.96635 -0.74579,5.22055 2.23738,8.94952 l 32.06909,46.23915 c 2.23738,3.72897 4.47476,5.22055 3.72896,7.45793 -1.49158,0 -2.98317,-2.98317 -4.47475,-5.22055 l -28.34013,-40.27281 c -1.49159,-1.49159 -4.47476,-5.96634 -5.22055,-6.71214 0,8.94952 2.23738,38.03544 2.23738,52.2055 0,8.20372 0,17.15324 -1.49159,25.35696 -0.74579,12.67848 0,12.67848 -8.20372,18.64482 -35.05226,25.35695 -39.52702,-29.08592 -38.78122,-58.17184 1.49158,-32.06909 8.20372,-65.62977 17.89902,-92.47831 4.47476,-14.17007 9.69531,-26.10275 16.40744,-38.03544 4.47476,-8.94951 17.15324,-26.84854 24.61117,-30.5775 -0.74579,4.47476 -2.98317,8.94951 -4.47476,14.17006 -1.49158,4.47476 -2.98317,8.94952 -3.72896,14.17007 -2.23738,8.20372 -2.23738,6.71213 2.98317,11.18689 5.22055,5.22055 20.8822,23.86537 26.84854,29.08592 2.23738,2.98317 12.67848,14.91585 17.15323,18.64482 z"
         id="path3729"
         inkscape:connector-curvature="0"
         style="fill:#000000;fill-opacity:1;fill-rule:evenodd"
         sodipodi:nodetypes="ccccccccccccscccccccccccc" />
      <path
         class="fil0"
         d="m 681.14085,288.91294 c 3.72896,0.74579 6.71213,2.23738 9.6953,3.72896 4.47476,0.74579 6.71214,0.74579 8.20372,5.22055 -3.72896,5.22055 -11.93268,-0.74579 -18.64482,-2.23738 -1.49158,8.20372 -5.96634,14.91586 -11.18689,18.64482 -4.47476,2.98317 -17.15323,5.96635 -23.86537,3.72897 -29.83171,-7.45793 -35.79805,-66.37556 9.69531,-61.90081 6.71213,0.7458 14.91585,8.20372 17.89903,11.93269 5.96634,7.45793 5.22055,9.69531 8.20372,20.8822 z"
         id="path3731"
         inkscape:connector-curvature="0"
         style="fill:#000000;fill-opacity:1;fill-rule:evenodd" />
      <path
         class="fil0"
         d="m 645.34279,682.69155 c 1.49159,0.74579 2.23738,1.49158 4.47476,2.23738 0.74579,0 2.23738,0 2.98317,0.74579 1.49158,0.74579 0.74579,0 1.49158,1.49158 -2.98317,1.49159 -8.94951,-2.23737 -11.18689,-3.72896 -0.74579,-8.20372 4.47476,-63.39239 5.22055,-76.81666 1.49159,-11.18689 0.7458,-8.20372 -2.98317,-16.40744 -2.98317,-4.47476 -5.22055,-8.94952 -7.45793,-13.42427 -2.23738,-3.72897 -14.91585,-24.61117 -13.42427,-26.84855 2.23738,0.7458 0.74579,0 3.72897,5.22055 l 18.64482,34.30647 c 3.72896,7.45793 5.22055,5.96635 3.72896,15.66165 -0.74579,16.40745 -5.22055,63.39239 -5.22055,77.56246 z"
         id="path3733"
         inkscape:connector-curvature="0"
         style="fill:#000000;fill-opacity:1;fill-rule:evenodd" />
      <polygon
         transform="matrix(-0.72068908,-0.19187023,-0.19187023,0.72068908,2301.2306,842.2308)"
         class="fil0"
         points="2235,-117 2233,-101 2244,-102 2244,-117 "
         id="polygon3735"
         style="fill:#000000;fill-opacity:1;fill-rule:evenodd" />
      <path
         class="fil0"
         d="m 707.17386,327.54532 c -0.86577,-2.54582 0.86105,-9.03202 1.43667,-11.19408 2.06379,-4.85296 0.19187,-0.72069 2.20886,-2.49902 l 0.33695,1.63324 c -0.38374,1.44139 -1.96549,10.28152 -3.98248,12.05986 z"
         id="path3737"
         inkscape:connector-curvature="0"
         style="fill:#000000;fill-opacity:1;fill-rule:evenodd" />
      <path
         class="fil0"
         d="m 715.2933,328.9352 c -1.63324,0.33694 -2.16206,-0.57562 -3.60343,-0.95935 l 2.78446,-4.66109 c 0.33696,1.63325 2.11527,3.65024 0.81897,5.62044 z"
         id="path3739"
         inkscape:connector-curvature="0"
         style="fill:#000000;fill-opacity:1;fill-rule:evenodd" />
      <path
         class="fil0"
         d="m 712.12038,323.45984 c 0,0 0.91258,-0.52882 -0.5756,2.16207 -1.48816,2.69088 0.52882,0.91256 -2.01698,1.77833 0,0 -2.54582,0.86576 0.0468,-3.07463 1.48816,-2.69088 1.82511,-1.05764 2.54579,-0.86577 z"
         id="path3741"
         inkscape:connector-curvature="0"
         style="fill:#000000;fill-opacity:1;fill-rule:evenodd" />
      <path
         style="fill:#000000;fill-opacity:1;fill-rule:evenodd"
         d="m 613.88428,686.31934 c 0,-0.15923 -3.02046,-1.03576 -6.71214,-1.94794 -3.69167,-0.91218 -6.71213,-1.94294 -6.71213,-2.29055 0,-0.34754 4.06524,-18.65795 9.03379,-40.68972 l 9.03371,-40.05773 -4.96743,-25.04301 c -5.18281,-26.12929 -5.45592,-27.3423 -6.0272,-26.77099 -0.19256,0.19251 1.973,11.93809 4.81216,26.10132 l 5.16223,25.75131 -8.88307,39.44872 c -4.88561,21.69683 -9.05318,40.16363 -9.2611,41.03733 -0.34307,1.44109 0.20695,1.73523 5.92584,3.16962 6.07672,1.52403 8.59534,1.90252 8.59534,1.29164 z"
         id="path3743"
         inkscape:connector-curvature="0"
         sodipodi:nodetypes="sssscscscsccs" />
      <path
         style="fill:#000000;fill-opacity:1;stroke:#000000;stroke-width:2.5;stroke-linecap:butt;stroke-linejoin:miter;stroke-miterlimit:4;stroke-dasharray:none;stroke-opacity:1"
         d="M 215.125,153.90607 232.49372,82.928814"
         id="path3745"
         inkscape:connector-curvature="0"
         transform="translate(474.79272,255.85585)"
         sodipodi:nodetypes="cc" />
    </g>
    <path
       inkscape:connector-curvature="0"
       id="path3840"
       style="font-style:normal;font-variant:normal;font-weight:normal;font-stretch:normal;font-size:medium;line-height:1.25;font-family:Carlito;-inkscape-font-specification:Carlito;letter-spacing:0px;word-spacing:0px;fill:#000000;fill-opacity:1;stroke:none;stroke-width:0.50230002"
       d="m 632.38654,412.90449 z m 2.08965,-9.59472 v 9.59472 h -1.72666 v -9.59472 z m 0.33355,-3.00202 q 0,0.24526 -0.0981,0.4709 -0.0981,0.21584 -0.2747,0.38262 -0.16678,0.15697 -0.39242,0.25507 -0.21583,0.0981 -0.4611,0.0981 -0.24526,0 -0.46109,-0.0981 -0.21583,-0.0981 -0.38262,-0.25507 -0.15696,-0.16678 -0.25507,-0.38262 -0.0981,-0.22564 -0.0981,-0.4709 0,-0.25507 0.0981,-0.47091 0.0981,-0.22564 0.25507,-0.39242 0.16679,-0.16678 0.38262,-0.26489 0.21583,-0.0981 0.46109,-0.0981 0.24527,0 0.4611,0.0981 0.22564,0.0981 0.39242,0.26489 0.17659,0.16678 0.2747,0.39242 0.0981,0.21584 0.0981,0.47091 z" />
    <path
       inkscape:connector-curvature="0"
       id="path3842"
       style="font-style:normal;font-variant:normal;font-weight:normal;font-stretch:normal;font-size:medium;line-height:1.25;font-family:Carlito;-inkscape-font-specification:Carlito;letter-spacing:0px;word-spacing:0px;fill:#000000;fill-opacity:1;stroke:none;stroke-width:0.50230002"
       d="m 640.02895,413.05165 q -1.10859,0 -1.70703,-0.63769 -0.59844,-0.63768 -0.59844,-1.82476 v -5.84709 h -1.09879 q -0.14716,0 -0.25507,-0.0981 -0.0981,-0.0981 -0.0981,-0.28451 v -0.68673 l 1.51083,-0.19622 0.40223,-2.95297 q 0.0196,-0.14716 0.11773,-0.23545 0.10791,-0.0883 0.26488,-0.0883 h 0.88295 v 3.28653 h 2.63904 v 1.25575 h -2.63904 v 5.72936 q 0,0.58864 0.26488,0.88296 0.2747,0.29431 0.70636,0.29431 0.25508,0 0.43167,-0.0687 0.1864,-0.0687 0.31394,-0.15696 0.12753,-0.0883 0.21583,-0.15697 0.0981,-0.0687 0.17659,-0.0687 0.0883,0 0.13735,0.0392 0.0589,0.0392 0.10791,0.12754 l 0.51015,0.82408 q -0.44147,0.41204 -1.03992,0.63768 -0.59844,0.22565 -1.24594,0.22565 z" />
    <path
       inkscape:connector-curvature="0"
       id="path3844"
       style="font-style:normal;font-variant:normal;font-weight:normal;font-stretch:normal;font-size:medium;line-height:1.25;font-family:Carlito;-inkscape-font-specification:Carlito;letter-spacing:0px;word-spacing:0px;fill:#000000;fill-opacity:1;stroke:none;stroke-width:0.50230002"
       d="m 647.74005,403.16262 q 0.86332,0 1.59911,0.2845 0.73579,0.28451 1.27537,0.8339 0.53958,0.54939 0.84371,1.34405 0.30413,0.79465 0.30413,1.82476 0,0.40223 -0.0883,0.53958 -0.0883,0.12753 -0.32374,0.12753 h -6.4161 q 0.0196,0.90257 0.24526,1.5795 0.22564,0.66712 0.61807,1.1086 0.40223,0.44147 0.95162,0.66711 0.54939,0.21583 1.22632,0.21583 0.62787,0 1.08897,-0.13735 0.46109,-0.14715 0.78484,-0.32374 0.33356,-0.17659 0.5592,-0.31394 0.22564,-0.14716 0.39243,-0.14716 0.10791,0 0.1864,0.0491 0.0785,0.0392 0.13734,0.11772 l 0.49053,0.62787 q -0.32375,0.38262 -0.76522,0.66712 -0.43167,0.2747 -0.93201,0.4611 -0.50033,0.17659 -1.03991,0.26488 -0.52977,0.0883 -1.04973,0.0883 -1.00068,0 -1.84439,-0.33356 -0.8437,-0.33356 -1.46176,-0.98106 -0.60826,-0.6573 -0.95163,-1.60892 -0.34337,-0.96144 -0.34337,-2.20738 0,-1.00067 0.30413,-1.864 0.31394,-0.87314 0.89276,-1.51083 0.58863,-0.6475 1.42253,-1.01048 0.8437,-0.36299 1.89344,-0.36299 z m 0.0294,1.25575 q -1.20669,0 -1.91305,0.70635 -0.69655,0.70636 -0.87315,1.93268 h 5.22903 q 0,-0.57882 -0.16678,-1.05954 -0.16678,-0.49052 -0.48072,-0.83389 -0.31394,-0.35318 -0.77503,-0.54939 -0.45129,-0.19621 -1.0203,-0.19621 z" />
    <path
       inkscape:connector-curvature="0"
       id="path3846"
       style="font-style:normal;font-variant:normal;font-weight:normal;font-stretch:normal;font-size:medium;line-height:1.25;font-family:Carlito;-inkscape-font-specification:Carlito;letter-spacing:0px;word-spacing:0px;fill:#000000;fill-opacity:1;stroke:none;stroke-width:0.50230002"
       d="m 653.23395,406.4982 h 4.68944 v 1.46177 h -4.68944 z" />
    <path
       inkscape:connector-curvature="0"
       id="path3848"
       style="font-style:normal;font-variant:normal;font-weight:normal;font-stretch:normal;font-size:medium;line-height:1.25;font-family:Carlito;-inkscape-font-specification:Carlito;letter-spacing:0px;word-spacing:0px;fill:#000000;fill-opacity:1;stroke:none;stroke-width:0.50230002"
       d="m 663.90783,403.16262 q 0.86333,0 1.59912,0.2845 0.73578,0.28451 1.27537,0.8339 0.53958,0.54939 0.8437,1.34405 0.30413,0.79465 0.30413,1.82476 0,0.40223 -0.0883,0.53958 -0.0883,0.12753 -0.32375,0.12753 h -6.4161 q 0.0196,0.90257 0.24526,1.5795 0.22565,0.66712 0.61807,1.1086 0.40223,0.44147 0.95162,0.66711 0.54939,0.21583 1.22632,0.21583 0.62788,0 1.08897,-0.13735 0.46109,-0.14715 0.78484,-0.32374 0.33356,-0.17659 0.55921,-0.31394 0.22564,-0.14716 0.39242,-0.14716 0.10791,0 0.1864,0.0491 0.0785,0.0392 0.13735,0.11772 l 0.49052,0.62787 q -0.32374,0.38262 -0.76522,0.66712 -0.43166,0.2747 -0.932,0.4611 -0.50034,0.17659 -1.03992,0.26488 -0.52977,0.0883 -1.04973,0.0883 -1.00067,0 -1.84438,-0.33356 -0.84371,-0.33356 -1.46177,-0.98106 -0.60826,-0.6573 -0.95163,-1.60892 -0.34337,-0.96144 -0.34337,-2.20738 0,-1.00067 0.30413,-1.864 0.31394,-0.87314 0.89276,-1.51083 0.58863,-0.6475 1.42253,-1.01048 0.84371,-0.36299 1.89344,-0.36299 z m 0.0294,1.25575 q -1.20669,0 -1.91305,0.70635 -0.69655,0.70636 -0.87314,1.93268 h 5.22902 q 0,-0.57882 -0.16678,-1.05954 -0.16678,-0.49052 -0.48072,-0.83389 -0.31393,-0.35318 -0.77503,-0.54939 -0.45129,-0.19621 -1.0203,-0.19621 z" />
    <path
       inkscape:connector-curvature="0"
       id="path3850"
       style="font-style:normal;font-variant:normal;font-weight:normal;font-stretch:normal;font-size:medium;line-height:1.25;font-family:Carlito;-inkscape-font-specification:Carlito;letter-spacing:0px;word-spacing:0px;fill:#000000;fill-opacity:1;stroke:none;stroke-width:0.50230002"
       d="m 671.83475,398.95389 v 13.9506 h -1.72666 v -13.9506 z" />
    <path
       inkscape:connector-curvature="0"
       id="path3852"
       style="font-style:normal;font-variant:normal;font-weight:normal;font-stretch:normal;font-size:medium;line-height:1.25;font-family:Carlito;-inkscape-font-specification:Carlito;letter-spacing:0px;word-spacing:0px;fill:#000000;fill-opacity:1;stroke:none;stroke-width:0.50230002"
       d="m 678.54516,403.16262 q 0.86333,0 1.59912,0.2845 0.73579,0.28451 1.27538,0.8339 0.53958,0.54939 0.8437,1.34405 0.30413,0.79465 0.30413,1.82476 0,0.40223 -0.0883,0.53958 -0.0883,0.12753 -0.32375,0.12753 h -6.4161 q 0.0196,0.90257 0.24527,1.5795 0.22564,0.66712 0.61806,1.1086 0.40223,0.44147 0.95163,0.66711 0.54939,0.21583 1.22632,0.21583 0.62787,0 1.08897,-0.13735 0.46109,-0.14715 0.78484,-0.32374 0.33356,-0.17659 0.5592,-0.31394 0.22564,-0.14716 0.39242,-0.14716 0.10792,0 0.1864,0.0491 0.0785,0.0392 0.13735,0.11772 l 0.49053,0.62787 q -0.32375,0.38262 -0.76522,0.66712 -0.43167,0.2747 -0.932,0.4611 -0.50035,0.17659 -1.03992,0.26488 -0.52977,0.0883 -1.04973,0.0883 -1.00068,0 -1.84438,-0.33356 -0.84371,-0.33356 -1.46178,-0.98106 -0.60825,-0.6573 -0.95162,-1.60892 -0.34337,-0.96144 -0.34337,-2.20738 0,-1.00067 0.30413,-1.864 0.31393,-0.87314 0.89276,-1.51083 0.58863,-0.6475 1.42253,-1.01048 0.84371,-0.36299 1.89343,-0.36299 z m 0.0294,1.25575 q -1.2067,0 -1.91306,0.70635 -0.69655,0.70636 -0.87314,1.93268 h 5.22903 q 0,-0.57882 -0.16679,-1.05954 -0.16677,-0.49052 -0.48071,-0.83389 -0.31394,-0.35318 -0.77504,-0.54939 -0.45128,-0.19621 -1.02029,-0.19621 z" />
    <path
       inkscape:connector-curvature="0"
       id="path3854"
       style="font-style:normal;font-variant:normal;font-weight:normal;font-stretch:normal;font-size:medium;line-height:1.25;font-family:Carlito;-inkscape-font-specification:Carlito;letter-spacing:0px;word-spacing:0px;fill:#000000;fill-opacity:1;stroke:none;stroke-width:0.50230002"
       d="m 684.74543,412.90449 v -9.59472 h 1.0203 q 0.19621,0 0.30412,0.0883 0.11773,0.0785 0.13735,0.26489 l 0.14716,0.98105 q 0.27469,-0.32375 0.56901,-0.58863 0.30413,-0.2747 0.6475,-0.47091 0.34336,-0.20602 0.73579,-0.31394 0.39242,-0.10791 0.83389,-0.10791 0.99087,0 1.60894,0.53958 0.62787,0.53958 0.89275,1.45196 0.20603,-0.52977 0.53959,-0.90257 0.34336,-0.37281 0.7554,-0.61807 0.41205,-0.24526 0.88296,-0.35318 0.4709,-0.11772 0.96143,-0.11772 1.56969,0 2.42321,0.94181 0.86332,0.94181 0.86332,2.68809 v 6.11197 h -1.72665 v -6.11197 q 0,-1.1184 -0.51015,-1.68741 -0.51015,-0.57883 -1.46177,-0.57883 -0.43167,0 -0.81428,0.14716 -0.38261,0.13735 -0.67693,0.43167 -0.2845,0.2845 -0.46109,0.70635 -0.16678,0.42186 -0.16678,0.98106 v 6.11197 h -1.72666 v -6.11197 q 0,-1.14783 -0.48071,-1.70703 -0.47091,-0.55921 -1.3931,-0.55921 -0.62788,0 -1.17727,0.33356 -0.54939,0.32375 -1.00067,0.90257 v 7.14208 z" />
    <path
       inkscape:connector-curvature="0"
       id="path3856"
       style="font-style:normal;font-variant:normal;font-weight:normal;font-stretch:normal;font-size:medium;line-height:1.25;font-family:Carlito;-inkscape-font-specification:Carlito;letter-spacing:0px;word-spacing:0px;fill:#000000;fill-opacity:1;stroke:none;stroke-width:0.50230002"
       d="m 704.60198,403.16262 q 0.86333,0 1.59911,0.2845 0.7358,0.28451 1.27538,0.8339 0.53958,0.54939 0.8437,1.34405 0.30413,0.79465 0.30413,1.82476 0,0.40223 -0.0883,0.53958 -0.0883,0.12753 -0.32375,0.12753 h -6.4161 q 0.0196,0.90257 0.24526,1.5795 0.22565,0.66712 0.61807,1.1086 0.40223,0.44147 0.95162,0.66711 0.54939,0.21583 1.22632,0.21583 0.62788,0 1.08897,-0.13735 0.4611,-0.14715 0.78485,-0.32374 0.33355,-0.17659 0.5592,-0.31394 0.22564,-0.14716 0.39242,-0.14716 0.10791,0 0.1864,0.0491 0.0785,0.0392 0.13735,0.11772 l 0.49052,0.62787 q -0.32375,0.38262 -0.76522,0.66712 -0.43166,0.2747 -0.932,0.4611 -0.50034,0.17659 -1.03992,0.26488 -0.52977,0.0883 -1.04973,0.0883 -1.00068,0 -1.84438,-0.33356 -0.84371,-0.33356 -1.46177,-0.98106 -0.60826,-0.6573 -0.95163,-1.60892 -0.34336,-0.96144 -0.34336,-2.20738 0,-1.00067 0.30412,-1.864 0.31394,-0.87314 0.89276,-1.51083 0.58863,-0.6475 1.42253,-1.01048 0.84371,-0.36299 1.89344,-0.36299 z m 0.0294,1.25575 q -1.20669,0 -1.91305,0.70635 -0.69655,0.70636 -0.87314,1.93268 h 5.22902 q 0,-0.57882 -0.16678,-1.05954 -0.16678,-0.49052 -0.48072,-0.83389 -0.31393,-0.35318 -0.77503,-0.54939 -0.45128,-0.19621 -1.0203,-0.19621 z" />
    <path
       inkscape:connector-curvature="0"
       id="path3858"
       style="font-style:normal;font-variant:normal;font-weight:normal;font-stretch:normal;font-size:medium;line-height:1.25;font-family:Carlito;-inkscape-font-specification:Carlito;letter-spacing:0px;word-spacing:0px;fill:#000000;fill-opacity:1;stroke:none;stroke-width:0.50230002"
       d="m 710.73357,412.90449 v -9.59472 h 1.03011 q 0.1864,0 0.30412,0.0883 0.11773,0.0785 0.13735,0.26489 l 0.14716,1.02029 q 0.61807,-0.68674 1.38328,-1.09878 0.76523,-0.42185 1.76591,-0.42185 0.78484,0 1.37347,0.26488 0.59845,0.25508 1.00068,0.73579 0.40223,0.47091 0.60825,1.14784 0.20603,0.66711 0.20603,1.48139 v 6.11197 h -1.72666 v -6.11197 q 0,-1.06935 -0.49053,-1.6678 -0.48072,-0.59844 -1.47158,-0.59844 -0.73579,0 -1.37348,0.35318 -0.63768,0.34337 -1.16746,0.96143 v 7.0636 z" />
    <path
       inkscape:connector-curvature="0"
       id="path3860"
       style="font-style:normal;font-variant:normal;font-weight:normal;font-stretch:normal;font-size:medium;line-height:1.25;font-family:Carlito;-inkscape-font-specification:Carlito;letter-spacing:0px;word-spacing:0px;fill:#000000;fill-opacity:1;stroke:none;stroke-width:0.50230002"
       d="m 723.81103,413.05165 q -1.10859,0 -1.70704,-0.63769 -0.59844,-0.63768 -0.59844,-1.82476 v -5.84709 h -1.09878 q -0.14716,0 -0.25508,-0.0981 -0.0981,-0.0981 -0.0981,-0.28451 v -0.68673 l 1.51082,-0.19622 0.40223,-2.95297 q 0.0196,-0.14716 0.11773,-0.23545 0.10792,-0.0883 0.26489,-0.0883 h 0.88294 v 3.28653 h 2.63904 v 1.25575 h -2.63904 v 5.72936 q 0,0.58864 0.26489,0.88296 0.2747,0.29431 0.70636,0.29431 0.25508,0 0.43166,-0.0687 0.18641,-0.0687 0.31394,-0.15696 0.12754,-0.0883 0.21583,-0.15697 0.0981,-0.0687 0.17659,-0.0687 0.0883,0 0.13735,0.0392 0.0589,0.0392 0.10792,0.12754 l 0.51015,0.82408 q -0.44148,0.41204 -1.03992,0.63768 -0.59844,0.22565 -1.24594,0.22565 z" />
    <path
       inkscape:connector-curvature="0"
       id="path3862"
       style="font-style:normal;font-variant:normal;font-weight:normal;font-stretch:normal;font-size:medium;line-height:1.25;font-family:Carlito;-inkscape-font-specification:Carlito;letter-spacing:0px;word-spacing:0px;fill:#000000;fill-opacity:1;stroke:none;stroke-width:0.50230002"
       d="m 737.68315,404.89908 q -0.11773,0.21584 -0.35319,0.21584 -0.14716,0 -0.32374,-0.10792 -0.16678,-0.10792 -0.41205,-0.22564 -0.23545,-0.12754 -0.56901,-0.23546 -0.32375,-0.10791 -0.77503,-0.10791 -0.38261,0 -0.68674,0.10791 -0.30413,0.10792 -0.51996,0.29432 -0.21583,0.1864 -0.33356,0.44147 -0.11773,0.24527 -0.11773,0.52977 0,0.37281 0.19622,0.61807 0.19621,0.24526 0.51996,0.42185 0.32374,0.17659 0.73579,0.32375 0.42185,0.13735 0.85351,0.28451 0.43167,0.14716 0.84371,0.34336 0.42185,0.19622 0.7456,0.48072 0.32375,0.28451 0.51996,0.69655 0.19621,0.40223 0.19621,0.98106 0,0.66711 -0.22564,1.23613 -0.22564,0.5592 -0.66712,0.97124 -0.43166,0.41204 -1.07916,0.64749 -0.63768,0.23546 -1.47158,0.23546 -0.95162,0 -1.73647,-0.32375 -0.77503,-0.32375 -1.31461,-0.84371 l 0.40223,-0.64749 q 0.0785,-0.12754 0.1864,-0.19621 0.10792,-0.0687 0.2747,-0.0687 0.17659,0 0.35318,0.13735 0.17659,0.12754 0.42185,0.29432 0.25508,0.15696 0.60826,0.29431 0.35318,0.12754 0.88294,0.12754 0.45129,0 0.77504,-0.12754 0.33355,-0.12754 0.54939,-0.33355 0.21583,-0.21584 0.32375,-0.50035 0.10791,-0.2845 0.10791,-0.59844 0,-0.39242 -0.20602,-0.6475 -0.19621,-0.26488 -0.51996,-0.44147 -0.32375,-0.1864 -0.7456,-0.32374 -0.41204,-0.13735 -0.85352,-0.28451 -0.43166,-0.15697 -0.85352,-0.34337 -0.41204,-0.19621 -0.73578,-0.49053 -0.32375,-0.30412 -0.52978,-0.73579 -0.1962,-0.43166 -0.1962,-1.04973 0,-0.5592 0.21582,-1.05954 0.21584,-0.51014 0.62788,-0.89276 0.41205,-0.38261 1.0203,-0.60825 0.60825,-0.22564 1.3931,-0.22564 0.89275,0 1.61874,0.29431 0.72598,0.29432 1.23612,0.82409 z" />
    <path
       inkscape:connector-curvature="0"
       id="path3864"
       style="font-style:normal;font-variant:normal;font-weight:normal;font-stretch:normal;font-size:medium;line-height:1.25;font-family:Carlito;-inkscape-font-specification:Carlito;letter-spacing:0px;word-spacing:0px;fill:#000000;fill-opacity:1;stroke:none;stroke-width:0.50230002"
       d="m 744.17772,403.16262 q 1.04971,0 1.89342,0.35318 0.84372,0.34336 1.43236,0.99086 0.58865,0.63768 0.90259,1.55007 0.32373,0.91238 0.32373,2.04059 0,1.13803 -0.32373,2.05041 -0.31394,0.91238 -0.90259,1.55987 -0.58864,0.63769 -1.43236,0.99087 -0.84371,0.34337 -1.89342,0.34337 -1.0497,0 -1.90326,-0.34337 -0.84366,-0.35318 -1.44215,-0.99087 -0.5886,-0.64749 -0.91238,-1.55987 -0.31394,-0.91238 -0.31394,-2.05041 0,-1.12821 0.31394,-2.04059 0.32378,-0.91239 0.91238,-1.55007 0.59849,-0.6475 1.44215,-0.99086 0.85356,-0.35318 1.90326,-0.35318 z m 0,8.53517 q 0.69654,0 1.21652,-0.23545 0.51994,-0.24526 0.86331,-0.70636 0.35322,-0.4611 0.51998,-1.12821 0.17656,-0.66712 0.17656,-1.52064 0,-0.85352 -0.17656,-1.52063 -0.16676,-0.66712 -0.51998,-1.12822 -0.34337,-0.46109 -0.86331,-0.70636 -0.51998,-0.24526 -1.21652,-0.24526 -0.70633,0 -1.23611,0.24526 -0.51998,0.24527 -0.87314,0.70636 -0.34338,0.4611 -0.51998,1.12822 -0.16677,0.66711 -0.16677,1.52063 0,0.85352 0.16677,1.52064 0.1766,0.66711 0.51998,1.12821 0.35316,0.4611 0.87314,0.70636 0.52978,0.23545 1.23611,0.23545 z" />
    <path
       inkscape:connector-curvature="0"
       id="path3866"
       style="font-style:normal;font-variant:normal;font-weight:normal;font-stretch:normal;font-size:medium;line-height:1.25;font-family:Carlito;-inkscape-font-specification:Carlito;letter-spacing:0px;word-spacing:0px;fill:#000000;fill-opacity:1;stroke:none;stroke-width:0.50230002"
       d="m 752.6344,398.95389 v 13.9506 h -1.72666 v -13.9506 z" />
    <path
       inkscape:connector-curvature="0"
       id="path3868"
       style="font-style:normal;font-variant:normal;font-weight:normal;font-stretch:normal;font-size:medium;line-height:1.25;font-family:Carlito;-inkscape-font-specification:Carlito;letter-spacing:0px;word-spacing:0px;fill:#000000;fill-opacity:1;stroke:none;stroke-width:0.50230002"
       d="m 759.41349,412.90449 h -1.55984 l -3.57106,-9.59472 h 1.42252 q 0.1962,0 0.33358,0.10792 0.13732,0.10792 0.1864,0.24527 l 2.05039,6.1414 q 0.12753,0.34337 0.21584,0.66711 0.0883,0.32375 0.16676,0.65731 0.0687,-0.32374 0.15697,-0.6475 0.0981,-0.33355 0.23548,-0.67692 l 2.07982,-6.1414 q 0.0589,-0.14716 0.1864,-0.24527 0.13733,-0.10792 0.30415,-0.10792 h 1.36364 z" />
    <path
       inkscape:connector-curvature="0"
       id="path3870"
       style="font-style:normal;font-variant:normal;font-weight:normal;font-stretch:normal;font-size:medium;line-height:1.25;font-family:Carlito;-inkscape-font-specification:Carlito;letter-spacing:0px;word-spacing:0px;fill:#000000;fill-opacity:1;stroke:none;stroke-width:0.50230002"
       d="m 768.21358,403.16262 q 0.86331,0 1.59913,0.2845 0.73577,0.28451 1.27534,0.8339 0.53957,0.54939 0.84371,1.34405 0.30414,0.79465 0.30414,1.82476 0,0.40223 -0.0883,0.53958 -0.0883,0.12753 -0.32373,0.12753 h -6.41613 q 0.0196,0.90257 0.24527,1.5795 0.22563,0.66712 0.61808,1.1086 0.40224,0.44147 0.95161,0.66711 0.54941,0.21583 1.22631,0.21583 0.62788,0 1.08899,-0.13735 0.46111,-0.14715 0.78484,-0.32374 0.33353,-0.17659 0.55921,-0.31394 0.22564,-0.14716 0.3924,-0.14716 0.10794,0 0.1864,0.0491 0.0785,0.0392 0.13733,0.11772 l 0.49055,0.62787 q -0.32373,0.38262 -0.7652,0.66712 -0.43168,0.2747 -0.93202,0.4611 -0.50034,0.17659 -1.03991,0.26488 -0.52978,0.0883 -1.04976,0.0883 -1.00063,0 -1.84435,-0.33356 -0.84371,-0.33356 -1.46179,-0.98106 -0.60823,-0.6573 -0.95161,-1.60892 -0.34337,-0.96144 -0.34337,-2.20738 0,-1.00067 0.30414,-1.864 0.31394,-0.87314 0.89274,-1.51083 0.58865,-0.6475 1.42251,-1.01048 0.84372,-0.36299 1.89347,-0.36299 z m 0.0296,1.25575 q -1.20673,0 -1.91306,0.70635 -0.69659,0.70636 -0.87315,1.93268 h 5.229 q 0,-0.57882 -0.16677,-1.05954 -0.16676,-0.49052 -0.4807,-0.83389 -0.31394,-0.35318 -0.77505,-0.54939 -0.45126,-0.19621 -1.02027,-0.19621 z" />
    <path
       inkscape:connector-curvature="0"
       id="path3872"
       style="font-style:normal;font-variant:normal;font-weight:normal;font-stretch:normal;font-size:medium;line-height:1.25;font-family:Carlito;-inkscape-font-specification:Carlito;letter-spacing:0px;word-spacing:0px;fill:#000000;fill-opacity:1;stroke:none;stroke-width:0.50230002"
       d="m 774.25686,412.90449 v -9.59472 h 0.99088 q 0.27466,0 0.38261,0.10792 0.11774,0.10792 0.13733,0.36299 l 0.11773,1.41272 q 0.44148,-0.95162 1.08899,-1.50101 0.64747,-0.54939 1.55984,-0.54939 0.30415,0 0.56906,0.0687 0.26486,0.0589 0.4807,0.20602 l -0.13738,1.27537 q -0.0296,0.24527 -0.27466,0.24527 -0.13738,0 -0.39244,-0.0491 -0.24528,-0.0589 -0.54937,-0.0589 -0.44147,0 -0.78484,0.13735 -0.33358,0.12754 -0.60829,0.39242 -0.26486,0.25507 -0.4709,0.62787 -0.206,0.37281 -0.38261,0.85352 v 6.06292 z" />
  </g>
</svg>
