<?xml version="1.0" encoding="UTF-8" standalone="no"?>
<!-- Created with Inkscape (http://www.inkscape.org/) -->

<svg
   xmlns:dc="http://purl.org/dc/elements/1.1/"
   xmlns:cc="http://creativecommons.org/ns#"
   xmlns:rdf="http://www.w3.org/1999/02/22-rdf-syntax-ns#"
   xmlns:svg="http://www.w3.org/2000/svg"
   xmlns="http://www.w3.org/2000/svg"
   xmlns:sodipodi="http://sodipodi.sourceforge.net/DTD/sodipodi-0.dtd"
   xmlns:inkscape="http://www.inkscape.org/namespaces/inkscape"
   width="599.88147"
   height="431.65607"
   id="svg3177"
   version="1.1"
   inkscape:version="0.48.5 r10040"
   sodipodi:docname="fino.svg">
  <defs
     id="defs3179" />
  <sodipodi:namedview
     id="base"
     pagecolor="#ffffff"
     bordercolor="#666666"
     borderopacity="1.0"
     inkscape:pageopacity="0.0"
     inkscape:pageshadow="2"
     inkscape:zoom="1"
     inkscape:cx="553.66201"
     inkscape:cy="244.27469"
     inkscape:document-units="px"
     inkscape:current-layer="layer1"
     showgrid="false"
     fit-margin-top="0"
     fit-margin-left="0"
     fit-margin-right="0"
     fit-margin-bottom="0"
     inkscape:window-width="1920"
     inkscape:window-height="1060"
     inkscape:window-x="1916"
     inkscape:window-y="-3"
     inkscape:window-maximized="1"
     units="px" />
  <metadata
     id="metadata3182">
    <rdf:RDF>
      <cc:Work
         rdf:about="">
        <dc:format>image/svg+xml</dc:format>
        <dc:type
           rdf:resource="http://purl.org/dc/dcmitype/StillImage" />
        <dc:title />
      </cc:Work>
    </rdf:RDF>
  </metadata>
  <g
     inkscape:label="Layer 1"
     inkscape:groupmode="layer"
     id="layer1"
     transform="translate(-474.79272,-255.85585)">
    <g
       id="g3212"
       transform="matrix(0.74579282,0,0,0.74579282,195.32713,-16.973995)"
       style="fill:#000000;fill-opacity:1">
      <path
         sodipodi:nodetypes="czzcccczzcccccccccccsccccccccccc"
         style="fill:#000000;fill-opacity:1;fill-rule:evenodd"
         inkscape:connector-curvature="0"
         id="path22"
         d="m 661.40573,570.15001 c 0,0 -0.7902,-29.10446 -1,-30 -0.2098,-0.89553 -0.036,-3.26534 -0.05,-4.82358 -0.0144,-1.55825 -2.95,-72.17642 -2.95,-72.17642 1,-5 -1,-2 2,-4 l 1,2 c 0,1 0,1 0,2 2,13 2.9488,70.29263 3,72 0.051,1.70738 0.085,3.85026 0,5 -0.085,1.14975 2,35 2,35 -6,1 -10,-9 -18,-16 l -26,-27 c -5,-5 -19,-23 -26,-28 -4,48 -5,53 -3,100 0,8 -1,7 3,12 l 43,62 c 3,5 6,7 5,10 -2,0 -4,-4 -6,-7 l -38,-54 c -2,-2 -6,-8 -7,-9 0,12 3,51 3,70 0,11 0,23 -2,34 -1,17 0,17 -11,25 -47,34 -53,-39 -52,-78 2,-43 11,-88 24,-124 6,-19 13,-35 22,-51 6,-12 23,-36 33,-41 -1,6 -4,12 -6,19 -2,6 -4,12 -5,19 -3,11 -3,9 4,15 7,7 28,32 36,39 3,4 17,20 23,25 z"
         class="fil0" />
      <path
         style="fill:#000000;fill-opacity:1;fill-rule:evenodd"
         inkscape:connector-curvature="0"
         id="path24"
         d="m 651.40573,410.15001 c 5,1 9,3 13,5 6,1 9,1 11,7 -5,7 -16,-1 -25,-3 -2,11 -8,20 -15,25 -6,4 -23,8 -32,5 -40,-10 -48,-89 13,-83 9,1 20,11 24,16 8,10 7,13 11,28 z"
         class="fil0" />
      <path
         style="fill:#000000;fill-opacity:1;fill-rule:evenodd"
         inkscape:connector-curvature="0"
         id="path52"
         d="m 603.40573,938.15001 c 2,1 3,2 6,3 1,0 3,0 4,1 2,1 1,0 2,2 -4,2 -12,-3 -15,-5 -1,-11 6,-85 7,-103 2,-15 1,-11 -4,-22 -4,-6 -7,-12 -10,-18 -3,-5 -20,-33 -18,-36 3,1 1,0 5,7 l 25,46 c 5,10 7,8 5,21 -1,22 -7,85 -7,104 z"
         class="fil0" />
      <polygon
         style="fill:#000000;fill-opacity:1;fill-rule:evenodd"
         id="polygon68"
         points="2244,-117 2235,-117 2233,-101 2244,-102 "
         class="fil0"
         transform="matrix(-1,0,0,1,2899.4057,560.15001)" />
      <path
         style="fill:#000000;fill-opacity:1;fill-rule:evenodd"
         inkscape:connector-curvature="0"
         id="path78"
         d="m 646.40573,704.15001 c 1,0 1,0 2,0 l 2,0 c -3,-2 -3,0 -3,-14 4,3 6,3 6,9 0,9 -2,8 -7,5 z"
         class="fil0" />
      <path
         style="fill:#000000;fill-opacity:1;fill-rule:evenodd"
         inkscape:connector-curvature="0"
         id="path82"
         d="m 656.40573,443.15001 c -2,-3 -2,-12 -2,-15 1,-7 0,-1 2,-4 l 1,2 c 0,2 1,14 -1,17 z"
         class="fil0" />
      <path
         style="fill:#000000;fill-opacity:1;fill-rule:evenodd"
         inkscape:connector-curvature="0"
         id="path84"
         d="m 667.40573,442.15001 c -2,1 -3,0 -5,0 l 2,-7 c 1,2 4,4 3,7 z"
         class="fil0" />
      <path
         style="fill:#000000;fill-opacity:1;fill-rule:evenodd"
         inkscape:connector-curvature="0"
         id="path86"
         d="m 661.40573,436.15001 c 0,0 1,-1 0,3 -1,4 1,1 -2,3 0,0 -3,2 -1,-4 1,-4 2,-2 3,-2 z"
         class="fil0" />
      <path
         sodipodi:nodetypes="sssscscscsccs"
         inkscape:connector-curvature="0"
         id="path2993"
         d="m 561.22443,943.01435 c 0,-0.2135 -4.05,-1.3888 -9,-2.6119 -4.95,-1.2231 -9,-2.6052 -9,-3.0713 0,-0.466 5.4509,-25.0176 12.113,-54.55901 l 12.1129,-53.7116 -6.6606,-33.57905 c -6.9494,-35.03559 -7.3156,-36.66206 -8.0816,-35.89601 -0.2582,0.25812 2.6455,16.00725 6.4524,34.99808 l 6.9218,34.52877 -11.9109,52.89501 c -6.5509,29.09231 -12.139,53.85361 -12.4178,55.02511 -0.46,1.9323 0.2775,2.3267 7.9457,4.25 8.148,2.0435 11.5251,2.551 11.5251,1.7319 z"
         style="fill:#000000;fill-opacity:1;fill-rule:evenodd" />
    </g>
    <g
       style="font-size:48px;font-style:normal;font-variant:normal;font-weight:normal;font-stretch:normal;line-height:125%;letter-spacing:0px;word-spacing:0px;fill:#000000;fill-opacity:1;stroke:none;font-family:Carlito;-inkscape-font-specification:Carlito"
       id="text3223"
       transform="matrix(8.4724362,0,0,8.4724362,-4462.7351,-5079.6201)">
      <path
         d="m 586.19733,663.40601 0,-19.47657 -2.32032,-0.30468 c -0.32812,-0.0312 -0.59375,-0.1328 -0.79687,-0.30469 -0.20313,-0.17186 -0.30469,-0.41404 -0.30469,-0.72656 l 0,-1.6875 3.42188,0 0,-2.17969 c -10e-6,-1.31248 0.17187,-2.47654 0.51562,-3.49219 0.35937,-1.03122 0.86718,-1.89059 1.52344,-2.57812 0.65624,-0.7031 1.45312,-1.23435 2.39062,-1.59375 0.93749,-0.37497 1.99218,-0.56247 3.16407,-0.5625 0.48436,3e-5 0.95311,0.0391 1.40625,0.11718 0.46873,0.0782 0.91405,0.18754 1.33593,0.32813 l -0.11718,2.0625 c -0.0313,0.3594 -0.21877,0.56253 -0.5625,0.60937 -0.34377,0.0313 -0.8047,0.0469 -1.38282,0.0469 -0.65626,3e-5 -1.25001,0.086 -1.78125,0.25781 -0.51563,0.17191 -0.96094,0.46097 -1.33593,0.86719 -0.37501,0.40628 -0.66407,0.94534 -0.86719,1.61719 -0.20313,0.65627 -0.3047,1.46877 -0.30469,2.4375 l 0,2.0625 10.78866,0 0,3 -10.64803,0 0,19.5 -4.125,0"
         id="path4000"
         inkscape:connector-curvature="0"
         sodipodi:nodetypes="ccccsccsccccccccccccccccccc" />
    </g>
    <text
       xml:space="preserve"
       style="font-size:406.67694092px;font-style:normal;font-variant:normal;font-weight:normal;font-stretch:normal;line-height:125%;letter-spacing:0px;word-spacing:0px;fill:#000000;fill-opacity:1;stroke:none;font-family:Carlito;-inkscape-font-specification:Carlito"
       x="874.46283"
       y="545.31958"
       id="text4002"
       sodipodi:linespacing="125%"><tspan
         sodipodi:role="line"
         id="tspan4004"
         x="874.46283"
         y="545.31958">o</tspan></text>
    <text
       xml:space="preserve"
       style="font-size:406.67694092px;font-style:normal;font-variant:normal;font-weight:normal;font-stretch:normal;line-height:125%;letter-spacing:0px;word-spacing:0px;fill:#000000;fill-opacity:1;stroke:none;font-family:Carlito;-inkscape-font-specification:Carlito"
       x="678.23621"
       y="542.0849"
       id="text3227"
       sodipodi:linespacing="125%"><tspan
         sodipodi:role="line"
         id="tspan3229"
         x="678.23621"
         y="542.0849">n</tspan></text>
    <text
       xml:space="preserve"
       style="font-size:40.26139832px;font-style:normal;font-variant:normal;font-weight:normal;font-stretch:normal;line-height:125%;letter-spacing:0px;word-spacing:0px;fill:#000000;fill-opacity:1;stroke:none;font-family:Linux Libertine Display O;-inkscape-font-specification:Linux Libertine Display O"
       x="645.63049"
       y="568.30841"
       id="text3800"
       sodipodi:linespacing="125%"><tspan
         sodipodi:role="line"
         x="645.63049"
         y="568.30841"
         id="tspan3804">a free finite-element solver</tspan></text>
  </g>
</svg>
