<?xml version="1.0" encoding="UTF-8" standalone="no"?>
<!-- Created with Inkscape (http://www.inkscape.org/) -->

<svg
   xmlns:dc="http://purl.org/dc/elements/1.1/"
   xmlns:cc="http://creativecommons.org/ns#"
   xmlns:rdf="http://www.w3.org/1999/02/22-rdf-syntax-ns#"
   xmlns:svg="http://www.w3.org/2000/svg"
   xmlns="http://www.w3.org/2000/svg"
   xmlns:sodipodi="http://sodipodi.sourceforge.net/DTD/sodipodi-0.dtd"
   xmlns:inkscape="http://www.inkscape.org/namespaces/inkscape"
   width="599.88147"
   height="431.65607"
   id="svg3177"
   version="1.1"
   inkscape:version="0.48.5 r10040"
   sodipodi:docname="fino.svg">
  <defs
     id="defs3179" />
  <sodipodi:namedview
     id="base"
     pagecolor="#ffffff"
     bordercolor="#666666"
     borderopacity="1.0"
     inkscape:pageopacity="0.0"
     inkscape:pageshadow="2"
     inkscape:zoom="1"
     inkscape:cx="553.66201"
     inkscape:cy="244.27469"
     inkscape:document-units="px"
     inkscape:current-layer="layer1"
     showgrid="false"
     fit-margin-top="0"
     fit-margin-left="0"
     fit-margin-right="0"
     fit-margin-bottom="0"
     inkscape:window-width="1920"
     inkscape:window-height="1025"
     inkscape:window-x="-4"
     inkscape:window-y="-3"
     inkscape:window-maximized="1"
     units="px" />
  <metadata
     id="metadata3182">
    <rdf:RDF>
      <cc:Work
         rdf:about="">
        <dc:format>image/svg+xml</dc:format>
        <dc:type
           rdf:resource="http://purl.org/dc/dcmitype/StillImage" />
        <dc:title />
      </cc:Work>
    </rdf:RDF>
  </metadata>
  <g
     inkscape:label="Layer 1"
     inkscape:groupmode="layer"
     id="layer1"
     transform="translate(-474.79272,-255.85585)">
    <g
       id="g3212"
       transform="matrix(0.74579282,0,0,0.74579282,195.32713,-16.973995)"
       style="fill:#000000;fill-opacity:1">
      <path
         sodipodi:nodetypes="czzcccczzcccccccccccsccccccccccc"
         style="fill:#000000;fill-opacity:1;fill-rule:evenodd"
         inkscape:connector-curvature="0"
         id="path22"
         d="m 661.40573,570.15001 c 0,0 -0.7902,-29.10446 -1,-30 -0.2098,-0.89553 -0.036,-3.26534 -0.05,-4.82358 -0.0144,-1.55825 -2.95,-72.17642 -2.95,-72.17642 1,-5 -1,-2 2,-4 l 1,2 c 0,1 0,1 0,2 2,13 2.9488,70.29263 3,72 0.051,1.70738 0.085,3.85026 0,5 -0.085,1.14975 2,35 2,35 -6,1 -10,-9 -18,-16 l -26,-27 c -5,-5 -19,-23 -26,-28 -4,48 -5,53 -3,100 0,8 -1,7 3,12 l 43,62 c 3,5 6,7 5,10 -2,0 -4,-4 -6,-7 l -38,-54 c -2,-2 -6,-8 -7,-9 0,12 3,51 3,70 0,11 0,23 -2,34 -1,17 0,17 -11,25 -47,34 -53,-39 -52,-78 2,-43 11,-88 24,-124 6,-19 13,-35 22,-51 6,-12 23,-36 33,-41 -1,6 -4,12 -6,19 -2,6 -4,12 -5,19 -3,11 -3,9 4,15 7,7 28,32 36,39 3,4 17,20 23,25 z"
         class="fil0" />
      <path
         style="fill:#000000;fill-opacity:1;fill-rule:evenodd"
         inkscape:connector-curvature="0"
         id="path24"
         d="m 651.40573,410.15001 c 5,1 9,3 13,5 6,1 9,1 11,7 -5,7 -16,-1 -25,-3 -2,11 -8,20 -15,25 -6,4 -23,8 -32,5 -40,-10 -48,-89 13,-83 9,1 20,11 24,16 8,10 7,13 11,28 z"
         class="fil0" />
      <path
         style="fill:#000000;fill-opacity:1;fill-rule:evenodd"
         inkscape:connector-curvature="0"
         id="path52"
         d="m 603.40573,938.15001 c 2,1 3,2 6,3 1,0 3,0 4,1 2,1 1,0 2,2 -4,2 -12,-3 -15,-5 -1,-11 6,-85 7,-103 2,-15 1,-11 -4,-22 -4,-6 -7,-12 -10,-18 -3,-5 -20,-33 -18,-36 3,1 1,0 5,7 l 25,46 c 5,10 7,8 5,21 -1,22 -7,85 -7,104 z"
         class="fil0" />
      <polygon
         style="fill:#000000;fill-opacity:1;fill-rule:evenodd"
         id="polygon68"
         points="2244,-117 2235,-117 2233,-101 2244,-102 "
         class="fil0"
         transform="matrix(-1,0,0,1,2899.4057,560.15001)" />
      <path
         style="fill:#000000;fill-opacity:1;fill-rule:evenodd"
         inkscape:connector-curvature="0"
         id="path78"
         d="m 646.40573,704.15001 c 1,0 1,0 2,0 l 2,0 c -3,-2 -3,0 -3,-14 4,3 6,3 6,9 0,9 -2,8 -7,5 z"
         class="fil0" />
      <path
         style="fill:#000000;fill-opacity:1;fill-rule:evenodd"
         inkscape:connector-curvature="0"
         id="path82"
         d="m 656.40573,443.15001 c -2,-3 -2,-12 -2,-15 1,-7 0,-1 2,-4 l 1,2 c 0,2 1,14 -1,17 z"
         class="fil0" />
      <path
         style="fill:#000000;fill-opacity:1;fill-rule:evenodd"
         inkscape:connector-curvature="0"
         id="path84"
         d="m 667.40573,442.15001 c -2,1 -3,0 -5,0 l 2,-7 c 1,2 4,4 3,7 z"
         class="fil0" />
      <path
         style="fill:#000000;fill-opacity:1;fill-rule:evenodd"
         inkscape:connector-curvature="0"
         id="path86"
         d="m 661.40573,436.15001 c 0,0 1,-1 0,3 -1,4 1,1 -2,3 0,0 -3,2 -1,-4 1,-4 2,-2 3,-2 z"
         class="fil0" />
      <path
         sodipodi:nodetypes="sssscscscsccs"
         inkscape:connector-curvature="0"
         id="path2993"
         d="m 561.22443,943.01435 c 0,-0.2135 -4.05,-1.3888 -9,-2.6119 -4.95,-1.2231 -9,-2.6052 -9,-3.0713 0,-0.466 5.4509,-25.0176 12.113,-54.55901 l 12.1129,-53.7116 -6.6606,-33.57905 c -6.9494,-35.03559 -7.3156,-36.66206 -8.0816,-35.89601 -0.2582,0.25812 2.6455,16.00725 6.4524,34.99808 l 6.9218,34.52877 -11.9109,52.89501 c -6.5509,29.09231 -12.139,53.85361 -12.4178,55.02511 -0.46,1.9323 0.2775,2.3267 7.9457,4.25 8.148,2.0435 11.5251,2.551 11.5251,1.7319 z"
         style="fill:#000000;fill-opacity:1;fill-rule:evenodd" />
    </g>
    <g
       style="font-size:48px;font-style:normal;font-variant:normal;font-weight:normal;font-stretch:normal;line-height:125%;letter-spacing:0px;word-spacing:0px;fill:#000000;fill-opacity:1;stroke:none;font-family:Carlito;-inkscape-font-specification:Carlito"
       id="text3223"
       transform="matrix(8.4724362,0,0,8.4724362,-4462.7351,-5079.6201)">
      <path
         d="m 586.19733,663.40601 0,-19.47657 -2.32032,-0.30468 c -0.32812,-0.0312 -0.59375,-0.1328 -0.79687,-0.30469 -0.20313,-0.17186 -0.30469,-0.41404 -0.30469,-0.72656 l 0,-1.6875 3.42188,0 0,-2.17969 c -10e-6,-1.31248 0.17187,-2.47654 0.51562,-3.49219 0.35937,-1.03122 0.86718,-1.89059 1.52344,-2.57812 0.65624,-0.7031 1.45312,-1.23435 2.39062,-1.59375 0.93749,-0.37497 1.99218,-0.56247 3.16407,-0.5625 0.48436,3e-5 0.95311,0.0391 1.40625,0.11718 0.46873,0.0782 0.91405,0.18754 1.33593,0.32813 l -0.11718,2.0625 c -0.0313,0.3594 -0.21877,0.56253 -0.5625,0.60937 -0.34377,0.0313 -0.8047,0.0469 -1.38282,0.0469 -0.65626,3e-5 -1.25001,0.086 -1.78125,0.25781 -0.51563,0.17191 -0.96094,0.46097 -1.33593,0.86719 -0.37501,0.40628 -0.66407,0.94534 -0.86719,1.61719 -0.20313,0.65627 -0.3047,1.46877 -0.30469,2.4375 l 0,2.0625 10.78866,0 0,3 -10.64803,0 0,19.5 -4.125,0"
         id="path4000"
         inkscape:connector-curvature="0"
         sodipodi:nodetypes="ccccsccsccccccccccccccccccc" />
    </g>
    <text
       xml:space="preserve"
       style="font-size:406.67694092px;font-style:normal;font-variant:normal;font-weight:normal;font-stretch:normal;line-height:125%;letter-spacing:0px;word-spacing:0px;fill:#000000;fill-opacity:1;stroke:none;font-family:Carlito;-inkscape-font-specification:Carlito"
       x="874.46283"
       y="545.31958"
       id="text4002"
       sodipodi:linespacing="125%"><tspan
         sodipodi:role="line"
         id="tspan4004"
         x="874.46283"
         y="545.31958">o</tspan></text>
    <text
       xml:space="preserve"
       style="font-size:406.67694092px;font-style:normal;font-variant:normal;font-weight:normal;font-stretch:normal;line-height:125%;letter-spacing:0px;word-spacing:0px;fill:#000000;fill-opacity:1;stroke:none;font-family:Carlito;-inkscape-font-specification:Carlito"
       x="678.23621"
       y="542.0849"
       id="text3227"
       sodipodi:linespacing="125%"><tspan
         sodipodi:role="line"
         id="tspan3229"
         x="678.23621"
         y="542.0849">n</tspan></text>
    <g
       style="font-size:40.26139832px;font-style:normal;font-variant:normal;font-weight:normal;font-stretch:normal;line-height:125%;letter-spacing:0px;word-spacing:0px;fill:#000000;fill-opacity:1;stroke:none;font-family:Linux Libertine Display O;-inkscape-font-specification:Linux Libertine Display O"
       id="text3800">
      <path
         d="m 657.42708,559.77299 -0.2013,4.71059 c -0.0403,0.48313 -0.20131,0.7247 -0.5234,0.96627 -1.00654,0.80523 -2.37543,2.05333 -3.46248,2.05333 -1.93255,0 -2.97935,-1.69098 -2.97935,-2.89882 0,-1.48967 0.96628,-3.30143 3.8651,-4.02614 l 3.30143,-0.80523 m -0.2013,6.6834 c 0.24156,0.80522 0.84549,2.25463 2.89882,2.25463 1.89228,0 3.26117,-1.52993 3.26117,-1.73124 0,-0.28183 -0.40261,-0.52339 -0.56366,-0.52339 -0.24157,0 -0.36235,0.64418 -1.16758,0.64418 -1.48967,0 -1.69098,-1.20785 -1.61046,-3.42222 l 0.20131,-5.71712 c 0.16105,-5.35476 -2.65725,-6.52235 -5.47555,-6.52235 -3.14039,0 -6.52235,2.01308 -6.52235,4.06641 0,0.92601 0.64419,1.57019 1.52994,1.57019 1.12732,0 1.7715,-1.00653 1.7715,-1.48967 0,-0.28183 -0.0403,-0.5234 -0.12079,-0.68444 -0.0403,-0.12079 -0.0805,-0.36236 -0.0805,-0.76497 0,-1.20784 1.65072,-1.81176 3.10013,-1.81176 1.28836,0 3.0196,1.0468 3.0196,5.39502 0,0.28183 -0.0805,0.80523 -0.2013,0.84549 l -3.62353,0.80523 c -3.7443,0.84549 -6.32104,2.77804 -6.32104,5.39503 0,2.93908 2.0936,3.94561 4.79111,3.94561 1.7715,0 2.57673,-0.36235 4.26771,-1.65071 l 0.76496,-0.60392 0.0805,0"
         style=""
         id="path3001" />
      <path
         d="m 677.76412,548.98294 c 0,0.60392 0,1.61046 0.0403,2.85856 l -2.01307,0 c -0.68444,0 -0.88575,0.24157 -0.88575,0.56366 l 0,0.36235 c 0,0.20131 0.0403,0.24157 0.20131,0.24157 l 2.69751,0 c 0,4.02614 0,9.46143 -0.0403,11.11215 -0.12078,3.18064 -0.44288,3.30143 -2.4962,3.46248 -0.24157,0.24156 -0.24157,0.68444 0,0.92601 1.61045,-0.0403 2.2949,-0.20131 3.78457,-0.20131 1.7715,0 2.85856,0.16105 4.50927,0.20131 0.24157,-0.24157 0.24157,-0.68445 0,-0.92601 -2.61698,-0.16105 -2.93908,-0.28184 -3.0196,-3.46248 -0.0805,-1.5702 -0.0805,-6.96523 -0.0805,-11.11215 l 3.66378,0 c 0.36236,0 0.84549,0.0403 0.84549,-0.32209 l 0,-0.60392 c 0,-0.16105 -0.0805,-0.24157 -0.28183,-0.24157 l -4.22744,0 c 0.0403,-1.52993 0.0403,-2.8183 0.0805,-3.50274 0.0403,-2.01307 0.20131,-3.54301 0.5234,-4.63006 0.64418,-2.01307 1.65071,-2.61699 2.4962,-2.61699 1.16758,0 1.73124,0.80522 2.25464,2.13385 0.32209,0.68444 0.72471,1.20784 1.52993,1.20784 0.64419,0 1.65072,-0.7247 1.65072,-1.48967 0,-0.64418 -0.44287,-1.32863 -1.2481,-1.93255 -1.00654,-0.68444 -2.01307,-0.80523 -3.46248,-0.80523 -1.89229,0 -3.90536,0.92602 -5.19372,2.85856 -0.92601,1.44941 -1.44941,3.38196 -1.32863,5.91843"
         style=""
         id="path3003" />
      <path
         d="m 690.35147,555.74685 c 0.0805,2.05333 0.0805,6.36131 0,8.37438 -0.16105,3.18064 -0.44288,3.26117 -2.8183,3.46248 -0.24157,0.24156 -0.24157,0.68444 0,0.92601 1.20784,-0.0805 3.01961,-0.20131 4.22745,-0.20131 1.16758,0 3.22091,0.12078 4.54954,0.20131 0.24156,-0.24157 0.24156,-0.68445 0,-0.92601 -2.69751,-0.24157 -3.01961,-0.28184 -3.14039,-3.46248 -0.0805,-2.01307 -0.0403,-5.07294 0,-5.83791 0.0403,-1.00653 0.5234,-2.09359 0.92601,-2.77803 0.36235,-0.60392 1.32863,-2.05334 1.7715,-2.05334 0.28183,0 0.60392,0.0805 0.76497,0.36236 0.28183,0.52339 0.80523,1.2481 1.61045,1.2481 0.92602,0 1.81177,-0.80523 1.81177,-1.7715 0,-0.72471 -0.44288,-1.85203 -2.33516,-1.85203 -1.48967,0 -2.97935,1.28837 -4.26771,3.22092 -0.28183,0.40261 -0.32209,-0.16105 -0.32209,-0.36236 0,-1.2481 -0.0403,-2.45594 -0.12079,-2.69751 -0.0805,-0.12078 -0.16104,-0.24157 -0.48313,-0.24157 -1.08706,0.40262 -2.0936,0.72471 -4.75085,1.08706 -0.0805,0.24157 -0.0805,0.44288 0.0805,0.68444 2.05333,0.20131 2.41569,0.5234 2.49621,2.61699"
         style=""
         id="path3005" />
      <path
         d="m 704.95063,557.88071 c 0.72471,-4.34823 3.26118,-5.51581 4.71059,-5.51581 1.85202,0 3.62352,1.57019 3.62352,4.7911 0,0.36236 -0.16104,0.5234 -0.56366,0.5234 l -7.77045,0.20131 m 10.62901,6.84444 c -1.40915,1.44941 -2.73778,2.4962 -4.95215,2.4962 -1.36889,0 -3.38196,-0.80523 -4.5898,-2.77803 -0.76497,-1.24811 -1.20784,-3.18066 -1.20784,-5.39503 l 10.79005,-0.16105 c 0.44288,0 0.72471,-0.28183 0.72471,-0.68444 0,-3.22091 -1.32863,-6.76392 -6.68339,-6.76392 -3.66379,0 -7.89124,3.26118 -7.89124,9.09908 0,2.13385 0.56366,4.26771 1.81176,5.71712 1.28837,1.52993 3.30144,2.45594 6.07948,2.45594 2.89881,0 5.19372,-1.32862 6.72365,-3.34169 -0.12079,-0.40262 -0.36235,-0.60392 -0.80523,-0.64418"
         style=""
         id="path3007" />
      <path
         d="m 722.8009,557.88071 c 0.72471,-4.34823 3.26118,-5.51581 4.71059,-5.51581 1.85202,0 3.62352,1.57019 3.62352,4.7911 0,0.36236 -0.16104,0.5234 -0.56366,0.5234 l -7.77045,0.20131 m 10.62901,6.84444 c -1.40914,1.44941 -2.73777,2.4962 -4.95215,2.4962 -1.36888,0 -3.38196,-0.80523 -4.5898,-2.77803 -0.76496,-1.24811 -1.20784,-3.18066 -1.20784,-5.39503 l 10.79006,-0.16105 c 0.44287,0 0.7247,-0.28183 0.7247,-0.68444 0,-3.22091 -1.32863,-6.76392 -6.68339,-6.76392 -3.66379,0 -7.89124,3.26118 -7.89124,9.09908 0,2.13385 0.56367,4.26771 1.81177,5.71712 1.28836,1.52993 3.30143,2.45594 6.07947,2.45594 2.89882,0 5.19372,-1.32862 6.72365,-3.34169 -0.12078,-0.40262 -0.36235,-0.60392 -0.80523,-0.64418"
         style=""
         id="path3009" />
      <path
         d="m 763.97007,563.79913 c -0.0805,-2.01306 -0.0805,-6.28078 0,-8.29384 0.0403,-1.5702 0.16105,-4.14693 0.16105,-4.14693 0,-0.16104 -0.24157,-0.24157 -0.40262,-0.24157 -1.16758,0.48314 -2.25464,0.72471 -3.58326,0.72471 l -7.73019,0 0,-2.53647 c 0,-2.93908 0.40261,-4.38849 1.08706,-5.47555 1.00653,-1.65072 2.01307,-2.53647 3.38195,-2.53647 1.36889,0 2.8183,0.84549 3.05987,2.37542 0.32209,2.01307 0.96628,2.617 2.17412,2.617 0.84548,0 1.61045,-0.80523 1.61045,-1.65072 0,-0.96627 -0.5234,-2.0936 -2.13385,-3.14039 -1.12732,-0.72471 -2.89882,-1.28837 -4.34823,-1.28837 -1.7715,0 -3.94562,0.68445 -5.51581,2.617 -1.61046,1.9728 -2.25464,4.46901 -2.25464,7.6094 l 0,1.40915 -1.81177,0 c -0.68444,0 -0.88575,0.40261 -0.88575,0.7247 l 0,0.12079 c 0,0.2013 0.0403,0.24157 0.20131,0.24157 l 2.53647,0 c 0.0403,2.01306 0.12078,8.85751 0.0403,10.87057 -0.16105,3.3417 -0.44288,3.62353 -2.49621,3.78458 -0.24157,0.24156 -0.24157,0.68444 0,0.92601 1.61046,-0.0403 2.2949,-0.20131 3.82484,-0.20131 1.65071,0 2.65725,0.16105 4.30797,0.20131 0.12078,-0.12079 0.16104,-0.28183 0.16104,-0.44288 0,-0.16104 -0.0403,-0.36235 -0.16104,-0.48313 -2.45595,-0.16105 -2.69752,-0.44288 -2.8183,-3.78458 -0.0805,-2.01306 -0.0403,-8.85751 0,-10.87057 l 7.086,0 c 1.20784,0 1.40915,0.5234 1.48968,2.57673 0.0805,2.01306 0.0805,6.28078 0,8.29384 -0.16105,3.3417 -0.48314,3.62353 -2.57673,3.78458 -0.24157,0.24156 -0.24157,0.68444 0,0.92601 1.61045,-0.0403 2.4962,-0.20131 4.10666,-0.20131 1.65071,0 2.61699,0.16105 4.26771,0.20131 0.24156,-0.24157 0.24156,-0.68445 0,-0.92601 -2.33516,-0.16105 -2.65726,-0.44288 -2.77804,-3.78458"
         style=""
         id="path3011" />
      <path
         d="m 774.56133,554.57927 c -0.12078,0.16105 -0.36235,0.5234 -0.36235,0 0,-1.16758 0.20131,-2.93908 0.20131,-2.93908 0,-0.20131 -0.16105,-0.28183 -0.48314,-0.28183 -1.08706,0.40262 -2.41569,0.72471 -5.07294,1.08706 -0.0805,0.24157 0,0.44288 0.0805,0.68444 2.05333,0.20131 2.41568,0.40262 2.4962,2.61699 0.0403,2.09359 0.0403,6.40157 0,8.37438 -0.0805,3.14038 -0.40261,3.26117 -2.69751,3.46248 -0.24157,0.24156 -0.24157,0.68444 0,0.92601 1.57019,-0.0403 2.49621,-0.20131 4.14692,-0.20131 1.48967,0 2.05334,0.16105 3.66379,0.20131 0.24157,-0.24157 0.24157,-0.68445 0,-0.92601 -1.97281,-0.20131 -2.21438,-0.3221 -2.2949,-3.46248 -0.0805,-1.85203 -0.12078,-5.27425 0,-7.2068 0.0403,-0.80522 0.32209,-1.2481 0.64418,-1.61045 1.44941,-1.40915 3.58327,-2.25464 5.07294,-2.25464 0.76496,0 1.61046,0.48314 2.05333,1.36889 0.40261,0.76496 0.32209,1.81176 0.40261,2.97934 0.0805,2.01307 0.0805,4.71059 0,6.72366 -0.16104,3.14038 -0.36235,3.26117 -2.37542,3.46248 -0.20131,0.24156 -0.20131,0.68444 0,0.92601 1.61046,-0.0403 2.33516,-0.20131 3.8651,-0.20131 1.57019,0 2.2949,0.16105 3.94561,0.20131 0.20131,-0.24157 0.20131,-0.68445 0,-0.92601 -2.13385,-0.20131 -2.45594,-0.3221 -2.57673,-3.46248 -0.0805,-1.97281 -0.0805,-4.18719 0,-6.20026 0,-0.60392 0.0403,-1.16758 0.0403,-1.73124 0,-1.36889 -0.16104,-2.53647 -0.76496,-3.42222 -0.64418,-0.84549 -1.93255,-1.32863 -3.26117,-1.32863 -1.89229,0 -4.3885,0.52341 -6.72366,3.14039"
         style=""
         id="path3013" />
      <path
         d="m 791.88946,544.19183 c 0,1.0468 0.96627,2.0936 1.93255,2.0936 1.12732,0 2.09359,-1.0468 2.09359,-1.93255 0,-0.96627 -0.84549,-2.09359 -1.93255,-2.09359 -0.96627,0 -2.09359,0.96627 -2.09359,1.93254 m 3.86509,19.72809 c -0.0805,-1.20784 -0.0805,-3.22091 -0.0805,-4.42876 0,-1.20784 0,-2.4962 0.0805,-3.70404 0.0805,-1.97281 0.24157,-4.18719 0.24157,-4.18719 0,-0.16105 -0.2013,-0.28183 -0.5234,-0.28183 -1.16757,0.44288 -2.57673,0.80523 -5.35476,1.16758 -0.0805,0.24157 0,0.48314 0.0805,0.72471 2.17412,0.24156 2.49621,0.40261 2.61699,2.73777 0.0403,1.20784 0.0805,2.2949 0.0805,3.50274 0,1.20784 -0.0805,3.26118 -0.0805,4.46902 -0.12078,3.34169 -0.44288,3.46248 -2.89882,3.66379 -0.24157,0.24156 -0.24157,0.68444 0,0.92601 1.0468,-0.0805 3.18065,-0.20131 4.38849,-0.20131 1.24811,0 3.14039,0.12078 4.34824,0.20131 0.24156,-0.24157 0.24156,-0.68445 0,-0.92601 -2.45595,-0.16105 -2.77804,-0.28184 -2.89883,-3.66379"
         style=""
         id="path3015" />
      <path
         d="m 801.33391,551.8415 c -0.5234,0 -0.68445,0.24157 -0.68445,0.56366 l 0,0.36235 c 0,0.20131 0.0403,0.24157 0.20131,0.24157 l 2.25464,0 c 0,3.82483 -0.20131,9.46143 -0.20131,11.87711 0,2.73777 0.92601,3.82483 2.69751,3.82483 1.7715,0 3.70405,-0.84549 5.19372,-2.53646 -0.0805,-0.40262 -0.16104,-0.48314 -0.40261,-0.56366 -1.00653,0.76496 -2.41568,1.36888 -3.42222,1.36888 -1.04679,0 -1.20784,-1.16758 -1.28836,-3.543 -0.0805,-2.01307 0.0403,-6.84444 0.2013,-10.4277 l 3.98588,0 c 0.40262,0 0.92601,-0.12079 0.92601,-0.48314 l 0,-0.44287 c 0,-0.16105 -0.0805,-0.24157 -0.28183,-0.24157 l -4.63006,0 0.0403,-2.2949 c 0.0403,-2.49621 0.16104,-4.02614 0.16104,-4.02614 0,-0.24157 -0.12078,-0.36235 -0.28183,-0.36235 -0.28183,0 -0.88575,0.44287 -1.48967,0.68444 -0.64418,0.28183 -1.32863,0.32209 -1.32863,0.72471 0,0.44287 0.12079,1.00653 0.12079,5.27424 l -1.7715,0"
         style=""
         id="path3017" />
      <path
         d="m 816.1413,557.88071 c 0.7247,-4.34823 3.26117,-5.51581 4.71058,-5.51581 1.85202,0 3.62353,1.57019 3.62353,4.7911 0,0.36236 -0.16105,0.5234 -0.56366,0.5234 l -7.77045,0.20131 m 10.62901,6.84444 c -1.40915,1.44941 -2.73778,2.4962 -4.95216,2.4962 -1.36888,0 -3.38195,-0.80523 -4.58979,-2.77803 -0.76497,-1.24811 -1.20785,-3.18066 -1.20785,-5.39503 l 10.79006,-0.16105 c 0.44287,0 0.7247,-0.28183 0.7247,-0.68444 0,-3.22091 -1.32863,-6.76392 -6.68339,-6.76392 -3.66378,0 -7.89123,3.26118 -7.89123,9.09908 0,2.13385 0.56366,4.26771 1.81176,5.71712 1.28836,1.52993 3.30144,2.45594 6.07947,2.45594 2.89882,0 5.19372,-1.32862 6.72365,-3.34169 -0.12078,-0.40262 -0.36235,-0.60392 -0.80522,-0.64418"
         style=""
         id="path3019" />
      <path
         d="m 839.99806,559.00803 c 0.5234,0 1.08706,-0.88575 1.08706,-1.36889 0,-0.40261 -0.16105,-0.40261 -0.56366,-0.40261 l -8.81725,0 c -0.48314,0 -1.00653,0.68444 -1.00653,1.40915 0,0.40261 0.24156,0.36235 0.60392,0.36235 l 8.69646,0"
         style=""
         id="path3021" />
      <path
         d="m 847.28096,557.88071 c 0.72471,-4.34823 3.26118,-5.51581 4.71059,-5.51581 1.85202,0 3.62352,1.57019 3.62352,4.7911 0,0.36236 -0.16105,0.5234 -0.56366,0.5234 l -7.77045,0.20131 m 10.62901,6.84444 c -1.40915,1.44941 -2.73778,2.4962 -4.95215,2.4962 -1.36889,0 -3.38196,-0.80523 -4.5898,-2.77803 -0.76497,-1.24811 -1.20784,-3.18066 -1.20784,-5.39503 l 10.79005,-0.16105 c 0.44288,0 0.72471,-0.28183 0.72471,-0.68444 0,-3.22091 -1.32863,-6.76392 -6.68339,-6.76392 -3.66379,0 -7.89124,3.26118 -7.89124,9.09908 0,2.13385 0.56366,4.26771 1.81176,5.71712 1.28837,1.52993 3.30144,2.45594 6.07948,2.45594 2.89881,0 5.19372,-1.32862 6.72365,-3.34169 -0.12079,-0.40262 -0.36235,-0.60392 -0.80523,-0.64418"
         style=""
         id="path3023" />
      <path
         d="m 863.97121,564.16149 c -0.0805,3.18064 -0.44288,3.30143 -2.77804,3.42222 -0.28183,0.28182 -0.24157,0.7247 0,0.92601 1.61046,-0.0403 2.57673,-0.20131 4.22745,-0.20131 1.65071,0 2.61699,0.16105 4.26771,0.20131 0.2013,-0.20131 0.24156,-0.64419 0,-0.92601 -2.33516,-0.12079 -2.69752,-0.24158 -2.77804,-3.42222 -0.0403,-1.48967 -0.12078,-5.19373 -0.12078,-9.09908 0,-4.42875 0.0805,-9.09908 0.12078,-10.87058 0.0403,-2.4962 0.16105,-3.62352 0.16105,-3.62352 0,-0.28183 -0.16105,-0.36236 -0.5234,-0.36236 -0.96627,0.40262 -3.62353,0.88576 -5.15346,1.00654 -0.0805,0.32209 -0.12079,0.5234 0.12078,0.76497 2.01307,0.12078 2.2949,0.32209 2.45595,3.14039 0.0403,1.57019 0.0805,5.19372 0.0805,8.89776 0,4.18719 -0.0403,8.49516 -0.0805,10.14588"
         style=""
         id="path3025" />
      <path
         d="m 875.03931,557.88071 c 0.7247,-4.34823 3.26117,-5.51581 4.71058,-5.51581 1.85202,0 3.62353,1.57019 3.62353,4.7911 0,0.36236 -0.16105,0.5234 -0.56366,0.5234 l -7.77045,0.20131 m 10.62901,6.84444 c -1.40915,1.44941 -2.73778,2.4962 -4.95215,2.4962 -1.36889,0 -3.38196,-0.80523 -4.5898,-2.77803 -0.76497,-1.24811 -1.20785,-3.18066 -1.20785,-5.39503 l 10.79006,-0.16105 c 0.44287,0 0.7247,-0.28183 0.7247,-0.68444 0,-3.22091 -1.32863,-6.76392 -6.68339,-6.76392 -3.66378,0 -7.89123,3.26118 -7.89123,9.09908 0,2.13385 0.56366,4.26771 1.81176,5.71712 1.28836,1.52993 3.30144,2.45594 6.07947,2.45594 2.89882,0 5.19372,-1.32862 6.72366,-3.34169 -0.12079,-0.40262 -0.36236,-0.60392 -0.80523,-0.64418"
         style=""
         id="path3027" />
      <path
         d="m 895.2323,555.70659 c 1.52993,-1.48967 3.26117,-2.25464 4.42875,-2.25464 1.44941,0 2.49621,0.96628 2.61699,3.50275 0.0805,2.01306 0.0805,5.15346 0,7.16653 -0.16104,3.14038 -0.32209,3.30143 -2.37542,3.46248 -0.20131,0.24156 -0.20131,0.68444 0,0.92601 1.28836,-0.12079 2.57673,-0.20131 3.82483,-0.20131 1.20784,0 2.25464,0.0805 3.70405,0.20131 0.20131,-0.24157 0.20131,-0.68445 0,-0.92601 -1.93255,-0.16105 -2.17412,-0.3221 -2.2949,-3.46248 -0.0805,-2.01307 -0.0805,-4.58981 0,-6.60287 0,-0.5234 0,-1.08706 -0.0403,-1.52994 1.85202,-2.05333 3.86509,-2.53647 5.35477,-2.53647 1.4494,0 2.33516,0.88576 2.45594,3.42222 0.0805,2.01307 0.0805,5.23399 0,7.24706 -0.16105,3.14038 -0.36235,3.30143 -2.37542,3.46248 -0.20131,0.24156 -0.20131,0.68444 0,0.92601 1.00653,-0.0805 2.57673,-0.20131 3.82483,-0.20131 1.2481,0 2.85856,0.12078 3.86509,0.20131 0.20131,-0.24157 0.20131,-0.68445 0,-0.92601 -2.09359,-0.16105 -2.33516,-0.3221 -2.45594,-3.46248 -0.0805,-2.01307 -0.0805,-4.54954 0,-6.56261 0.12078,-3.38196 -0.5234,-6.11974 -3.90536,-6.11974 -1.9728,0 -4.63006,0.76497 -6.64313,2.85856 -0.12078,0.12079 -0.32209,0.28183 -0.40261,-0.0403 -0.36235,-1.57019 -1.7715,-2.8183 -3.78457,-2.8183 -2.21438,0 -4.3885,1.36889 -6.07947,3.14039 -0.12079,0.12079 -0.40262,0.36236 -0.40262,0 0,-1.16758 0.20131,-2.93908 0.20131,-2.93908 0,-0.20131 -0.16105,-0.28183 -0.48314,-0.28183 -1.08705,0.40262 -2.45595,0.72471 -5.11319,1.08706 -0.0805,0.24157 -0.0403,0.48314 0.0805,0.68444 2.09359,0.20131 2.37542,0.40262 2.4962,2.61699 0.0805,2.01307 0.0805,6.36131 0,8.37438 -0.16104,3.14038 -0.5234,3.30143 -2.61699,3.46248 -0.24156,0.24156 -0.24156,0.68444 0,0.92601 1.08706,-0.0805 2.8183,-0.20131 4.06641,-0.20131 1.08705,0 2.65725,0.12078 3.70404,0.20131 0.24157,-0.24157 0.24157,-0.68445 0,-0.92601 -1.93254,-0.20131 -2.17411,-0.3221 -2.2949,-3.46248 -0.0805,-2.01307 -0.0805,-4.79111 0,-6.80418 0,-0.80523 0.3221,-1.28837 0.64419,-1.61046"
         style=""
         id="path3029" />
      <path
         d="m 923.63606,557.88071 c 0.72471,-4.34823 3.26118,-5.51581 4.71059,-5.51581 1.85202,0 3.62352,1.57019 3.62352,4.7911 0,0.36236 -0.16104,0.5234 -0.56366,0.5234 l -7.77045,0.20131 m 10.62901,6.84444 c -1.40914,1.44941 -2.73777,2.4962 -4.95215,2.4962 -1.36888,0 -3.38196,-0.80523 -4.5898,-2.77803 -0.76496,-1.24811 -1.20784,-3.18066 -1.20784,-5.39503 l 10.79005,-0.16105 c 0.44288,0 0.72471,-0.28183 0.72471,-0.68444 0,-3.22091 -1.32863,-6.76392 -6.68339,-6.76392 -3.66379,0 -7.89124,3.26118 -7.89124,9.09908 0,2.13385 0.56366,4.26771 1.81177,5.71712 1.28836,1.52993 3.30143,2.45594 6.07947,2.45594 2.89882,0 5.19372,-1.32862 6.72365,-3.34169 -0.12078,-0.40262 -0.36235,-0.60392 -0.80523,-0.64418"
         style=""
         id="path3031" />
      <path
         d="m 943.62775,554.57927 c -0.12079,0.16105 -0.36236,0.5234 -0.36236,0 0,-1.16758 0.20131,-2.93908 0.20131,-2.93908 0,-0.20131 -0.16105,-0.28183 -0.48314,-0.28183 -1.08705,0.40262 -2.41568,0.72471 -5.07293,1.08706 -0.0805,0.24157 0,0.44288 0.0805,0.68444 2.05333,0.20131 2.41568,0.40262 2.49621,2.61699 0.0403,2.09359 0.0403,6.40157 0,8.37438 -0.0805,3.14038 -0.40262,3.26117 -2.69752,3.46248 -0.24157,0.24156 -0.24157,0.68444 0,0.92601 1.5702,-0.0403 2.49621,-0.20131 4.14693,-0.20131 1.48967,0 2.05333,0.16105 3.66378,0.20131 0.24157,-0.24157 0.24157,-0.68445 0,-0.92601 -1.9728,-0.20131 -2.21437,-0.3221 -2.2949,-3.46248 -0.0805,-1.85203 -0.12078,-5.27425 0,-7.2068 0.0403,-0.80522 0.3221,-1.2481 0.64419,-1.61045 1.44941,-1.40915 3.58326,-2.25464 5.07293,-2.25464 0.76497,0 1.61046,0.48314 2.05333,1.36889 0.40262,0.76496 0.3221,1.81176 0.40262,2.97934 0.0805,2.01307 0.0805,4.71059 0,6.72366 -0.16105,3.14038 -0.36236,3.26117 -2.37542,3.46248 -0.20131,0.24156 -0.20131,0.68444 0,0.92601 1.61045,-0.0403 2.33516,-0.20131 3.86509,-0.20131 1.57019,0 2.2949,0.16105 3.94562,0.20131 0.2013,-0.24157 0.2013,-0.68445 0,-0.92601 -2.13386,-0.20131 -2.45595,-0.3221 -2.57673,-3.46248 -0.0805,-1.97281 -0.0805,-4.18719 0,-6.20026 0,-0.60392 0.0403,-1.16758 0.0403,-1.73124 0,-1.36889 -0.16105,-2.53647 -0.76497,-3.42222 -0.64418,-0.84549 -1.93255,-1.32863 -3.26117,-1.32863 -1.89228,0 -4.3885,0.52341 -6.72365,3.14039"
         style=""
         id="path3033" />
      <path
         d="m 959.62724,551.8415 c -0.5234,0 -0.68444,0.24157 -0.68444,0.56366 l 0,0.36235 c 0,0.20131 0.0403,0.24157 0.2013,0.24157 l 2.25464,0 c 0,3.82483 -0.2013,9.46143 -0.2013,11.87711 0,2.73777 0.92601,3.82483 2.69751,3.82483 1.7715,0 3.70405,-0.84549 5.19372,-2.53646 -0.0805,-0.40262 -0.16105,-0.48314 -0.40261,-0.56366 -1.00654,0.76496 -2.41569,1.36888 -3.42222,1.36888 -1.0468,0 -1.20785,-1.16758 -1.28837,-3.543 -0.0805,-2.01307 0.0403,-6.84444 0.20131,-10.4277 l 3.98588,0 c 0.40261,0 0.92601,-0.12079 0.92601,-0.48314 l 0,-0.44287 c 0,-0.16105 -0.0805,-0.24157 -0.28183,-0.24157 l -4.63006,0 0.0403,-2.2949 c 0.0403,-2.49621 0.16105,-4.02614 0.16105,-4.02614 0,-0.24157 -0.12079,-0.36235 -0.28183,-0.36235 -0.28183,0 -0.88576,0.44287 -1.48968,0.68444 -0.64418,0.28183 -1.32862,0.32209 -1.32862,0.72471 0,0.44287 0.12078,1.00653 0.12078,5.27424 l -1.7715,0"
         style=""
         id="path3035" />
      <path
         d="m 981.76221,563.23547 c 0.16105,1.89229 0.24157,3.46249 0.24157,5.07294 0.40261,-0.0805 0.76497,-0.12078 0.96627,-0.12078 0.28183,0 0.48314,0 0.76497,0.0805 1.04679,0.28183 2.09359,0.44287 3.50274,0.44287 2.13385,0 6.11973,-1.08706 6.11973,-4.87162 0,-2.61699 -1.89228,-3.90536 -4.50927,-4.9119 -2.2949,-0.88575 -3.98588,-1.65071 -3.98588,-3.74431 0,-1.57019 1.28837,-2.85855 2.85856,-2.85855 1.40915,0 3.46248,0.5234 3.94562,3.78457 0.24156,0.2013 0.60392,0.2013 0.84548,-0.0403 0.12079,-1.36889 0.16105,-2.617 0.20131,-3.8651 -1.20784,-0.20131 -2.97934,-0.76497 -4.99241,-0.76497 -3.05987,0 -5.43529,1.65072 -5.43529,4.30797 0,2.8183 1.48967,3.94562 4.22745,5.1132 3.14038,1.36889 4.02614,2.21438 4.02614,3.8651 0,1.89228 -1.97281,3.10012 -3.38196,3.10012 -1.48967,0 -2.53647,-0.64418 -2.93908,-1.04679 -0.92601,-0.88575 -1.44941,-2.61699 -1.69098,-3.58327 -0.24157,-0.24157 -0.5234,-0.2013 -0.76497,0.0403"
         style=""
         id="path3037" />
      <path
         d="m 996.54002,560.45744 c 0,3.90535 2.617,8.25358 8.05228,8.25358 2.4559,0 4.308,-0.88575 5.6366,-2.17411 1.7312,-1.69098 2.4962,-4.10667 2.4962,-6.44182 0,-3.98588 -2.1741,-8.65621 -8.0523,-8.65621 -2.5364,0 -4.5898,1.0468 -5.99892,2.69752 -1.40915,1.65071 -2.13386,3.90536 -2.13386,6.32104 m 7.56918,-8.09254 c 3.3014,0 5.556,3.42222 5.556,8.93803 0,4.83136 -2.6975,6.48208 -4.5092,6.48208 -3.9859,0 -5.55611,-5.27424 -5.55611,-8.21332 0,-3.3417 1.04681,-7.20679 4.50931,-7.20679"
         style=""
         id="path3039" />
      <path
         d="m 1018.0969,564.16149 c -0.081,3.18064 -0.4429,3.30143 -2.7781,3.42222 -0.2818,0.28182 -0.2415,0.7247 0,0.92601 1.6105,-0.0403 2.5768,-0.20131 4.2275,-0.20131 1.6507,0 2.617,0.16105 4.2677,0.20131 0.2013,-0.20131 0.2416,-0.64419 0,-0.92601 -2.3352,-0.12079 -2.6975,-0.24158 -2.778,-3.42222 -0.04,-1.48967 -0.1208,-5.19373 -0.1208,-9.09908 0,-4.42875 0.081,-9.09908 0.1208,-10.87058 0.04,-2.4962 0.161,-3.62352 0.161,-3.62352 0,-0.28183 -0.161,-0.36236 -0.5234,-0.36236 -0.9663,0.40262 -3.6235,0.88576 -5.1534,1.00654 -0.081,0.32209 -0.1208,0.5234 0.1207,0.76497 2.0131,0.12078 2.2949,0.32209 2.456,3.14039 0.04,1.57019 0.081,5.19372 0.081,8.89776 0,4.18719 -0.04,8.49516 -0.081,10.14588"
         style=""
         id="path3041" />
      <path
         d="m 1037.2173,552.5662 c 2.0533,0.16105 2.2949,1.08706 1.4896,3.01961 l -3.1001,7.52888 c -0.7649,1.81176 -1.0468,1.81176 -1.7312,-0.12078 l -2.7781,-7.4081 c -0.6844,-1.85202 -1.3688,-2.77804 1.0066,-2.97934 0.2415,-0.24157 0.2415,-0.68445 0,-0.92602 -1.4092,0.0403 -2.6573,0.16105 -3.9054,0.16105 -1.087,0 -1.7715,-0.12079 -3.1806,-0.16105 -0.2416,0.24157 -0.2416,0.68445 0,0.92602 1.9325,0.2013 2.2949,1.28836 3.0598,3.22091 l 4.9119,12.11868 c 0.1208,0.40261 0.4832,0.80523 0.9663,0.80523 0.4026,0 0.5637,-0.0403 0.926,-0.84549 l 5.1132,-12.03816 c 0.7247,-1.69098 1.1273,-3.10013 3.2612,-3.30144 0.2416,-0.24156 0.2416,-0.68444 0,-0.92601 -0.8455,0.0403 -1.6105,0.20131 -2.617,0.20131 -1.4092,0 -2.0131,-0.16105 -3.4222,-0.20131 -0.2416,0.24157 -0.2416,0.68445 0,0.92601"
         style=""
         id="path3043" />
      <path
         d="m 1047.9589,557.88071 c 0.7247,-4.34823 3.2612,-5.51581 4.7106,-5.51581 1.852,0 3.6235,1.57019 3.6235,4.7911 0,0.36236 -0.1611,0.5234 -0.5637,0.5234 l -7.7704,0.20131 m 10.629,6.84444 c -1.4092,1.44941 -2.7378,2.4962 -4.9522,2.4962 -1.3689,0 -3.3819,-0.80523 -4.5898,-2.77803 -0.7649,-1.24811 -1.2078,-3.18066 -1.2078,-5.39503 l 10.79,-0.16105 c 0.4429,0 0.7248,-0.28183 0.7248,-0.68444 0,-3.22091 -1.3287,-6.76392 -6.6834,-6.76392 -3.6638,0 -7.8913,3.26118 -7.8913,9.09908 0,2.13385 0.5637,4.26771 1.8118,5.71712 1.2884,1.52993 3.3014,2.45594 6.0795,2.45594 2.8988,0 5.1937,-1.32862 6.7236,-3.34169 -0.1208,-0.40262 -0.3623,-0.60392 -0.8052,-0.64418"
         style=""
         id="path3045" />
      <path
         d="m 1064.9712,555.74685 c 0.081,2.05333 0.081,6.36131 0,8.37438 -0.161,3.18064 -0.4429,3.26117 -2.8183,3.46248 -0.2415,0.24156 -0.2415,0.68444 0,0.92601 1.2079,-0.0805 3.0196,-0.20131 4.2275,-0.20131 1.1675,0 3.2209,0.12078 4.5495,0.20131 0.2416,-0.24157 0.2416,-0.68445 0,-0.92601 -2.6975,-0.24157 -3.0196,-0.28184 -3.1404,-3.46248 -0.081,-2.01307 -0.04,-5.07294 0,-5.83791 0.04,-1.00653 0.5234,-2.09359 0.926,-2.77803 0.3624,-0.60392 1.3287,-2.05334 1.7715,-2.05334 0.2819,0 0.6039,0.0805 0.765,0.36236 0.2818,0.52339 0.8052,1.2481 1.6105,1.2481 0.926,0 1.8117,-0.80523 1.8117,-1.7715 0,-0.72471 -0.4429,-1.85203 -2.3351,-1.85203 -1.4897,0 -2.9794,1.28837 -4.2678,3.22092 -0.2818,0.40261 -0.322,-0.16105 -0.322,-0.36236 0,-1.2481 -0.04,-2.45594 -0.1208,-2.69751 -0.081,-0.12078 -0.1611,-0.24157 -0.4832,-0.24157 -1.087,0.40262 -2.0936,0.72471 -4.7508,1.08706 -0.081,0.24157 -0.081,0.44288 0.08,0.68444 2.0533,0.20131 2.4157,0.5234 2.4962,2.61699"
         style=""
         id="path3047" />
    </g>
  </g>
</svg>
