DBRep_DrawableShape

CASCADE Topology V1, (c) Matra-Datavision
Locations 7
1
              1               0               0               0 
              0               1               0               0 
              0               0               1               0 
1
              1               0               0               0 
              0               1               0               0 
              0               0               1               0 
2  2 -1 0
1
              1               0               0               0 
              0               1               0               0 
              0               0               1               0 
2  4 1 2 -1 0
2  2 1 4 -1 0
2  4 -1 0
Curve2ds 18
2 0 0 -1 0 0 1 4
1 0 0 1 0 
1 0 2 1 0 
1 0 0 1 0 
1 6.2831853071795862 0 0 1 
1 0 0 0 1 
1 0 2.8284271247461898 1 0 
1 0 0 1 0 
1 6.2831853071795862 0 0 1 
1 0 0 0 1 
1 0 1.1180339887498949 1 0 
1 0 0 1 0 
1 6.2831853071795862 0 0 1 
1 0 0 0 1 
1 0 15.5 1 0 
2 0 0 1 0 -0 1 1
1 6.2831853071795862 0 0 1 
1 0 0 0 1 
Curves 9
2 0 0 0 0 1 0 -1 0 0 0 -0 1 4
2 0 2 0 0 1 0 -1 0 0 0 -0 1 4
1 -4 0 0 0 1 0 
2 0 4 0 0 1 0 -1 0 0 0 -0 1 2
1 -4 2 0 0.70710678118654746 0.70710678118654746 0 
2 0 4.5 0 0 1 0 -1 0 0 0 -0 1 1
1 -2 4 0 0.89442719099991586 0.44721359549995793 0 
2 0 20 0 0 1 0 -1 0 0 0 -0 1 1
1 -1 4.5 0 0 1 0 
Polygon3D 0
PolygonOnTriangulations 18
51 1 3 4 5 6 7 8 9 10 11 12 13 14 15 16 17 18 19 20 21 22 23 24 25 26 27 28 29 30 31 32 33 34 35 36 37 38 39 40 41 42 43 44 45 46 47 48 49 50 51 2 
p 0.0621971253411305 1 0 0.125663706143592 0.251327412287183 0.376991118430775 0.502654824574367 0.628318530717959 0.75398223686155 0.879645943005142 1.00530964914873 1.13097335529233 1.25663706143592 1.38230076757951 1.5079644737231 1.63362817986669 1.75929188601028 1.88495559215388 2.01061929829747 2.13628300444106 2.26194671058465 2.38761041672824 2.51327412287183 2.63893782901543 2.76460153515902 2.89026524130261 3.0159289474462 3.14159265358979 3.26725635973338 3.39292006587698 3.51858377202057 3.64424747816416 3.76991118430775 3.89557489045134 4.02123859659493 4.14690230273853 4.27256600888212 4.39822971502571 4.5238934211693 4.64955712731289 4.77522083345649 4.90088453960008 5.02654824574367 5.15221195188726 5.27787565803085 5.40353936417445 5.52920307031804 5.65486677646163 5.78053048260522 5.90619418874881 6.03185789489241 6.157521601036 6.28318530717959 
51 1 2 3 4 5 6 7 8 9 10 11 12 13 14 15 16 17 18 19 20 21 22 23 24 25 26 27 28 29 30 31 32 33 34 35 36 37 38 39 40 41 42 43 44 45 46 47 48 49 50 1 
p 0.0621971253411305 1 0 0.125663706143592 0.251327412287183 0.376991118430775 0.502654824574367 0.628318530717959 0.75398223686155 0.879645943005142 1.00530964914873 1.13097335529233 1.25663706143592 1.38230076757951 1.5079644737231 1.63362817986669 1.75929188601028 1.88495559215388 2.01061929829747 2.13628300444106 2.26194671058465 2.38761041672824 2.51327412287183 2.63893782901543 2.76460153515902 2.89026524130261 3.0159289474462 3.14159265358979 3.26725635973338 3.39292006587698 3.51858377202057 3.64424747816416 3.76991118430775 3.89557489045134 4.02123859659493 4.14690230273853 4.27256600888212 4.39822971502571 4.5238934211693 4.64955712731289 4.77522083345649 4.90088453960008 5.02654824574367 5.15221195188726 5.27787565803085 5.40353936417445 5.52920307031804 5.65486677646163 5.78053048260522 5.90619418874881 6.03185789489241 6.157521601036 6.28318530717959 
51 1 3 4 5 6 7 8 9 10 11 12 13 14 15 16 17 18 19 20 21 22 23 24 25 26 27 28 29 30 31 32 33 34 35 36 37 38 39 40 41 42 43 44 45 46 47 48 49 50 51 2 
p 0.0621971253411305 1 0 0.125663706143592 0.251327412287183 0.376991118430775 0.502654824574367 0.628318530717959 0.75398223686155 0.879645943005142 1.00530964914873 1.13097335529233 1.25663706143592 1.38230076757951 1.5079644737231 1.63362817986669 1.75929188601028 1.88495559215388 2.01061929829747 2.13628300444106 2.26194671058465 2.38761041672824 2.51327412287183 2.63893782901543 2.76460153515902 2.89026524130261 3.0159289474462 3.14159265358979 3.26725635973338 3.39292006587698 3.51858377202057 3.64424747816416 3.76991118430775 3.89557489045134 4.02123859659493 4.14690230273853 4.27256600888212 4.39822971502571 4.5238934211693 4.64955712731289 4.77522083345649 4.90088453960008 5.02654824574367 5.15221195188726 5.27787565803085 5.40353936417445 5.52920307031804 5.65486677646163 5.78053048260522 5.90619418874881 6.03185789489241 6.157521601036 6.28318530717959 
51 52 54 55 56 57 58 59 60 61 62 63 64 65 66 67 68 69 70 71 72 73 74 75 76 77 78 79 80 81 82 83 84 85 86 87 88 89 90 91 92 93 94 95 96 97 98 99 100 101 102 53 
p 0.0621971253411305 1 0 0.125663706143592 0.251327412287183 0.376991118430775 0.502654824574367 0.628318530717959 0.75398223686155 0.879645943005142 1.00530964914873 1.13097335529233 1.25663706143592 1.38230076757951 1.5079644737231 1.63362817986669 1.75929188601028 1.88495559215388 2.01061929829747 2.13628300444106 2.26194671058465 2.38761041672824 2.51327412287183 2.63893782901543 2.76460153515902 2.89026524130261 3.0159289474462 3.14159265358979 3.26725635973338 3.39292006587698 3.51858377202057 3.64424747816416 3.76991118430775 3.89557489045134 4.02123859659493 4.14690230273853 4.27256600888212 4.39822971502571 4.5238934211693 4.64955712731289 4.77522083345649 4.90088453960008 5.02654824574367 5.15221195188726 5.27787565803085 5.40353936417445 5.52920307031804 5.65486677646163 5.78053048260522 5.90619418874881 6.03185789489241 6.157521601036 6.28318530717959 
2 2 53 
p 0.0621971253411305 1 0 2 
2 1 52 
p 0.0621971253411305 1 0 2 
26 52 54 55 56 57 58 59 60 61 62 63 64 65 66 67 68 69 70 71 72 73 74 75 76 77 53 
p 0.0621971253411305 1 0 0.251327412287183 0.502654824574367 0.75398223686155 1.00530964914873 1.25663706143592 1.5079644737231 1.75929188601028 2.01061929829747 2.26194671058465 2.51327412287183 2.76460153515902 3.0159289474462 3.26725635973338 3.51858377202057 3.76991118430775 4.02123859659493 4.27256600888212 4.5238934211693 4.77522083345649 5.02654824574367 5.27787565803085 5.52920307031804 5.78053048260522 6.03185789489241 6.28318530717959 
26 1 3 4 5 6 7 8 9 10 11 12 13 14 15 16 17 18 19 20 21 22 23 24 25 26 2 
p 0.0621971253411305 1 0 0.251327412287183 0.502654824574367 0.75398223686155 1.00530964914873 1.25663706143592 1.5079644737231 1.75929188601028 2.01061929829747 2.26194671058465 2.51327412287183 2.76460153515902 3.0159289474462 3.26725635973338 3.51858377202057 3.76991118430775 4.02123859659493 4.27256600888212 4.5238934211693 4.77522083345649 5.02654824574367 5.27787565803085 5.52920307031804 5.78053048260522 6.03185789489241 6.28318530717959 
2 2 53 
p 0.0621971253411305 1 0 2.82842712474619 
2 1 52 
p 0.0621971253411305 1 0 2.82842712474619 
26 27 29 30 31 32 33 34 35 36 37 38 39 40 41 42 43 44 45 46 47 48 49 50 51 52 28 
p 0.0621971253411305 1 0 0.251327412287183 0.502654824574367 0.75398223686155 1.00530964914873 1.25663706143592 1.5079644737231 1.75929188601028 2.01061929829747 2.26194671058465 2.51327412287183 2.76460153515902 3.0159289474462 3.26725635973338 3.51858377202057 3.76991118430775 4.02123859659493 4.27256600888212 4.5238934211693 4.77522083345649 5.02654824574367 5.27787565803085 5.52920307031804 5.78053048260522 6.03185789489241 6.28318530717959 
26 1 3 4 5 6 7 8 9 10 11 12 13 14 15 16 17 18 19 20 21 22 23 24 25 26 2 
p 0.0621971253411305 1 0 0.251327412287183 0.502654824574367 0.75398223686155 1.00530964914873 1.25663706143592 1.5079644737231 1.75929188601028 2.01061929829747 2.26194671058465 2.51327412287183 2.76460153515902 3.0159289474462 3.26725635973338 3.51858377202057 3.76991118430775 4.02123859659493 4.27256600888212 4.5238934211693 4.77522083345649 5.02654824574367 5.27787565803085 5.52920307031804 5.78053048260522 6.03185789489241 6.28318530717959 
2 2 28 
p 0.0621971253411305 1 0 1.11803398874989 
2 1 27 
p 0.0621971253411305 1 0 1.11803398874989 
26 27 29 30 31 32 33 34 35 36 37 38 39 40 41 42 43 44 45 46 47 48 49 50 51 52 28 
p 0.0621971253411305 1 0 0.251327412287183 0.502654824574367 0.75398223686155 1.00530964914873 1.25663706143592 1.5079644737231 1.75929188601028 2.01061929829747 2.26194671058465 2.51327412287183 2.76460153515902 3.0159289474462 3.26725635973338 3.51858377202057 3.76991118430775 4.02123859659493 4.27256600888212 4.5238934211693 4.77522083345649 5.02654824574367 5.27787565803085 5.52920307031804 5.78053048260522 6.03185789489241 6.28318530717959 
26 1 2 3 4 5 6 7 8 9 10 11 12 13 14 15 16 17 18 19 20 21 22 23 24 25 1 
p 0.0621971253411305 1 0 0.251327412287183 0.502654824574367 0.75398223686155 1.00530964914873 1.25663706143592 1.5079644737231 1.75929188601028 2.01061929829747 2.26194671058465 2.51327412287183 2.76460153515902 3.0159289474462 3.26725635973338 3.51858377202057 3.76991118430775 4.02123859659493 4.27256600888212 4.5238934211693 4.77522083345649 5.02654824574367 5.27787565803085 5.52920307031804 5.78053048260522 6.03185789489241 6.28318530717959 
2 2 28 
p 0.0621971253411305 1 0 15.5 
2 1 27 
p 0.0621971253411305 1 0 15.5 
Surfaces 6
1 0 0 0 0 1 0 1 -0 -0 0 -0 1 
2 0 0 0 0 1 0 -1 0 0 0 -0 1 4
3 0 2 0 0 1 0 -1 0 0 0 -0 1 4
-0.78539816339744828
3 0 4 0 0 1 0 -1 0 0 0 -0 1 2
-1.1071487177940904
2 0 4.5 0 0 1 0 -1 0 0 0 -0 1 1
1 0 20 0 0 1 0 -1 0 0 0 -0 1 
Triangulations 6
50 48 1 4.44089209850063e-16
-4 0 0 -3.96845880525791 0 0.501332934257217 -3.87433264451452 0 0.994759548659419 -3.71910594355301 0 1.47249821073871 -3.50522672017545 0 1.92701469640686 -3.23606797749979 0 2.35114100916989 -2.91587450968565 0 2.73818842371475 -2.54969595899476 0 3.08205297110316 -2.14330717991599 0 3.37731170200806 -1.70311716626029 0 3.61930820986408 -1.23606797749979 0 3.80422606518061 -0.749525258342899 0 3.92914900291475 -0.251162078117254 0 3.99210691371309 0.251162078117253 0 3.99210691371309 0.749525258342898 0 3.92914900291475 1.23606797749979 0 3.80422606518061 1.70311716626029 0 3.61930820986408 2.14330717991598 0 3.37731170200806 2.54969595899476 0 3.08205297110316 2.91587450968565 0 2.73818842371476 3.23606797749979 0 2.35114100916989 3.50522672017545 0 1.92701469640686 3.719105943553 0 1.47249821073871 3.87433264451452 0 0.994759548659421 3.96845880525791 0 0.50133293425722 4 0 4.04257239845944e-15 3.96845880525791 0 -0.501332934257214 3.87433264451453 0 -0.994759548659417 3.71910594355301 0 -1.47249821073871 3.50522672017546 0 -1.92701469640686 3.23606797749979 0 -2.35114100916989 2.91587450968565 0 -2.73818842371475 2.54969595899476 0 -3.08205297110316 2.14330717991599 0 -3.37731170200806 1.70311716626029 0 -3.61930820986408 1.23606797749979 0 -3.80422606518061 0.749525258342899 0 -3.92914900291475 0.251162078117253 0 -3.99210691371309 -0.251162078117255 0 -3.99210691371309 -0.749525258342901 0 -3.92914900291475 -1.23606797749979 0 -3.80422606518061 -1.70311716626029 0 -3.61930820986408 -2.14330717991599 0 -3.37731170200806 -2.54969595899476 0 -3.08205297110315 -2.91587450968565 0 -2.73818842371475 -3.23606797749979 0 -2.35114100916989 -3.50522672017546 0 -1.92701469640686 -3.71910594355301 0 -1.4724982107387 -3.87433264451453 0 -0.994759548659411 -3.96845880525791 0 -0.501332934257215 -4 -8.88178419700125e-16 -3.96845880525791 0.501332934257217 -3.87433264451452 0.994759548659419 -3.71910594355301 1.47249821073871 -3.50522672017545 1.92701469640686 -3.23606797749979 2.35114100916989 -2.91587450968565 2.73818842371475 -2.54969595899476 3.08205297110316 -2.14330717991599 3.37731170200806 -1.70311716626029 3.61930820986408 -1.23606797749979 3.80422606518061 -0.749525258342899 3.92914900291475 -0.251162078117254 3.99210691371309 0.251162078117253 3.99210691371309 0.749525258342898 3.92914900291475 1.23606797749979 3.80422606518061 1.70311716626029 3.61930820986408 2.14330717991598 3.37731170200806 2.54969595899476 3.08205297110316 2.91587450968565 2.73818842371476 3.23606797749979 2.35114100916989 3.50522672017545 1.92701469640686 3.719105943553 1.47249821073871 3.87433264451452 0.994759548659421 3.96845880525791 0.50133293425722 4 3.99680288865056e-15 3.96845880525791 -0.501332934257213 3.87433264451453 -0.994759548659417 3.71910594355301 -1.47249821073871 3.50522672017546 -1.92701469640686 3.23606797749979 -2.35114100916989 2.91587450968565 -2.73818842371475 2.54969595899476 -3.08205297110316 2.14330717991599 -3.37731170200806 1.70311716626029 -3.61930820986408 1.23606797749979 -3.80422606518061 0.749525258342898 -3.92914900291475 0.251162078117253 -3.99210691371309 -0.251162078117255 -3.99210691371309 -0.749525258342901 -3.92914900291475 -1.23606797749979 -3.80422606518061 -1.70311716626029 -3.61930820986408 -2.14330717991599 -3.37731170200806 -2.54969595899476 -3.08205297110315 -2.91587450968565 -2.73818842371475 -3.23606797749979 -2.35114100916989 -3.50522672017546 -1.92701469640686 -3.71910594355301 -1.4724982107387 -3.87433264451453 -0.994759548659411 -3.96845880525791 -0.501332934257215 26 11 27 25 11 26 15 12 11 15 13 12 15 14 13 15 11 25 42 44 43 23 16 15 23 25 24 48 46 45 23 15 25 48 47 46 41 45 44 22 16 23 41 44 42 18 17 16 21 16 22 19 18 16 19 16 21 20 19 21 38 40 39 38 41 40 38 49 48 38 50 49 38 48 45 38 45 41 37 50 38 3 2 1 3 1 50 36 50 37 4 3 50 35 50 36 8 7 6 31 5 4 31 6 5 31 33 32 31 34 33 31 35 34 31 4 50 31 50 35 29 8 6 29 9 8 29 31 30 29 6 31 11 10 9 11 9 29 28 11 29 27 11 28 
102 100 1 0.00789308628691402
-4 0 0 -4 0 0 -3.96845880525791 0 0.501332934257217 -3.87433264451452 0 0.994759548659419 -3.71910594355301 0 1.47249821073871 -3.50522672017545 0 1.92701469640686 -3.23606797749979 0 2.35114100916989 -2.91587450968565 0 2.73818842371475 -2.54969595899476 0 3.08205297110316 -2.14330717991599 0 3.37731170200806 -1.70311716626029 0 3.61930820986408 -1.23606797749979 0 3.80422606518061 -0.749525258342899 0 3.92914900291475 -0.251162078117254 0 3.99210691371309 0.251162078117253 0 3.99210691371309 0.749525258342898 0 3.92914900291475 1.23606797749979 0 3.80422606518061 1.70311716626029 0 3.61930820986408 2.14330717991598 0 3.37731170200806 2.54969595899476 0 3.08205297110316 2.91587450968565 0 2.73818842371476 3.23606797749979 0 2.35114100916989 3.50522672017545 0 1.92701469640686 3.719105943553 0 1.47249821073871 3.87433264451452 0 0.994759548659421 3.96845880525791 0 0.50133293425722 4 0 4.04257239845944e-15 3.96845880525791 0 -0.501332934257214 3.87433264451453 0 -0.994759548659417 3.71910594355301 0 -1.47249821073871 3.50522672017546 0 -1.92701469640686 3.23606797749979 0 -2.35114100916989 2.91587450968565 0 -2.73818842371475 2.54969595899476 0 -3.08205297110316 2.14330717991599 0 -3.37731170200806 1.70311716626029 0 -3.61930820986408 1.23606797749979 0 -3.80422606518061 0.749525258342899 0 -3.92914900291475 0.251162078117253 0 -3.99210691371309 -0.251162078117255 0 -3.99210691371309 -0.749525258342901 0 -3.92914900291475 -1.23606797749979 0 -3.80422606518061 -1.70311716626029 0 -3.61930820986408 -2.14330717991599 0 -3.37731170200806 -2.54969595899476 0 -3.08205297110315 -2.91587450968565 0 -2.73818842371475 -3.23606797749979 0 -2.35114100916989 -3.50522672017546 0 -1.92701469640686 -3.71910594355301 0 -1.4724982107387 -3.87433264451453 0 -0.994759548659411 -3.96845880525791 0 -0.501332934257215 -4 2 0 -4 2 0 -3.96845880525791 2 0.501332934257217 -3.87433264451452 2 0.994759548659419 -3.71910594355301 2 1.47249821073871 -3.50522672017545 2 1.92701469640686 -3.23606797749979 2 2.35114100916989 -2.91587450968565 2 2.73818842371475 -2.54969595899476 2 3.08205297110316 -2.14330717991599 2 3.37731170200806 -1.70311716626029 2 3.61930820986408 -1.23606797749979 2 3.80422606518061 -0.749525258342899 2 3.92914900291475 -0.251162078117254 2 3.99210691371309 0.251162078117253 2 3.99210691371309 0.749525258342898 2 3.92914900291475 1.23606797749979 2 3.80422606518061 1.70311716626029 2 3.61930820986408 2.14330717991598 2 3.37731170200806 2.54969595899476 2 3.08205297110316 2.91587450968565 2 2.73818842371476 3.23606797749979 2 2.35114100916989 3.50522672017545 2 1.92701469640686 3.719105943553 2 1.47249821073871 3.87433264451452 2 0.994759548659421 3.96845880525791 2 0.50133293425722 4 2 4.04257239845944e-15 3.96845880525791 2 -0.501332934257214 3.87433264451453 2 -0.994759548659417 3.71910594355301 2 -1.47249821073871 3.50522672017546 2 -1.92701469640686 3.23606797749979 2 -2.35114100916989 2.91587450968565 2 -2.73818842371475 2.54969595899476 2 -3.08205297110316 2.14330717991599 2 -3.37731170200806 1.70311716626029 2 -3.61930820986408 1.23606797749979 2 -3.80422606518061 0.749525258342899 2 -3.92914900291475 0.251162078117253 2 -3.99210691371309 -0.251162078117255 2 -3.99210691371309 -0.749525258342901 2 -3.92914900291475 -1.23606797749979 2 -3.80422606518061 -1.70311716626029 2 -3.61930820986408 -2.14330717991599 2 -3.37731170200806 -2.54969595899476 2 -3.08205297110315 -2.91587450968565 2 -2.73818842371475 -3.23606797749979 2 -2.35114100916989 -3.50522672017546 2 -1.92701469640686 -3.71910594355301 2 -1.4724982107387 -3.87433264451453 2 -0.994759548659411 -3.96845880525791 2 -0.501332934257215 0 0 6.28318530717959 0 0.125663706143592 0 0.251327412287183 0 0.376991118430775 0 0.502654824574367 0 0.628318530717959 0 0.753982236861551 0 0.879645943005142 0 1.00530964914873 0 1.13097335529233 0 1.25663706143592 0 1.38230076757951 0 1.5079644737231 0 1.63362817986669 0 1.75929188601028 0 1.88495559215388 0 2.01061929829747 0 2.13628300444106 0 2.26194671058465 0 2.38761041672824 0 2.51327412287183 0 2.63893782901543 0 2.76460153515902 0 2.89026524130261 0 3.0159289474462 0 3.14159265358979 0 3.26725635973338 0 3.39292006587698 0 3.51858377202057 0 3.64424747816416 0 3.76991118430775 0 3.89557489045134 0 4.02123859659493 0 4.14690230273853 0 4.27256600888212 0 4.39822971502571 0 4.5238934211693 0 4.64955712731289 0 4.77522083345649 0 4.90088453960008 0 5.02654824574367 0 5.15221195188726 0 5.27787565803085 0 5.40353936417445 0 5.52920307031804 0 5.65486677646163 0 5.78053048260522 0 5.90619418874881 0 6.03185789489241 0 6.157521601036 0 0 2 6.28318530717959 2 0.125663706143592 2 0.251327412287183 2 0.376991118430775 2 0.502654824574367 2 0.628318530717959 2 0.753982236861551 2 0.879645943005142 2 1.00530964914873 2 1.13097335529233 2 1.25663706143592 2 1.38230076757951 2 1.5079644737231 2 1.63362817986669 2 1.75929188601028 2 1.88495559215388 2 2.01061929829747 2 2.13628300444106 2 2.26194671058465 2 2.38761041672824 2 2.51327412287183 2 2.63893782901543 2 2.76460153515902 2 2.89026524130261 2 3.0159289474462 2 3.14159265358979 2 3.26725635973338 2 3.39292006587698 2 3.51858377202057 2 3.64424747816416 2 3.76991118430775 2 3.89557489045134 2 4.02123859659493 2 4.14690230273853 2 4.27256600888212 2 4.39822971502571 2 4.5238934211693 2 4.64955712731289 2 4.77522083345649 2 4.90088453960008 2 5.02654824574367 2 5.15221195188726 2 5.27787565803085 2 5.40353936417445 2 5.52920307031804 2 5.65486677646163 2 5.78053048260522 2 5.90619418874881 2 6.03185789489241 2 6.157521601036 2 54 52 1 54 1 3 54 3 4 55 4 5 55 54 4 56 55 5 57 5 6 57 6 7 57 56 5 58 7 8 58 57 7 59 8 9 59 58 8 60 59 9 61 9 10 61 10 11 61 60 9 62 11 12 62 61 11 63 62 12 64 12 13 64 13 14 64 63 12 65 64 14 66 14 15 66 15 16 66 65 14 67 16 17 67 66 16 68 17 18 68 67 17 69 68 18 70 18 19 70 19 20 70 69 18 71 20 21 71 70 20 72 21 22 72 71 21 73 72 22 74 22 23 74 23 24 74 73 22 75 74 24 76 24 25 76 75 24 77 25 26 77 26 27 77 76 25 78 77 27 78 27 28 79 78 28 79 28 29 80 79 29 80 29 30 81 80 30 81 30 31 82 81 31 82 31 32 83 82 32 83 32 33 84 33 34 84 83 33 85 34 35 85 84 34 86 35 36 86 85 35 87 36 37 87 86 36 88 37 38 88 87 37 89 38 39 89 88 38 90 39 40 90 89 39 91 40 41 91 90 40 92 41 42 92 91 41 93 42 43 93 92 42 94 43 44 94 93 43 95 44 45 95 94 44 96 95 45 97 45 46 97 46 47 97 96 45 98 47 48 98 97 47 99 48 49 99 98 48 100 49 50 100 99 49 101 50 51 101 100 50 102 101 51 53 102 51 53 51 2 
108 137 1 0.0304034228801691
-4 2 0 -4 2 0 -3.96845880525791 2 0.501332934257217 -3.87433264451452 2 0.994759548659419 -3.71910594355301 2 1.47249821073871 -3.50522672017545 2 1.92701469640686 -3.23606797749979 2 2.35114100916989 -2.91587450968565 2 2.73818842371475 -2.54969595899476 2 3.08205297110316 -2.14330717991599 2 3.37731170200806 -1.70311716626029 2 3.61930820986408 -1.23606797749979 2 3.80422606518061 -0.749525258342899 2 3.92914900291475 -0.251162078117254 2 3.99210691371309 0.251162078117253 2 3.99210691371309 0.749525258342898 2 3.92914900291475 1.23606797749979 2 3.80422606518061 1.70311716626029 2 3.61930820986408 2.14330717991598 2 3.37731170200806 2.54969595899476 2 3.08205297110316 2.91587450968565 2 2.73818842371476 3.23606797749979 2 2.35114100916989 3.50522672017545 2 1.92701469640686 3.719105943553 2 1.47249821073871 3.87433264451452 2 0.994759548659421 3.96845880525791 2 0.50133293425722 4 2 4.04257239845944e-15 3.96845880525791 2 -0.501332934257214 3.87433264451453 2 -0.994759548659417 3.71910594355301 2 -1.47249821073871 3.50522672017546 2 -1.92701469640686 3.23606797749979 2 -2.35114100916989 2.91587450968565 2 -2.73818842371475 2.54969595899476 2 -3.08205297110316 2.14330717991599 2 -3.37731170200806 1.70311716626029 2 -3.61930820986408 1.23606797749979 2 -3.80422606518061 0.749525258342899 2 -3.92914900291475 0.251162078117253 2 -3.99210691371309 -0.251162078117255 2 -3.99210691371309 -0.749525258342901 2 -3.92914900291475 -1.23606797749979 2 -3.80422606518061 -1.70311716626029 2 -3.61930820986408 -2.14330717991599 2 -3.37731170200806 -2.54969595899476 2 -3.08205297110315 -2.91587450968565 2 -2.73818842371475 -3.23606797749979 2 -2.35114100916989 -3.50522672017546 2 -1.92701469640686 -3.71910594355301 2 -1.4724982107387 -3.87433264451453 2 -0.994759548659411 -3.96845880525791 2 -0.501332934257215 -2 4 0 -2 4 0 -1.93716632225726 4 0.49737977432971 -1.75261336008773 4 0.963507348203431 -1.45793725484282 4 1.36909421185738 -1.07165358995799 4 1.68865585100403 -0.618033988749895 4 1.90211303259031 -0.125581039058627 4 1.99605345685654 0.374762629171449 4 1.96457450145738 0.851558583130145 4 1.80965410493204 1.27484797949738 4 1.54102648555158 1.61803398874989 4 1.17557050458495 1.8595529717765 4 0.736249105369357 1.98422940262896 4 0.25066646712861 1.98422940262896 4 -0.250666467128607 1.8595529717765 4 -0.736249105369354 1.6180339887499 4 -1.17557050458494 1.27484797949738 4 -1.54102648555158 0.851558583130146 4 -1.80965410493204 0.374762629171449 4 -1.96457450145738 -0.125581039058627 4 -1.99605345685654 -0.618033988749896 4 -1.90211303259031 -1.071653589958 4 -1.68865585100403 -1.45793725484282 4 -1.36909421185738 -1.75261336008773 4 -0.963507348203428 -1.93716632225726 4 -0.497379774329706 -2.81907786235773 3 1.02606042997701 -2.29813332935693 3 1.92836282905962 -1.5 3 2.59807621135332 -0.520944533000791 3 2.95442325903662 0.520944533000791 3 2.95442325903662 1.5 3 2.59807621135332 2.29813332935693 3 1.92836282905962 2.81907786235772 3 1.02606042997701 3 3 3.67394039744206e-16 2.81907786235773 3 -1.02606042997701 2.29813332935693 3 -1.92836282905962 1.5 3 -2.59807621135332 0.520944533000794 3 -2.95442325903662 -0.520944533000787 3 -2.95442325903662 -1.5 3 -2.59807621135332 -2.29813332935693 3 -1.92836282905962 -2.81907786235772 3 -1.02606042997701 -3.44682713554273 2.5 0.607768621834256 -2.46201938253052 3.5 0.434120444167326 -1.55286945069578 3.5 1.9592336433146 -0.195375267476074 2.5 3.49454267463693 0.755924726876111 3.5 2.38297666948237 2.20736898214732 3.5 1.17367890696473 2.20736898214732 3.5 -1.17367890696473 -0.195375267476073 2.5 -3.49454267463693 0.755924726876113 3.5 -2.38297666948237 -1.55286945069578 3.5 -1.9592336433146 -3.44682713554273 2.5 -0.607768621834263 -2.46201938253052 3.5 -0.43412044416733 -2.7395354197523 3.25 0.23967829255606 -3.23763276879817 2.75 -0.283256163929895 0 0 6.28318530717959 0 0.125663706143592 0 0.251327412287183 0 0.376991118430775 0 0.502654824574367 0 0.628318530717959 0 0.75398223686155 0 0.879645943005142 0 1.00530964914873 0 1.13097335529233 0 1.25663706143592 0 1.38230076757951 0 1.5079644737231 0 1.63362817986669 0 1.75929188601028 0 1.88495559215388 0 2.01061929829747 0 2.13628300444106 0 2.26194671058465 0 2.38761041672824 0 2.51327412287183 0 2.63893782901543 0 2.76460153515902 0 2.89026524130261 0 3.0159289474462 0 3.14159265358979 0 3.26725635973338 0 3.39292006587698 0 3.51858377202057 0 3.64424747816416 0 3.76991118430775 0 3.89557489045134 0 4.02123859659493 0 4.14690230273853 0 4.27256600888212 0 4.39822971502571 0 4.5238934211693 0 4.64955712731289 0 4.77522083345649 0 4.90088453960008 0 5.02654824574367 0 5.15221195188726 0 5.27787565803085 0 5.40353936417445 0 5.52920307031804 0 5.65486677646163 0 5.78053048260522 0 5.90619418874881 0 6.0318578948924 0 6.157521601036 0 0 2.82842712474619 6.28318530717959 2.82842712474619 0.251327412287183 2.82842712474619 0.502654824574367 2.82842712474619 0.75398223686155 2.82842712474619 1.00530964914873 2.82842712474619 1.25663706143592 2.82842712474619 1.5079644737231 2.82842712474619 1.75929188601028 2.82842712474619 2.01061929829747 2.82842712474619 2.26194671058465 2.82842712474619 2.51327412287183 2.82842712474619 2.76460153515902 2.82842712474619 3.0159289474462 2.82842712474619 3.26725635973338 2.82842712474619 3.51858377202057 2.82842712474619 3.76991118430775 2.82842712474619 4.02123859659493 2.82842712474619 4.27256600888212 2.82842712474619 4.5238934211693 2.82842712474619 4.77522083345649 2.82842712474619 5.02654824574367 2.82842712474619 5.27787565803085 2.82842712474619 5.52920307031804 2.82842712474619 5.78053048260522 2.82842712474619 6.0318578948924 2.82842712474619 0.349065850398866 1.41421356237309 0.698131700797732 1.41421356237309 1.0471975511966 1.41421356237309 1.39626340159546 1.41421356237309 1.74532925199433 1.41421356237309 2.0943951023932 1.41421356237309 2.44346095279206 1.41421356237309 2.79252680319093 1.41421356237309 3.14159265358979 1.41421356237309 3.49065850398866 1.41421356237309 3.83972435438753 1.41421356237309 4.18879020478639 1.41421356237309 4.53785605518526 1.41421356237309 4.88692190558412 1.41421356237309 5.23598775598299 1.41421356237309 5.58505360638185 1.41421356237309 5.93411945678072 1.41421356237309 0.174532925199433 0.707106781186547 0.174532925199433 2.12132034355964 0.900589894029074 2.12132034355964 1.51494579073108 0.707106781186547 1.8779742751459 2.12132034355964 2.65290046303138 2.12132034355964 3.6302848441482 2.12132034355964 4.76823951644851 0.707106781186547 4.40521103203369 2.12132034355964 5.38259541315051 2.12132034355964 6.10865238198015 0.707106781186547 6.10865238198015 2.12132034355964 0.0872664625997165 1.76776695296637 6.19591884457987 1.06066017177982 87 30 31 87 66 86 88 31 32 88 32 33 88 33 34 88 87 31 88 69 68 89 88 34 89 34 35 89 35 36 89 36 37 89 70 69 89 69 88 90 89 37 90 37 38 91 72 90 91 73 72 92 42 43 92 43 44 92 44 45 92 73 91 92 91 42 93 45 46 93 46 47 93 47 48 93 76 75 93 92 45 94 48 49 94 76 93 94 93 48 95 1 3 95 3 4 95 4 5 95 5 78 96 78 55 96 54 52 96 55 54 97 56 79 97 57 56 97 58 57 97 79 80 97 80 58 98 12 13 98 13 14 98 14 15 98 15 16 98 82 81 98 16 82 78 5 6 98 81 12 99 59 82 99 60 59 99 61 60 99 83 61 99 82 83 100 63 84 100 84 85 100 64 63 79 6 7 100 65 64 79 55 78 100 85 65 79 7 8 101 66 87 79 8 9 101 87 88 101 88 68 101 67 66 101 68 67 79 56 55 102 38 39 102 39 40 102 40 41 79 78 6 102 41 42 80 9 10 102 90 38 80 10 11 102 91 90 80 11 12 102 42 91 103 90 72 103 70 89 80 79 9 103 71 70 103 72 71 103 89 90 104 74 73 104 75 74 104 73 92 104 92 93 104 93 75 105 94 49 105 49 50 105 50 51 105 51 2 81 80 12 81 59 58 106 76 94 81 58 80 106 77 76 82 59 81 106 53 77 82 16 17 107 1 95 107 96 52 107 78 96 107 95 78 107 52 1 108 106 94 108 53 106 83 17 18 108 2 53 83 18 19 108 94 105 83 19 20 108 105 2 83 62 61 83 82 17 84 20 21 84 21 22 84 22 23 84 63 62 84 83 20 84 62 83 85 84 23 85 23 24 85 24 25 85 25 26 86 26 27 86 27 28 86 66 65 86 85 26 86 65 85 87 86 28 87 28 29 87 29 30 
68 82 1 0.0457215536320706
-2 4 0 -2 4 0 -1.93716632225726 4 0.49737977432971 -1.75261336008773 4 0.963507348203431 -1.45793725484282 4 1.36909421185738 -1.07165358995799 4 1.68865585100403 -0.618033988749895 4 1.90211303259031 -0.125581039058627 4 1.99605345685654 0.374762629171449 4 1.96457450145738 0.851558583130145 4 1.80965410493204 1.27484797949738 4 1.54102648555158 1.61803398874989 4 1.17557050458495 1.8595529717765 4 0.736249105369357 1.98422940262896 4 0.25066646712861 1.98422940262896 4 -0.250666467128607 1.8595529717765 4 -0.736249105369354 1.6180339887499 4 -1.17557050458494 1.27484797949738 4 -1.54102648555158 0.851558583130146 4 -1.80965410493204 0.374762629171449 4 -1.96457450145738 -0.125581039058627 4 -1.99605345685654 -0.618033988749896 4 -1.90211303259031 -1.071653589958 4 -1.68865585100403 -1.45793725484282 4 -1.36909421185738 -1.75261336008773 4 -0.963507348203428 -1.93716632225726 4 -0.497379774329706 -1 4.5 0 -1 4.5 0 -0.968583161128631 4.5 0.248689887164855 -0.876306680043864 4.5 0.481753674101715 -0.728968627421412 4.5 0.684547105928689 -0.535826794978997 4.5 0.844327925502015 -0.309016994374947 4.5 0.951056516295154 -0.0627905195293135 4.5 0.998026728428272 0.187381314585724 4.5 0.982287250728689 0.425779291565072 4.5 0.90482705246602 0.637423989748689 4.5 0.770513242775789 0.809016994374947 4.5 0.587785252292474 0.929776485888251 4.5 0.368124552684679 0.992114701314478 4.5 0.125333233564305 0.992114701314478 4.5 -0.125333233564303 0.929776485888252 4.5 -0.368124552684677 0.809016994374948 4.5 -0.587785252292472 0.63742398974869 4.5 -0.770513242775789 0.425779291565073 4.5 -0.904827052466019 0.187381314585725 4.5 -0.982287250728689 -0.0627905195293137 4.5 -0.998026728428272 -0.309016994374948 4.5 -0.951056516295153 -0.535826794978998 4.5 -0.844327925502015 -0.728968627421412 4.5 -0.684547105928688 -0.876306680043864 4.5 -0.481753674101714 -0.968583161128632 4.5 -0.248689887164853 -1.32818403847981 4.25 0.697084758065653 -0.852097120096734 4.25 1.23447579884048 -0.180805020382985 4.25 1.48906331114708 0.531907330563803 4.25 1.40252436402812 1.12276612225665 4.25 0.994683987361193 1.45641272613908 4.25 0.358973496431337 1.45641272613908 4.25 -0.358973496431336 1.12276612225665 4.25 -0.994683987361192 0.531907330563804 4.25 -1.40252436402812 -0.180805020382983 4.25 -1.48906331114708 -0.852097120096732 4.25 -1.23447579884049 -1.32818403847981 4.25 -0.697084758065655 -1.69914818049559 4.125 0.418802412503226 -1.21367727178257 4.375 0.299144580359447 -1.69914818049559 4.125 -0.418802412503228 -1.21367727178256 4.375 -0.299144580359448 0 0 6.28318530717959 0 0.251327412287183 0 0.502654824574367 0 0.75398223686155 0 1.00530964914873 0 1.25663706143592 0 1.5079644737231 0 1.75929188601028 0 2.01061929829747 0 2.26194671058465 0 2.51327412287183 0 2.76460153515902 0 3.0159289474462 0 3.26725635973338 0 3.51858377202057 0 3.76991118430775 0 4.02123859659493 0 4.27256600888212 0 4.5238934211693 0 4.77522083345649 0 5.02654824574367 0 5.27787565803085 0 5.52920307031804 0 5.78053048260522 0 6.03185789489241 0 0 1.11803398874989 6.28318530717959 1.11803398874989 0.251327412287183 1.11803398874989 0.502654824574367 1.11803398874989 0.75398223686155 1.11803398874989 1.00530964914873 1.11803398874989 1.25663706143592 1.11803398874989 1.5079644737231 1.11803398874989 1.75929188601028 1.11803398874989 2.01061929829747 1.11803398874989 2.26194671058465 1.11803398874989 2.51327412287183 1.11803398874989 2.76460153515902 1.11803398874989 3.0159289474462 1.11803398874989 3.26725635973338 1.11803398874989 3.51858377202057 1.11803398874989 3.76991118430775 1.11803398874989 4.02123859659493 1.11803398874989 4.27256600888212 1.11803398874989 4.5238934211693 1.11803398874989 4.77522083345649 1.11803398874989 5.02654824574367 1.11803398874989 5.27787565803085 1.11803398874989 5.52920307031804 1.11803398874989 5.78053048260522 1.11803398874989 6.03185789489241 1.11803398874989 0.483321946706122 0.559016994374947 0.966643893412244 0.559016994374947 1.44996584011837 0.559016994374947 1.93328778682449 0.559016994374947 2.41660973353061 0.559016994374947 2.89993168023673 0.559016994374947 3.38325362694285 0.559016994374947 3.86657557364898 0.559016994374947 4.3498975203551 0.559016994374947 4.83321946706122 0.559016994374947 5.31654141376734 0.559016994374947 5.79986336047346 0.559016994374947 0.241660973353061 0.279508497187474 0.241660973353061 0.838525491562421 6.04152433382652 0.279508497187474 6.04152433382652 0.838525491562421 53 4 5 53 31 30 54 5 6 54 6 7 54 32 31 54 33 32 54 53 5 54 31 53 55 7 8 55 8 9 55 33 54 55 34 33 55 35 34 55 54 7 56 9 10 56 10 11 56 55 9 56 36 35 56 37 36 56 35 55 57 11 12 57 12 13 57 38 37 57 39 38 57 56 11 57 37 56 58 13 14 58 14 15 58 40 39 58 41 40 58 57 13 58 39 57 59 15 16 59 41 58 59 58 15 59 42 41 60 42 59 60 16 17 60 17 18 60 43 42 60 44 43 60 59 16 61 18 19 61 19 20 61 45 44 61 46 45 61 60 18 61 44 60 62 20 21 62 21 22 62 47 46 62 48 47 62 61 20 62 46 61 63 22 23 63 23 24 63 49 48 63 50 49 63 62 22 63 48 62 64 50 63 64 63 24 64 24 25 64 51 50 65 1 3 65 3 4 65 4 53 66 29 27 66 30 29 66 27 1 66 1 65 66 53 30 66 65 53 67 25 26 67 26 2 67 64 25 68 51 64 68 67 2 68 52 51 68 28 52 68 64 67 68 2 28 
52 50 1 0.00788529868552229
-1 4.5 0 -1 4.5 0 -0.968583161128631 4.5 0.248689887164855 -0.876306680043864 4.5 0.481753674101715 -0.728968627421412 4.5 0.684547105928689 -0.535826794978997 4.5 0.844327925502015 -0.309016994374947 4.5 0.951056516295154 -0.0627905195293135 4.5 0.998026728428272 0.187381314585724 4.5 0.982287250728689 0.425779291565072 4.5 0.90482705246602 0.637423989748689 4.5 0.770513242775789 0.809016994374947 4.5 0.587785252292474 0.929776485888251 4.5 0.368124552684679 0.992114701314478 4.5 0.125333233564305 0.992114701314478 4.5 -0.125333233564303 0.929776485888252 4.5 -0.368124552684677 0.809016994374948 4.5 -0.587785252292472 0.63742398974869 4.5 -0.770513242775789 0.425779291565073 4.5 -0.904827052466019 0.187381314585725 4.5 -0.982287250728689 -0.0627905195293137 4.5 -0.998026728428272 -0.309016994374948 4.5 -0.951056516295153 -0.535826794978998 4.5 -0.844327925502015 -0.728968627421412 4.5 -0.684547105928688 -0.876306680043864 4.5 -0.481753674101714 -0.968583161128632 4.5 -0.248689887164853 -1 20 0 -1 20 0 -0.968583161128631 20 0.248689887164855 -0.876306680043864 20 0.481753674101715 -0.728968627421412 20 0.684547105928689 -0.535826794978997 20 0.844327925502015 -0.309016994374947 20 0.951056516295154 -0.0627905195293135 20 0.998026728428272 0.187381314585724 20 0.982287250728689 0.425779291565072 20 0.90482705246602 0.637423989748689 20 0.770513242775789 0.809016994374947 20 0.587785252292474 0.929776485888251 20 0.368124552684679 0.992114701314478 20 0.125333233564305 0.992114701314478 20 -0.125333233564303 0.929776485888252 20 -0.368124552684677 0.809016994374948 20 -0.587785252292472 0.63742398974869 20 -0.770513242775789 0.425779291565073 20 -0.904827052466019 0.187381314585725 20 -0.982287250728689 -0.0627905195293137 20 -0.998026728428272 -0.309016994374948 20 -0.951056516295153 -0.535826794978998 20 -0.844327925502015 -0.728968627421412 20 -0.684547105928688 -0.876306680043864 20 -0.481753674101714 -0.968583161128632 20 -0.248689887164853 0 0 6.28318530717959 0 0.251327412287183 0 0.502654824574367 0 0.75398223686155 0 1.00530964914873 0 1.25663706143592 0 1.5079644737231 0 1.75929188601028 0 2.01061929829747 0 2.26194671058465 0 2.51327412287183 0 2.76460153515902 0 3.0159289474462 0 3.26725635973338 0 3.51858377202057 0 3.76991118430775 0 4.02123859659493 0 4.27256600888212 0 4.5238934211693 0 4.77522083345649 0 5.02654824574367 0 5.27787565803085 0 5.52920307031804 0 5.78053048260522 0 6.03185789489241 0 0 15.5 6.28318530717959 15.5 0.251327412287183 15.5 0.502654824574367 15.5 0.75398223686155 15.5 1.00530964914873 15.5 1.25663706143592 15.5 1.5079644737231 15.5 1.75929188601028 15.5 2.01061929829747 15.5 2.26194671058465 15.5 2.51327412287183 15.5 2.76460153515902 15.5 3.0159289474462 15.5 3.26725635973338 15.5 3.51858377202057 15.5 3.76991118430775 15.5 4.02123859659493 15.5 4.27256600888212 15.5 4.5238934211693 15.5 4.77522083345649 15.5 5.02654824574367 15.5 5.27787565803085 15.5 5.52920307031804 15.5 5.78053048260522 15.5 6.03185789489241 15.5 48 47 22 49 22 23 49 48 22 50 23 24 29 1 3 29 3 4 50 49 23 29 27 1 51 24 25 30 4 5 51 50 24 30 29 4 52 25 26 52 26 2 52 51 25 31 30 5 28 52 2 32 5 6 32 6 7 32 31 5 33 7 8 33 32 7 34 33 8 35 8 9 35 34 8 36 9 10 36 10 11 36 35 9 37 36 11 38 11 12 38 37 11 39 12 13 39 38 12 40 39 13 40 13 14 41 40 14 41 14 15 41 15 16 42 41 16 43 16 17 43 42 16 43 17 18 44 43 18 45 18 19 45 44 18 46 19 20 46 45 19 47 20 21 47 21 22 47 46 20 
25 23 1 1.66533453693773e-16
-1 20 0 -0.968583161128631 20 0.248689887164855 -0.876306680043864 20 0.481753674101715 -0.728968627421412 20 0.684547105928689 -0.535826794978997 20 0.844327925502015 -0.309016994374947 20 0.951056516295154 -0.0627905195293135 20 0.998026728428272 0.187381314585724 20 0.982287250728689 0.425779291565072 20 0.90482705246602 0.637423989748689 20 0.770513242775789 0.809016994374947 20 0.587785252292474 0.929776485888251 20 0.368124552684679 0.992114701314478 20 0.125333233564305 0.992114701314478 20 -0.125333233564303 0.929776485888252 20 -0.368124552684677 0.809016994374948 20 -0.587785252292472 0.63742398974869 20 -0.770513242775789 0.425779291565073 20 -0.904827052466019 0.187381314585725 20 -0.982287250728689 -0.0627905195293137 20 -0.998026728428272 -0.309016994374948 20 -0.951056516295153 -0.535826794978998 20 -0.844327925502015 -0.728968627421412 20 -0.684547105928688 -0.876306680043864 20 -0.481753674101714 -0.968583161128632 20 -0.248689887164853 1 0 0.968583161128631 0.248689887164855 0.876306680043863 0.481753674101715 0.728968627421412 0.684547105928689 0.535826794978997 0.844327925502015 0.309016994374947 0.951056516295153 0.0627905195293135 0.998026728428272 -0.187381314585724 0.982287250728689 -0.425779291565072 0.90482705246602 -0.637423989748689 0.770513242775789 -0.809016994374947 0.587785252292474 -0.929776485888251 0.368124552684679 -0.992114701314478 0.125333233564305 -0.992114701314478 -0.125333233564303 -0.929776485888252 -0.368124552684677 -0.809016994374948 -0.587785252292472 -0.63742398974869 -0.770513242775789 -0.425779291565073 -0.904827052466019 -0.187381314585725 -0.982287250728689 0.0627905195293137 -0.998026728428272 0.309016994374948 -0.951056516295153 0.535826794978997 -0.844327925502015 0.728968627421412 -0.684547105928688 0.876306680043864 -0.481753674101714 0.968583161128632 -0.248689887164853 15 16 17 15 17 18 14 15 18 20 18 19 21 18 20 12 13 14 12 14 18 12 18 21 23 21 22 10 11 12 8 9 10 8 23 24 8 12 21 8 10 12 8 21 23 1 24 25 1 8 24 2 7 8 2 8 1 6 7 2 3 6 2 5 6 3 4 5 3 

TShapes 29
Ve
1e-07
-4 0 0
0 0

0101101
*
Ed
 1e-07 1 1 0
1  1 0 0 6.28318530717959
2  1 1 0 0 6.28318530717959
2  2 2 0 0 6.28318530717959
6  1 2 0
6  2 1 0
0

0101100
+29 3 -29 3 *
Wi

0101000
-28 0 *
Fa
0  1e-07 1 0
2  1
0101000
+27 0 *
Ve
1e-07
-4 2 0
0 0

0101101
*
Ed
 1e-07 1 1 0
1  2 0 0 6.28318530717959
2  3 2 0 0 6.28318530717959
2  4 3 0 0 6.28318530717959
6  3 3 0
6  4 2 0
0

0101100
+25 3 -25 3 *
Ed
 1e-07 1 1 0
1  3 0 0 2
3  5 6CN 2 6 0 2
7  5 6 2 6
0

0101000
+29 7 -25 7 *
Wi

0101000
+28 0 -24 0 -23 5 +23 5 *
Fa
0  1e-07 2 0
2  2
0101000
+22 0 *
Ve
1e-07
-2 4 0
0 0

0101101
*
Ed
 1e-07 1 1 0
1  4 0 0 6.28318530717959
2  7 3 0 0 6.28318530717959
2  8 4 0 0 6.28318530717959
6  7 3 0
6  8 4 0
0

0101100
+20 3 -20 3 *
Ed
 1e-07 1 1 0
1  5 0 0 2.82842712474619
3  9 10CN 3 6 0 2.82842712474619
7  9 10 3 6
0

0101000
+25 7 -20 7 *
Wi

0101000
+24 0 -19 0 -18 5 +18 5 *
Fa
0  1e-07 3 0
2  3
0101000
+17 0 *
Ve
1e-07
-1 4.5 0
0 0

0101101
*
Ed
 1e-07 1 1 0
1  6 0 0 6.28318530717959
2  11 4 0 0 6.28318530717959
2  12 5 0 0 6.28318530717959
6  11 4 0
6  12 5 0
0

0101100
+15 3 -15 3 *
Ed
 1e-07 1 1 0
1  7 0 0 1.11803398874989
3  13 14CN 4 6 0 1.11803398874989
7  13 14 4 6
0

0101000
+20 7 -15 7 *
Wi

0101000
+19 0 -14 0 -13 5 +13 5 *
Fa
0  1e-07 4 0
2  4
0101000
+12 0 *
Ve
1e-07
-1 20 0
0 0

0101101
*
Ed
 1e-07 1 1 0
1  8 0 0 6.28318530717959
2  15 5 0 0 6.28318530717959
2  16 6 0 0 6.28318530717959
6  15 5 0
6  16 6 0
0

0101100
+10 3 -10 3 *
Ed
 1e-07 1 1 0
1  9 0 0 15.5
3  17 18CN 5 6 0 15.5
7  17 18 5 6
0

0101000
+15 7 -10 7 *
Wi

0101000
+14 0 -9 0 -8 5 +8 5 *
Fa
0  1e-07 5 0
2  5
0101000
+7 0 *
Wi

0101000
+9 0 *
Fa
0  1e-07 6 0
2  6
0101000
+5 0 *
Sh

0101100
-26 0 -21 0 -16 0 -11 0 -6 0 -4 0 *
So

0100100
-3 0 *
Co

1100000
+2 1 *

+1 0 