DBRep_DrawableShape

CASCADE Topology V1, (c) Matra-Datavision
Locations 6
1
              1               0               0               0 
              0               1               0               0 
              0               0               1               0 
1
              1               0               0               0 
              0               1               0               0 
              0               0               1               0 
1
              1               0               0              10 
              0               1               0               0 
              0               0               1               0 
2  3 1 2 -1 0
2  2 -1 0
2  3 -1 0
Curve2ds 48
1 0 0 1 0 
1 0 10 1 0 
1 0 0 1 0 
1 0 0 1 0 
1 0 0 0 -1 
1 10 0 0 1 
1 0 0 0 -1 
1 0 0 0 1 
1 10 0 0 -1 
1 10 0 0 1 
1 10 0 0 -1 
1 0 0 0 1 
1 0 -10 1 0 
1 0 10 1 0 
1 0 -10 1 0 
1 0 0 1 0 
1 0 0 0 1 
1 0 0 1 0 
1 0 0 1 0 
1 0 10 1 0 
1 10 0 0 1 
1 0 0 1 0 
1 0 0 0 1 
1 0 10 1 0 
1 0 0 0 -1 
1 10 0 0 1 
1 10 0 0 1 
1 0 10 1 0 
1 10 0 0 -1 
1 10 0 0 1 
1 0 -10 1 0 
1 0 10 1 0 
1 0 0 1 0 
1 0 0 1 0 
1 10 0 0 -1 
1 0 0 0 1 
1 0 -10 1 0 
1 0 0 1 0 
1 0 0 0 -1 
1 0 0 0 1 
1 0 0 0 1 
1 0 0 1 0 
1 10 0 0 1 
1 0 0 1 0 
1 10 0 0 1 
1 0 10 1 0 
1 0 0 0 1 
1 0 10 1 0 
Curves 20
1 10 0 0 0 0 1 
1 10 0 0 -0 1 0 
1 10 0 10 0 1 0 
1 10 10 0 0 0 1 
1 0 0 0 1 0 -0 
1 10 0 0 0 0 1 
1 0 0 10 1 0 -0 
1 0 10 0 1 0 -0 
1 10 0 0 -0 1 0 
1 0 10 10 1 0 -0 
1 10 0 10 0 1 0 
1 10 10 0 0 0 1 
1 0 0 0 0 0 1 
1 0 0 10 -0 1 0 
1 0 10 0 0 0 1 
1 0 0 0 -0 1 0 
1 0 0 0 1 0 -0 
1 0 0 10 1 0 -0 
1 0 10 10 1 0 -0 
1 0 10 0 1 0 -0 
Polygon3D 0
PolygonOnTriangulations 68
2 1 2 
p 0.0666666666666667 1 0 10 
2 1 3 
p 0.0666666666666667 1 0 10 
2 2 4 
p 0.0666666666666667 1 0 10 
2 1 3 
p 0.0666666666666667 1 0 10 
2 1 2 
p 0.0666666666666667 1 0 10 
2 4 3 
p 0.0666666666666667 1 0 10 
2 2 4 
p 0.0666666666666667 1 0 10 
2 1 2 
p 0.0666666666666667 1 0 10 
2 4 3 
p 0.0666666666666667 1 0 10 
2 3 4 
p 0.0666666666666667 1 0 10 
2 1 3 
p 0.0666666666666667 1 0 10 
2 2 4 
p 0.0666666666666667 1 0 10 
2 1 2 
p 0.0666666666666667 1 0 10 
2 1 3 
p 0.0666666666666667 1 0 10 
2 1 2 
p 0.05 1 0 10 
2 2 3 
p 0.05 1 0 10 
2 2 4 
p 0.0666666666666667 1 0 10 
2 2 4 
p 0.0666666666666667 1 0 10 
2 2 4 
p 0.0666666666666667 1 0 10 
2 3 4 
p 0.0666666666666667 1 0 10 
2 1 3 
p 0.0666666666666667 1 0 10 
2 2 4 
p 0.0666666666666667 1 0 10 
2 1 2 
p 0.0666666666666667 1 0 10 
2 1 4 
p 0.05 1 0 10 
2 4 3 
p 0.05 1 0 10 
2 3 4 
p 0.0666666666666667 1 0 10 
2 3 4 
p 0.0666666666666667 1 0 10 
2 3 4 
p 0.0666666666666667 1 0 10 
2 2 4 
p 0.0666666666666667 1 0 10 
2 3 4 
p 0.0666666666666667 1 0 10 
2 2 3 
p 0.05 1 0 10 
2 4 3 
p 0.05 1 0 10 
2 3 4 
p 0.0666666666666667 1 0 10 
2 3 4 
p 0.0666666666666667 1 0 10 
2 3 4 
p 0.0666666666666667 1 0 10 
2 4 3 
p 0.05 1 0 10 
2 2 3 
p 0.05 1 0 10 
2 2 4 
p 0.0666666666666667 1 0 10 
2 2 4 
p 0.0666666666666667 1 0 10 
2 2 4 
p 0.0666666666666667 1 0 10 
2 1 2 
p 0.05 1 0 10 
2 1 4 
p 0.05 1 0 10 
2 1 3 
p 0.0666666666666667 1 0 10 
2 1 3 
p 0.0666666666666667 1 0 10 
2 1 3 
p 0.0666666666666667 1 0 10 
2 2 3 
p 0.05 1 0 10 
2 1 2 
p 0.05 1 0 10 
2 1 2 
p 0.0666666666666667 1 0 10 
2 1 2 
p 0.0666666666666667 1 0 10 
2 1 2 
p 0.0666666666666667 1 0 10 
2 4 3 
p 0.05 1 0 10 
2 1 4 
p 0.05 1 0 10 
2 1 3 
p 0.0666666666666667 1 0 10 
2 1 3 
p 0.0666666666666667 1 0 10 
2 1 3 
p 0.0666666666666667 1 0 10 
2 1 4 
p 0.05 1 0 10 
2 1 2 
p 0.05 1 0 10 
2 1 2 
p 0.0666666666666667 1 0 10 
2 1 2 
p 0.0666666666666667 1 0 10 
2 1 2 
p 0.0666666666666667 1 0 10 
2 1 2 
p 0.0666666666666667 1 0 10 
2 1 4 
p 0.0666666666666667 1 0 10 
2 3 4 
p 0.0666666666666667 1 0 10 
2 1 4 
p 0.0666666666666667 1 0 10 
2 2 3 
p 0.0666666666666667 1 0 10 
2 3 4 
p 0.0666666666666667 1 0 10 
2 1 2 
p 0.0666666666666667 1 0 10 
2 2 3 
p 0.0666666666666667 1 0 10 
Surfaces 12
1 10 0 0 1 0 -0 0 0 1 0 -1 0 
1 0 0 0 -0 1 0 0 0 1 1 0 -0 
1 0 0 0 1 0 -0 0 0 1 0 -1 0 
1 0 0 0 -0 1 0 0 0 1 1 0 -0 
1 0 0 0 0 0 1 1 0 -0 -0 1 0 
1 0 0 0 0 0 1 1 0 -0 -0 1 0 
1 0 0 10 0 0 1 1 0 -0 -0 1 0 
1 0 0 10 0 0 1 1 0 -0 -0 1 0 
1 0 10 0 -0 1 0 0 0 1 1 0 -0 
1 0 10 0 -0 1 0 0 0 1 1 0 -0 
1 10 0 0 1 0 -0 0 0 1 0 -1 0 
1 0 0 0 1 0 -0 0 0 1 0 -1 0 
Triangulations 35
4 2 1 0
10 0 0 10 0 10 10 10 0 10 10 10 0 0 10 0 0 -10 10 -10 2 1 3 2 3 4 
4 2 1 0
10 0 0 20 0 0 10 0 10 20 0 10 0 0 0 10 10 0 10 10 4 2 1 4 1 3 
4 2 1 0
0 0 0 10 0 0 0 0 10 10 0 10 0 0 0 10 10 0 10 10 4 2 1 4 1 3 
4 2 1 0
10 0 0 10 10 0 20 0 0 20 10 0 0 0 0 10 10 0 10 10 4 2 1 4 1 3 
4 2 1 0
0 0 0 0 10 0 10 10 0 10 0 0 0 0 0 10 10 10 10 0 3 2 1 3 1 4 
4 2 1 0
10 0 10 10 10 10 20 0 10 20 10 10 0 0 0 10 10 0 10 10 4 2 1 4 1 3 
4 2 1 0
0 0 10 0 10 10 10 10 10 10 0 10 0 0 0 10 10 10 10 0 3 2 1 3 1 4 
4 2 1 0
10 10 0 20 10 0 10 10 10 20 10 10 0 0 0 10 10 0 10 10 4 2 1 4 1 3 
4 2 1 0
0 10 0 10 10 0 0 10 10 10 10 10 0 0 0 10 10 0 10 10 4 2 1 4 1 3 
4 2 1 0
10 0 0 10 0 10 10 10 10 10 10 0 0 0 10 0 10 -10 0 -10 2 4 3 2 1 4 
4 2 1 0
0 0 0 10 0 0 10 0 10 0 0 10 0 0 0 10 10 10 10 0 3 2 1 3 1 4 
4 2 1 0
10 0 0 20 0 0 10 0 10 20 0 10 0 0 0 10 10 0 10 10 4 2 1 4 1 3 
4 2 1 0
10 0 0 20 0 0 10 0 10 20 0 10 0 0 0 10 10 0 10 10 4 2 1 4 1 3 
4 2 1 0
0 0 0 0 10 0 10 10 0 10 0 0 0 0 0 10 10 10 10 0 3 2 1 3 1 4 
4 2 1 0
10 0 0 10 10 0 20 0 0 20 10 0 0 0 0 10 10 0 10 10 4 2 1 4 1 3 
4 2 1 0
10 0 0 10 10 0 20 0 0 20 10 0 0 0 0 10 10 0 10 10 4 2 1 4 1 3 
4 2 1 0
0 0 10 0 10 10 10 10 10 10 0 10 0 0 0 10 10 10 10 0 3 2 1 3 1 4 
4 2 1 0
10 0 10 10 10 10 20 0 10 20 10 10 0 0 0 10 10 0 10 10 4 2 1 4 1 3 
4 2 1 0
10 0 10 10 10 10 20 0 10 20 10 10 0 0 0 10 10 0 10 10 4 2 1 4 1 3 
4 2 1 0
0 10 0 10 10 0 10 10 10 0 10 10 0 0 0 10 10 10 10 0 3 2 1 3 1 4 
4 2 1 0
10 10 0 20 10 0 10 10 10 20 10 10 0 0 0 10 10 0 10 10 4 2 1 4 1 3 
4 2 1 0
10 10 0 20 10 0 10 10 10 20 10 10 0 0 0 10 10 0 10 10 4 2 1 4 1 3 
4 2 1 0
0 0 0 0 0 10 0 10 10 0 10 0 0 0 10 0 10 -10 0 -10 2 4 3 2 1 4 
4 2 1 0
0 0 0 10 0 0 10 0 10 0 0 10 0 0 0 10 10 10 10 0 3 2 1 3 1 4 
4 2 1 0
0 0 0 10 0 0 0 0 10 10 0 10 0 0 0 10 10 0 10 10 4 2 1 4 1 3 
4 2 1 0
0 0 0 10 0 0 0 0 10 10 0 10 0 0 0 10 10 0 10 10 4 2 1 4 1 3 
4 2 1 0
0 0 10 0 10 10 10 10 10 10 0 10 0 0 0 10 10 10 10 0 3 2 1 3 1 4 
4 2 1 0
0 0 10 0 10 10 10 10 10 10 0 10 0 0 0 10 10 10 10 0 3 2 1 3 1 4 
4 2 1 0
0 0 10 0 10 10 10 10 10 10 0 10 0 0 0 10 10 10 10 0 3 2 1 3 1 4 
4 2 1 0
0 10 0 10 10 0 10 10 10 0 10 10 0 0 0 10 10 10 10 0 3 2 1 3 1 4 
4 2 1 0
0 10 0 10 10 0 0 10 10 10 10 10 0 0 0 10 10 0 10 10 4 2 1 4 1 3 
4 2 1 0
0 10 0 10 10 0 0 10 10 10 10 10 0 0 0 10 10 0 10 10 4 2 1 4 1 3 
4 2 1 0
0 0 0 0 10 0 10 10 0 10 0 0 0 0 0 10 10 10 10 0 3 2 1 3 1 4 
4 2 1 0
0 0 0 0 10 0 10 10 0 10 0 0 0 0 0 10 10 10 10 0 3 2 1 3 1 4 
4 2 1 0
0 0 0 0 10 0 10 10 0 10 0 0 0 0 0 10 10 10 10 0 3 2 1 3 1 4 

TShapes 61
Ve
1e-07
10 0 0
0 0

0101101
*
Ve
1e-07
10 0 10
0 0

0101101
*
Ed
 1e-07 1 1 0
1  1 0 0 10
2  1 1 0 0 10
2  2 2 0 0 10
2  3 3 4 0 10
2  4 4 4 0 10
6  1 1 5
6  2 2 5
6  3 3 5
0

0101000
+61 5 -60 5 *
Ve
1e-07
10 10 0
0 0

0101101
*
Ed
 1e-07 1 1 0
1  2 0 0 10
2  5 1 0 0 10
2  6 5 0 0 10
2  7 3 4 0 10
2  8 6 4 0 10
6  4 1 5
6  5 4 5
6  6 5 5
0

0101000
+61 5 -58 5 *
Ve
1e-07
10 10 10
0 0

0101101
*
Ed
 1e-07 1 1 0
1  3 0 0 10
2  9 1 0 0 10
2  10 7 0 0 10
2  11 3 4 0 10
2  12 8 4 0 10
6  7 1 5
6  8 6 5
6  9 7 5
0

0101000
+60 5 -56 5 *
Ed
 1e-07 1 1 0
1  4 0 0 10
2  13 1 0 0 10
2  14 9 0 0 10
2  15 3 4 0 10
2  16 10 4 0 10
6  10 1 5
6  11 8 5
6  12 9 5
0

0101000
+58 5 -56 5 *
Wi

0101100
-59 2 +57 2 -55 2 +54 2 *
Fa
0  1e-07 1 2
2  1
0111000
+53 0 *
Ve
1e-07
20 0 0
0 0

0101101
*
Ed
 1e-07 1 1 0
1  5 0 0 10
2  17 4 0 0 10
2  18 6 0 0 10
6  13 2 6
6  14 4 6
0

0101000
+61 6 -51 6 *
Ve
1e-07
20 0 10
0 0

0101101
*
Ed
 1e-07 1 1 0
1  6 0 0 10
2  19 11 0 0 10
2  20 4 0 0 10
6  15 10 0
6  16 11 0
6  17 12 6
6  18 13 6
6  19 2 6
0

0101000
-49 6 +51 6 *
Ed
 1e-07 1 1 0
1  7 0 0 10
2  21 4 0 0 10
2  22 8 0 0 10
6  20 2 6
6  21 6 6
0

0101000
+60 6 -49 6 *
Wi

0101100
-50 3 +59 2 -48 3 +47 3 *
Fa
0  1e-07 4 3
2  2
0111000
+46 0 *
Ve
1e-07
20 10 0
0 0

0101101
*
Ed
 1e-07 1 1 0
1  8 0 0 10
2  23 10 0 0 10
2  24 6 0 0 10
6  22 4 6
6  23 8 6
0

0101000
+58 6 -44 6 *
Ed
 1e-07 1 1 0
1  9 0 0 10
2  25 11 0 0 10
2  26 6 0 0 10
6  24 10 0
6  25 14 0
6  26 15 6
6  27 16 6
6  28 4 6
0

0101000
-44 6 +51 6 *
Wi

0101100
-57 2 +50 3 -43 3 +42 3 *
Fa
0  1e-07 6 3
2  4
0111000
+41 0 *
Ve
1e-07
20 10 10
0 0

0101101
*
Ed
 1e-07 1 1 0
1  10 0 0 10
2  27 10 0 0 10
2  28 8 0 0 10
6  29 6 6
6  30 8 6
0

0101000
+56 6 -39 6 *
Ed
 1e-07 1 1 0
1  11 0 0 10
2  29 11 0 0 10
2  30 8 0 0 10
6  31 10 0
6  32 17 0
6  33 18 6
6  34 19 6
6  35 6 6
0

0101000
-39 6 +49 6 *
Wi

0101100
-55 2 +47 3 -38 3 +37 3 *
Fa
0  1e-07 8 3
2  6
0111000
+36 0 *
Ed
 1e-07 1 1 0
1  12 0 0 10
2  31 11 0 0 10
2  32 10 0 0 10
6  36 10 0
6  37 20 0
6  38 21 6
6  39 22 6
6  40 8 6
0

0101000
-39 6 +44 6 *
Wi

0101100
-43 3 +54 2 -34 3 +38 3 *
Fa
0  1e-07 10 3
2  8
0111000
+33 0 *
Wi

0101100
-48 0 -37 0 +34 0 +42 0 *
Fa
0  1e-07 11 0
2  10
0111000
+31 0 *
Sh

0101100
-52 0 -45 0 -40 0 +35 0 +32 0 +30 3 *
So

0100000
+29 0 *
Ve
1e-07
0 0 10
0 0

0101101
*
Ve
1e-07
0 0 0
0 0

0101101
*
Ed
 1e-07 1 1 0
1  13 0 0 10
2  33 12 0 0 10
2  34 2 0 0 10
6  41 23 0
6  42 24 0
6  43 25 5
6  44 26 5
6  45 3 5
0

0101000
-27 5 +26 5 *
Ve
1e-07
0 10 10
0 0

0101101
*
Ed
 1e-07 1 1 0
1  14 0 0 10
2  35 12 0 0 10
2  36 7 0 0 10
6  46 23 0
6  47 27 0
6  48 28 5
6  49 29 5
6  50 7 5
0

0101000
-24 5 +27 5 *
Ve
1e-07
0 10 0
0 0

0101101
*
Ed
 1e-07 1 1 0
1  15 0 0 10
2  37 12 0 0 10
2  38 9 0 0 10
6  51 23 0
6  52 30 0
6  53 31 5
6  54 32 5
6  55 9 5
0

0101000
-24 5 +22 5 *
Ed
 1e-07 1 1 0
1  16 0 0 10
2  39 12 0 0 10
2  40 5 0 0 10
6  56 23 0
6  57 33 0
6  58 34 5
6  59 35 5
6  60 5 5
0

0101000
-22 5 +26 5 *
Wi

0101100
-25 0 -23 0 +21 0 +20 0 *
Fa
0  1e-07 12 0
2  23
0111000
+19 0 *
Ed
 1e-07 1 1 0
1  17 0 0 10
2  41 2 0 0 10
2  42 5 0 0 10
6  61 3 5
6  62 5 5
0

0101000
+26 5 -61 5 *
Ed
 1e-07 1 1 0
1  18 0 0 10
2  43 2 0 0 10
2  44 7 0 0 10
6  63 3 5
6  64 7 5
0

0101000
+27 5 -60 5 *
Wi

0101100
-17 2 +25 2 -59 2 +16 2 *
Fa
0  1e-07 2 2
2  3
0111000
+15 0 *
Ed
 1e-07 1 1 0
1  19 0 0 10
2  45 9 0 0 10
2  46 7 0 0 10
6  65 7 5
6  66 9 5
0

0101000
+24 5 -56 5 *
Wi

0101100
-23 2 -13 2 +16 2 +55 2 *
Fa
0  1e-07 7 2
2  7
0111000
+12 0 *
Ed
 1e-07 1 1 0
1  20 0 0 10
2  47 9 0 0 10
2  48 5 0 0 10
6  67 9 5
6  68 5 5
0

0101000
+22 5 -58 5 *
Wi

0101100
-10 2 +21 2 -54 2 +13 2 *
Fa
0  1e-07 9 2
2  9
0111000
+9 0 *
Wi

0101100
-20 2 -10 2 +17 2 +57 2 *
Fa
0  1e-07 5 2
2  5
0111000
+7 0 *
Sh

0101100
-18 2 -14 0 +11 0 +8 0 -6 0 +52 0 *
So

0100000
+5 0 *
CS

0101000
+28 0 +4 0 *
Co

0100000
+3 0 *
Co

1100000
+2 1 *

+1 0 