DBRep_DrawableShape

CASCADE Topology V1, (c) Matra-Datavision
Locations 5
1
              1               0               0               0 
              0               1               0               0 
              0               0               1               0 
1
              1               0               0               0 
              0               1               0               0 
              0               0               1               0 
2  2 -1 0
1
              1               0               0              50 
              0               1               0               0 
              0               0               1               0 
2  4 -1 0
Curve2ds 40
1 0 0 1 0 
1 0 0 1 0 
1 10 0 0 -1 
1 0 0 0 1 
1 0 -10 1 0 
1 0 0 1 0 
1 0 0 0 -1 
1 0 0 0 1 
1 0 0 0 1 
1 0 0 1 0 
1 0 0 1 0 
1 0 0 1 0 
1 10 0 0 1 
1 0 0 1 0 
1 10 0 0 1 
1 0 10 1 0 
1 10 0 0 -1 
1 0 0 0 1 
1 0 0 0 1 
1 0 10 1 0 
1 0 -10 1 0 
1 0 0 1 0 
1 0 0 0 -1 
1 0 0 0 1 
1 0 0 0 1 
1 0 0 1 0 
1 0 0 1 0 
1 0 50 1 0 
1 10 0 0 1 
1 0 0 1 0 
1 0 0 0 1 
1 0 10 1 0 
1 0 0 0 -1 
1 50 0 0 1 
1 10 0 0 1 
1 0 10 1 0 
1 10 0 0 -1 
1 50 0 0 1 
1 0 -10 1 0 
1 0 50 1 0 
Curves 20
1 0 0 0 0 0 1 
1 0 0 10 -0 1 0 
1 0 10 0 0 0 1 
1 0 0 0 -0 1 0 
1 0 0 0 1 0 -0 
1 0 0 0 0 0 1 
1 0 0 10 1 0 -0 
1 0 10 10 1 0 -0 
1 0 0 10 -0 1 0 
1 0 10 0 1 0 -0 
1 0 10 0 0 0 1 
1 0 0 0 -0 1 0 
1 0 0 0 1 0 -0 
1 50 0 0 0 0 1 
1 0 0 10 1 0 -0 
1 0 10 0 1 0 -0 
1 50 0 0 -0 1 0 
1 0 10 10 1 0 -0 
1 50 0 10 0 1 0 
1 50 10 0 0 0 1 
Polygon3D 0
PolygonOnTriangulations 60
2 1 2 
p 0.116666666666667 1 0 10 
2 1 4 
p 0.116666666666667 1 0 10 
2 1 3 
p 0.2 1 0 10 
2 1 3 
p 0.2 1 0 10 
2 2 3 
p 0.116666666666667 1 0 10 
2 1 2 
p 0.116666666666667 1 0 10 
2 1 2 
p 0.2 1 0 10 
2 1 2 
p 0.2 1 0 10 
2 4 3 
p 0.116666666666667 1 0 10 
2 1 4 
p 0.116666666666667 1 0 10 
2 1 3 
p 0.2 1 0 10 
2 1 3 
p 0.2 1 0 10 
2 1 4 
p 0.116666666666667 1 0 10 
2 1 2 
p 0.116666666666667 1 0 10 
2 1 2 
p 0.2 1 0 10 
2 1 2 
p 0.2 1 0 10 
2 1 2 
p 0.2 1 0 50 
2 1 4 
p 0.2 1 0 50 
2 2 4 
p 0.2 1 0 10 
2 1 2 
p 0.2 1 0 10 
2 1 3 
p 0.2 1 0 10 
2 3 4 
p 0.2 1 0 50 
2 1 4 
p 0.2 1 0 50 
2 2 3 
p 0.2 1 0 50 
2 3 4 
p 0.2 1 0 50 
2 4 3 
p 0.2 1 0 10 
2 2 4 
p 0.2 1 0 10 
2 1 2 
p 0.2 1 0 10 
2 1 2 
p 0.2 1 0 50 
2 2 3 
p 0.2 1 0 50 
2 2 4 
p 0.2 1 0 10 
2 3 4 
p 0.2 1 0 10 
2 1 3 
p 0.2 1 0 10 
2 4 3 
p 0.2 1 0 10 
2 1 3 
p 0.2 1 0 10 
2 1 2 
p 0.2 1 0 10 
2 1 2 
p 0.2 1 0 50 
2 1 3 
p 0.2 1 0 50 
2 1 2 
p 0.116666666666667 1 0 10 
2 2 3 
p 0.116666666666667 1 0 10 
2 2 4 
p 0.2 1 0 10 
2 2 4 
p 0.2 1 0 10 
2 3 4 
p 0.2 1 0 50 
2 1 3 
p 0.2 1 0 50 
2 2 4 
p 0.2 1 0 50 
2 1 2 
p 0.2 1 0 50 
2 1 4 
p 0.116666666666667 1 0 10 
2 4 3 
p 0.116666666666667 1 0 10 
2 3 4 
p 0.2 1 0 10 
2 3 4 
p 0.2 1 0 10 
2 2 4 
p 0.2 1 0 50 
2 3 4 
p 0.2 1 0 50 
2 2 3 
p 0.116666666666667 1 0 10 
2 4 3 
p 0.116666666666667 1 0 10 
2 3 4 
p 0.2 1 0 10 
2 3 4 
p 0.2 1 0 10 
2 4 3 
p 0.116666666666667 1 0 10 
2 2 3 
p 0.116666666666667 1 0 10 
2 2 4 
p 0.2 1 0 10 
2 2 4 
p 0.2 1 0 10 
Surfaces 11
1 0 0 0 1 0 -0 0 0 1 0 -1 0 
1 0 0 0 -0 1 0 0 0 1 1 0 -0 
1 0 0 10 0 0 1 1 0 -0 -0 1 0 
1 0 10 0 -0 1 0 0 0 1 1 0 -0 
1 0 0 0 0 0 1 1 0 -0 -0 1 0 
1 0 0 0 1 0 -0 0 0 1 0 -1 0 
1 0 0 0 -0 1 0 0 0 1 1 0 -0 
1 0 0 10 0 0 1 1 0 -0 -0 1 0 
1 0 10 0 -0 1 0 0 0 1 1 0 -0 
1 0 0 0 0 0 1 1 0 -0 -0 1 0 
1 50 0 0 1 0 -0 0 0 1 0 -1 0 
Triangulations 27
4 2 1 0
0 0 0 0 0 10 0 10 10 0 10 0 0 0 10 0 10 -10 0 -10 2 4 3 2 1 4 
4 2 1 8.88178419700125e-16
0 0 0 50 0 0 50 0 10 0 0 10 0 0 0 50 10 50 10 0 3 2 1 3 1 4 
4 2 1 8.88178419700125e-16
0 0 0 50 0 0 0 0 10 50 0 10 0 0 0 50 10 0 10 50 4 2 1 4 1 3 
4 2 1 8.88178419700125e-16
0 0 0 50 0 0 0 0 10 50 0 10 0 0 0 50 10 0 10 50 4 2 1 4 1 3 
4 2 1 8.88178419700125e-16
0 0 10 0 10 10 50 10 10 50 0 10 0 0 0 10 50 10 50 0 3 2 1 3 1 4 
4 2 1 8.88178419700125e-16
0 0 10 0 10 10 50 10 10 50 0 10 0 0 0 10 50 10 50 0 3 2 1 3 1 4 
4 2 1 8.88178419700125e-16
0 0 10 0 10 10 50 10 10 50 0 10 0 0 0 10 50 10 50 0 3 2 1 3 1 4 
4 2 1 8.88178419700125e-16
0 10 0 50 10 0 50 10 10 0 10 10 0 0 0 50 10 50 10 0 3 2 1 3 1 4 
4 2 1 8.88178419700125e-16
0 10 0 50 10 0 0 10 10 50 10 10 0 0 0 50 10 0 10 50 4 2 1 4 1 3 
4 2 1 8.88178419700125e-16
0 10 0 50 10 0 0 10 10 50 10 10 0 0 0 50 10 0 10 50 4 2 1 4 1 3 
4 2 1 8.88178419700125e-16
0 0 0 0 10 0 50 10 0 50 0 0 0 0 0 10 50 10 50 0 3 2 1 3 1 4 
4 2 1 8.88178419700125e-16
0 0 0 0 10 0 50 10 0 50 0 0 0 0 0 10 50 10 50 0 3 2 1 3 1 4 
4 2 1 8.88178419700125e-16
0 0 0 0 10 0 50 10 0 50 0 0 0 0 0 10 50 10 50 0 3 2 1 3 1 4 
4 2 1 0
50 0 0 50 0 10 50 10 0 50 10 10 0 0 10 0 0 -10 10 -10 2 1 3 2 3 4 
4 2 1 8.88178419700125e-16
50 0 0 100 0 0 50 0 10 100 0 10 0 0 0 50 10 0 10 50 4 2 1 4 1 3 
4 2 1 8.88178419700125e-16
50 0 10 50 10 10 100 0 10 100 10 10 0 0 0 10 50 0 50 10 4 2 1 4 1 3 
4 2 1 8.88178419700125e-16
50 10 0 100 10 0 50 10 10 100 10 10 0 0 0 50 10 0 10 50 4 2 1 4 1 3 
4 2 1 8.88178419700125e-16
50 0 0 50 10 0 100 0 0 100 10 0 0 0 0 10 50 0 50 10 4 2 1 4 1 3 
4 2 1 0
50 0 0 50 0 10 50 10 10 50 10 0 0 0 10 0 10 -10 0 -10 2 4 3 2 1 4 
4 2 1 8.88178419700125e-16
0 0 0 50 0 0 50 0 10 0 0 10 0 0 0 50 10 50 10 0 3 2 1 3 1 4 
4 2 1 8.88178419700125e-16
50 0 0 100 0 0 50 0 10 100 0 10 0 0 0 50 10 0 10 50 4 2 1 4 1 3 
4 2 1 8.88178419700125e-16
0 0 0 0 10 0 50 10 0 50 0 0 0 0 0 10 50 10 50 0 3 2 1 3 1 4 
4 2 1 8.88178419700125e-16
50 0 0 50 10 0 100 0 0 100 10 0 0 0 0 10 50 0 50 10 4 2 1 4 1 3 
4 2 1 8.88178419700125e-16
0 0 10 0 10 10 50 10 10 50 0 10 0 0 0 10 50 10 50 0 3 2 1 3 1 4 
4 2 1 8.88178419700125e-16
50 0 10 50 10 10 100 0 10 100 10 10 0 0 0 10 50 0 50 10 4 2 1 4 1 3 
4 2 1 8.88178419700125e-16
0 10 0 50 10 0 50 10 10 0 10 10 0 0 0 50 10 50 10 0 3 2 1 3 1 4 
4 2 1 8.88178419700125e-16
50 10 0 100 10 0 50 10 10 100 10 10 0 0 0 50 10 0 10 50 4 2 1 4 1 3 

TShapes 61
Ve
1e-07
0 0 10
0 0

0101101
*
Ve
1e-07
0 0 0
0 0

0101101
*
Ed
 1e-07 1 1 0
1  1 0 0 10
2  1 1 0 0 10
2  2 2 0 0 10
6  1 1 0
6  2 2 0
6  3 3 3
6  4 4 3
0

0101000
-61 0 +60 0 *
Ve
1e-07
0 10 10
0 0

0101101
*
Ed
 1e-07 1 1 0
1  2 0 0 10
2  3 1 0 0 10
2  4 3 0 0 10
6  5 1 0
6  6 5 0
6  7 6 3
6  8 7 3
0

0101000
-58 0 +61 0 *
Ve
1e-07
0 10 0
0 0

0101101
*
Ed
 1e-07 1 1 0
1  3 0 0 10
2  5 1 0 0 10
2  6 4 0 0 10
6  9 1 0
6  10 8 0
6  11 9 3
6  12 10 3
0

0101000
-58 0 +56 0 *
Ed
 1e-07 1 1 0
1  4 0 0 10
2  7 1 0 0 10
2  8 5 0 0 10
6  13 1 0
6  14 11 0
6  15 12 3
6  16 13 3
0

0101000
-56 0 +60 0 *
Wi

0101100
-59 0 -57 0 +55 0 +54 0 *
Fa
0  1e-07 1 0
2  1
0111000
+53 0 *
Ve
1e-07
50 0 0
0 0

0101101
*
Ed
 1e-07 1 1 0
1  5 0 0 50
2  9 2 0 0 50
2  10 5 0 0 50
6  17 4 3
6  18 13 3
0

0101000
+60 0 -51 3 *
Ve
1e-07
50 0 10
0 0

0101101
*
Ed
 1e-07 1 1 0
1  6 0 0 10
2  11 6 0 0 10
2  12 7 0 0 10
6  19 4 5
6  20 14 5
6  21 15 5
0

0101000
+51 5 -49 5 *
Ed
 1e-07 1 1 0
1  7 0 0 50
2  13 2 0 0 50
2  14 3 0 0 50
6  22 4 3
6  23 7 3
0

0101000
+61 0 -49 3 *
Wi

0101100
-50 2 +59 2 -48 4 +47 2 *
Fa
0  1e-07 2 2
2  4
0101000
+46 0 *
Ve
1e-07
50 10 10
0 0

0101101
*
Ed
 1e-07 1 1 0
1  8 0 0 50
2  15 4 0 0 50
2  16 3 0 0 50
6  24 7 3
6  25 10 3
0

0101000
+58 0 -44 3 *
Ed
 1e-07 1 1 0
1  9 0 0 10
2  17 6 0 0 10
2  18 8 0 0 10
6  26 7 5
6  27 14 5
6  28 16 5
0

0101000
+49 5 -44 5 *
Wi

0101100
-57 2 -43 2 +47 2 +42 4 *
Fa
0  1e-07 3 2
2  7
0101000
+41 0 *
Ve
1e-07
50 10 0
0 0

0101101
*
Ed
 1e-07 1 1 0
1  10 0 0 50
2  19 4 0 0 50
2  20 5 0 0 50
6  29 10 3
6  30 13 3
0

0101000
+56 0 -39 3 *
Ed
 1e-07 1 1 0
1  11 0 0 10
2  21 6 0 0 10
2  22 9 0 0 10
6  31 10 5
6  32 14 5
6  33 17 5
0

0101000
+39 5 -44 5 *
Wi

0101100
-38 2 +55 2 -37 4 +43 2 *
Fa
0  1e-07 4 2
2  10
0101000
+36 0 *
Ed
 1e-07 1 1 0
1  12 0 0 10
2  23 6 0 0 10
2  24 10 0 0 10
6  34 13 5
6  35 14 5
6  36 18 5
0

0101000
+51 5 -39 5 *
Wi

0101100
-54 2 -38 2 +50 2 +34 4 *
Fa
0  1e-07 5 2
2  13
0101000
+33 0 *
Wi

0101100
-48 4 +34 4 -42 4 +37 4 *
Fa
0  1e-07 6 4
2  14
0101000
+31 0 *
Sh

0101100
-52 2 -45 0 +40 0 +35 0 -32 0 +30 0 *
So

0100000
+29 0 *
Ve
1e-07
50 0 0
0 0

0101101
*
Ed
 1e-07 1 1 0
1  13 0 0 50
2  25 7 0 0 50
2  26 10 0 0 50
6  37 15 5
6  38 18 5
0

0101000
+51 5 -27 0 *
Ve
1e-07
50 0 10
0 0

0101101
*
Ed
 1e-07 1 1 0
1  14 0 0 10
2  27 11 0 0 10
2  28 7 0 0 10
6  39 19 0
6  40 20 0
6  41 21 5
6  42 15 5
0

0101000
-25 0 +27 0 *
Ed
 1e-07 1 1 0
1  15 0 0 50
2  29 7 0 0 50
2  30 8 0 0 50
6  43 15 5
6  44 16 5
0

0101000
+49 5 -25 0 *
Wi

0101100
-26 4 +48 4 -24 4 +23 4 *
Fa
0  1e-07 7 4
2  15
0101000
+22 0 *
Ve
1e-07
50 10 0
0 0

0101101
*
Ed
 1e-07 1 1 0
1  16 0 0 50
2  31 9 0 0 50
2  32 10 0 0 50
6  45 18 5
6  46 17 5
0

0101000
+39 5 -20 0 *
Ed
 1e-07 1 1 0
1  17 0 0 10
2  33 11 0 0 10
2  34 10 0 0 10
6  47 19 0
6  48 22 0
6  49 23 5
6  50 18 5
0

0101000
-20 0 +27 0 *
Wi

0101100
-34 4 +26 4 -19 4 +18 4 *
Fa
0  1e-07 10 4
2  18
0101000
+17 0 *
Ve
1e-07
50 10 10
0 0

0101101
*
Ed
 1e-07 1 1 0
1  18 0 0 50
2  35 9 0 0 50
2  36 8 0 0 50
6  51 16 5
6  52 17 5
0

0101000
+44 5 -15 0 *
Ed
 1e-07 1 1 0
1  19 0 0 10
2  37 11 0 0 10
2  38 8 0 0 10
6  53 19 0
6  54 24 0
6  55 25 5
6  56 16 5
0

0101000
-15 0 +25 0 *
Wi

0101100
-42 4 +23 4 -14 4 +13 4 *
Fa
0  1e-07 8 4
2  16
0101000
+12 0 *
Ed
 1e-07 1 1 0
1  20 0 0 10
2  39 11 0 0 10
2  40 9 0 0 10
6  57 19 0
6  58 26 0
6  59 27 5
6  60 17 5
0

0101000
-15 0 +20 0 *
Wi

0101100
-19 4 +37 4 -10 4 +14 4 *
Fa
0  1e-07 9 4
2  17
0101000
+9 0 *
Wi

0101100
-24 0 -13 0 +10 0 +18 0 *
Fa
0  1e-07 11 0
2  19
0111000
+7 0 *
Sh

0101100
-30 0 -21 0 -16 0 +11 0 +8 0 +6 4 *
So

0100000
+5 0 *
CS

0101000
+28 0 +4 0 *
Co

0100000
+3 0 *
Co

1100000
+2 1 *

+1 0 